Georama-XCn-XLt.ufo
<glyph name="numbersign" format="2">
	<advance width="250"/>
	<unicode hex="0023"/>
	<outline>
		<contour>
			<point x="32" y="483" type="line"/>
			<point x="83" y="483" type="line"/>
			<point x="51" y="218" type="line"/>
			<point x="7" y="218" type="line"/>
			<point x="7" y="198" type="line"/>
			<point x="49" y="198" type="line"/>
			<point x="25" y="0" type="line"/>
			<point x="45" y="0" type="line"/>
			<point x="69" y="198" type="line"/>
			<point x="145" y="198" type="line"/>
			<point x="121" y="0" type="line"/>
			<point x="141" y="0" type="line"/>
			<point x="165" y="198" type="line"/>
			<point x="218" y="198" type="line"/>
			<point x="218" y="218" type="line"/>
			<point x="167" y="218" type="line"/>
			<point x="199" y="483" type="line"/>
			<point x="243" y="483" type="line"/>
			<point x="243" y="503" type="line"/>
			<point x="202" y="503" type="line"/>
			<point x="226" y="700" type="line"/>
			<point x="206" y="700" type="line"/>
			<point x="182" y="503" type="line"/>
			<point x="106" y="503" type="line"/>
			<point x="130" y="700" type="line"/>
			<point x="110" y="700" type="line"/>
			<point x="86" y="503" type="line"/>
			<point x="32" y="503" type="line"/>
		</contour>
		<contour>
			<point x="103" y="483" type="line"/>
			<point x="179" y="483" type="line"/>
			<point x="147" y="218" type="line"/>
			<point x="71" y="218" type="line"/>
		</contour>
	</outline>
</glyph>
<glyph name="dollar" format="2">
	<advance width="250"/>
	<unicode hex="0024"/>
	<outline>
		<contour>
			<point x="103" y="-10" type="curve" smooth="yes"/>
			<point x="165" y="-10"/>
			<point x="206" y="44"/>
			<point x="206" y="124" type="curve" smooth="yes"/>
			<point x="206" y="217"/>
			<point x="171" y="285"/>
			<point x="136" y="354" type="curve" smooth="yes"/>
			<point x="102" y="421"/>
			<point x="68" y="489"/>
			<point x="68" y="577" type="curve" smooth="yes"/>
			<point x="68" y="647"/>
			<point x="94" y="692"/>
			<point x="135" y="692" type="curve" smooth="yes"/>
			<point x="155" y="692"/>
			<point x="168" y="687"/>
			<point x="180" y="680" type="curve"/>
			<point x="188" y="696" type="line"/>
			<point x="173" y="705"/>
			<point x="154" y="710"/>
			<point x="135" y="710" type="curve" smooth="yes"/>
			<point x="82" y="710"/>
			<point x="48" y="658"/>
			<point x="48" y="577" type="curve" smooth="yes"/>
			<point x="48" y="484"/>
			<point x="84" y="413"/>
			<point x="119" y="343" type="curve" smooth="yes"/>
			<point x="153" y="275"/>
			<point x="186" y="208"/>
			<point x="186" y="121" type="curve" smooth="yes"/>
			<point x="186" y="55"/>
			<point x="154" y="9"/>
			<point x="108" y="9" type="curve" smooth="yes"/>
			<point x="85" y="9"/>
			<point x="67" y="13"/>
			<point x="51" y="22" type="curve"/>
			<point x="44" y="4" type="line"/>
			<point x="60" y="-5"/>
			<point x="81" y="-10"/>
		</contour>
		<contour>
			<point x="120" y="-105" type="line"/>
			<point x="140" y="-105" type="line"/>
			<point x="140" y="1" type="line"/>
			<point x="120" y="-4" type="line"/>
		</contour>
		<contour>
			<point x="120" y="703" type="line"/>
			<point x="140" y="705" type="line"/>
			<point x="140" y="805" type="line"/>
			<point x="120" y="805" type="line"/>
		</contour>
	</outline>
</glyph>
<glyph name="parenleft" format="2">
	<advance width="171"/>
	<unicode hex="0028"/>
	<outline>
		<contour>
			<point x="50" y="265" type="curve" smooth="yes"/>
			<point x="50" y="-12"/>
			<point x="97" y="-195"/>
			<point x="166" y="-221" type="curve"/>
			<point x="166" y="-196" type="line"/>
			<point x="109" y="-162"/>
			<point x="72" y="1"/>
			<point x="72" y="265" type="curve" smooth="yes"/>
			<point x="72" y="529"/>
			<point x="109" y="692"/>
			<point x="166" y="726" type="curve"/>
			<point x="166" y="751" type="line"/>
			<point x="97" y="725"/>
			<point x="50" y="542"/>
		</contour>
	</outline>
</glyph>
<glyph name="asterisk" format="2">
	<advance width="182"/>
	<unicode hex="002A"/>
	<outline>
		<contour>
			<point x="43" y="398" type="line"/>
			<point x="91" y="485" type="line"/>
			<point x="139" y="398" type="line"/>
			<point x="154" y="408" type="line"/>
			<point x="104" y="499" type="line"/>
			<point x="182" y="542" type="line"/>
			<point x="175" y="558" type="line"/>
			<point x="100" y="517" type="line"/>
			<point x="100" y="629" type="line"/>
			<point x="82" y="629" type="line"/>
			<point x="82" y="517" type="line"/>
			<point x="7" y="558" type="line"/>
			<point x="0" y="542" type="line"/>
			<point x="78" y="499" type="line"/>
			<point x="28" y="408" type="line"/>
		</contour>
	</outline>
</glyph>
<glyph name="comma" format="2">
	<advance width="90"/>
	<unicode hex="002C"/>
	<outline>
		<contour>
			<point x="32" y="34" type="line"/>
			<point x="39" y="14"/>
			<point x="43" y="-9"/>
			<point x="43" y="-26" type="curve" smooth="yes"/>
			<point x="43" y="-88"/>
			<point x="26" y="-156"/>
			<point x="-18" y="-188" type="curve"/>
			<point x="-7" y="-204" type="line"/>
			<point x="47" y="-165"/>
			<point x="63" y="-82"/>
			<point x="63" y="-26" type="curve" smooth="yes"/>
			<point x="63" y="-5"/>
			<point x="60" y="18"/>
			<point x="53" y="41" type="curve"/>
		</contour>
	</outline>
</glyph>
<glyph name="period" format="2">
	<advance width="90"/>
	<unicode hex="002E"/>
	<outline>
		<contour>
			<point x="31" y="17" type="curve" smooth="yes"/>
			<point x="31" y="1"/>
			<point x="32" y="0"/>
			<point x="45" y="0" type="curve" smooth="yes"/>
			<point x="59" y="0"/>
			<point x="59" y="1"/>
			<point x="59" y="17" type="curve" smooth="yes"/>
			<point x="59" y="33"/>
			<point x="59" y="34"/>
			<point x="45" y="34" type="curve" smooth="yes"/>
			<point x="31" y="34"/>
			<point x="31" y="33"/>
		</contour>
	</outline>
</glyph>
<glyph name="one" format="2">
	<advance width="250"/>
	<unicode hex="0031"/>
	<outline>
		<contour>
			<point x="16" y="0" type="line"/>
			<point x="242" y="0" type="line"/>
			<point x="242" y="20" type="line"/>
			<point x="144" y="20" type="line"/>
			<point x="144" y="700" type="line"/>
			<point x="132" y="700" type="line"/>
			<point x="2" y="580" type="line"/>
			<point x="14" y="566" type="line"/>
			<point x="124" y="665" type="line"/>
			<point x="124" y="20" type="line"/>
			<point x="16" y="20" type="line"/>
		</contour>
	</outline>
</glyph>
<glyph name="three" format="2">
	<advance width="250"/>
	<unicode hex="0033"/>
	<outline>
		<contour>
			<point x="4" y="33" type="line"/>
			<point x="25" y="4"/>
			<point x="55" y="-10"/>
			<point x="94" y="-10" type="curve" smooth="yes"/>
			<point x="170" y="-10"/>
			<point x="214" y="67"/>
			<point x="214" y="198" type="curve" smooth="yes"/>
			<point x="214" y="287"/>
			<point x="191" y="347"/>
			<point x="145" y="370" type="curve"/>
			<point x="181" y="393"/>
			<point x="200" y="454"/>
			<point x="200" y="534" type="curve" smooth="yes"/>
			<point x="200" y="641"/>
			<point x="167" y="710"/>
			<point x="94" y="710" type="curve" smooth="yes"/>
			<point x="63" y="710"/>
			<point x="34" y="698"/>
			<point x="16" y="677" type="curve"/>
			<point x="28" y="664" type="line"/>
			<point x="45" y="682"/>
			<point x="66" y="690"/>
			<point x="94" y="690" type="curve" smooth="yes"/>
			<point x="154" y="690"/>
			<point x="180" y="629"/>
			<point x="180" y="534" type="curve" smooth="yes"/>
			<point x="180" y="443"/>
			<point x="154" y="379"/>
			<point x="117" y="379" type="curve" smooth="yes"/>
			<point x="62" y="379" type="line"/>
			<point x="62" y="359" type="line"/>
			<point x="100" y="359" type="line" smooth="yes"/>
			<point x="162" y="359"/>
			<point x="194" y="304"/>
			<point x="194" y="198" type="curve" smooth="yes"/>
			<point x="194" y="80"/>
			<point x="157" y="10"/>
			<point x="95" y="10" type="curve" smooth="yes"/>
			<point x="60" y="10"/>
			<point x="38" y="21"/>
			<point x="19" y="45" type="curve"/>
		</contour>
	</outline>
</glyph>
<glyph name="four" format="2">
	<advance width="250"/>
	<unicode hex="0034"/>
	<outline>
		<contour>
			<point x="18" y="192" type="line"/>
			<point x="163" y="192" type="line"/>
			<point x="163" y="0" type="line"/>
			<point x="183" y="0" type="line"/>
			<point x="183" y="192" type="line"/>
			<point x="241" y="192" type="line"/>
			<point x="241" y="212" type="line"/>
			<point x="183" y="212" type="line"/>
			<point x="183" y="699" type="line"/>
			<point x="168" y="704" type="line"/>
			<point x="11" y="209" type="line"/>
		</contour>
		<contour>
			<point x="33" y="212" type="line"/>
			<point x="163" y="624" type="line"/>
			<point x="163" y="212" type="line"/>
		</contour>
	</outline>
</glyph>
<glyph name="five" format="2">
	<advance width="250"/>
	<unicode hex="0035"/>
	<outline>
		<contour>
			<point x="20" y="38" type="line"/>
			<point x="42" y="7"/>
			<point x="73" y="-10"/>
			<point x="107" y="-10" type="curve" smooth="yes"/>
			<point x="182" y="-10"/>
			<point x="229" y="64"/>
			<point x="229" y="192" type="curve" smooth="yes"/>
			<point x="229" y="312"/>
			<point x="187" y="379"/>
			<point x="108" y="379" type="curve" smooth="yes"/>
			<point x="62" y="379" type="line"/>
			<point x="75" y="680" type="line"/>
			<point x="209" y="680" type="line"/>
			<point x="209" y="700" type="line"/>
			<point x="56" y="700" type="line"/>
			<point x="42" y="370" type="line"/>
			<point x="52" y="359" type="line"/>
			<point x="107" y="359" type="line" smooth="yes"/>
			<point x="173" y="359"/>
			<point x="209" y="299"/>
			<point x="209" y="192" type="curve" smooth="yes"/>
			<point x="209" y="76"/>
			<point x="170" y="10"/>
			<point x="107" y="10" type="curve" smooth="yes"/>
			<point x="74" y="10"/>
			<point x="52" y="29"/>
			<point x="36" y="50" type="curve"/>
		</contour>
	</outline>
</glyph>
<glyph name="nine" format="2">
	<advance width="250"/>
	<unicode hex="0039"/>
	<outline>
		<contour>
			<point x="105" y="-10" type="curve" smooth="yes"/>
			<point x="196" y="-10"/>
			<point x="232" y="89"/>
			<point x="232" y="373" type="curve" smooth="yes"/>
			<point x="232" y="626"/>
			<point x="201" y="710"/>
			<point x="120" y="710" type="curve" smooth="yes"/>
			<point x="59" y="710"/>
			<point x="17" y="627"/>
			<point x="17" y="499" type="curve" smooth="yes"/>
			<point x="17" y="376"/>
			<point x="55" y="304"/>
			<point x="119" y="304" type="curve" smooth="yes"/>
			<point x="168" y="304"/>
			<point x="212" y="355"/>
			<point x="219" y="422" type="curve"/>
			<point x="219" y="461" type="line"/>
			<point x="204" y="369"/>
			<point x="165" y="323"/>
			<point x="120" y="323" type="curve" smooth="yes"/>
			<point x="68" y="323"/>
			<point x="37" y="389"/>
			<point x="37" y="502" type="curve" smooth="yes"/>
			<point x="37" y="617"/>
			<point x="72" y="692"/>
			<point x="121" y="692" type="curve" smooth="yes"/>
			<point x="184" y="692"/>
			<point x="212" y="607"/>
			<point x="212" y="376" type="curve" smooth="yes"/>
			<point x="212" y="121"/>
			<point x="183" y="8"/>
			<point x="107" y="8" type="curve" smooth="yes"/>
			<point x="81" y="8"/>
			<point x="64" y="19"/>
			<point x="45" y="37" type="curve"/>
			<point x="32" y="23" type="line"/>
			<point x="53" y="1"/>
			<point x="76" y="-10"/>
		</contour>
	</outline>
</glyph>
<glyph name="equal" format="2">
  <advance width="370"/>
  <unicode hex="003D"/>
  <outline>
    <contour>
      <point x="331" y="197" type="line"/>
      <point x="39" y="197" type="line"/>
      <point x="39" y="177" type="line"/>
      <point x="331" y="177" type="line"/>
    </contour>
    <contour>
      <point x="331" y="404" type="line"/>
      <point x="39" y="404" type="line"/>
      <point x="39" y="384" type="line"/>
      <point x="331" y="384" type="line"/>
    </contour>
  </outline>
</glyph>
<glyph name="question" format="2">
	<advance width="230"/>
	<unicode hex="003F"/>
	<outline>
		<contour>
			<point x="93" y="264" type="line"/>
			<point x="113" y="264" type="line"/>
			<point x="113" y="342" type="line"/>
			<point x="181" y="423"/>
			<point x="216" y="466"/>
			<point x="216" y="578" type="curve" smooth="yes"/>
			<point x="216" y="696"/>
			<point x="163" y="750"/>
			<point x="104" y="750" type="curve" smooth="yes"/>
			<point x="68" y="750"/>
			<point x="34" y="729"/>
			<point x="8" y="697" type="curve"/>
			<point x="20" y="684" type="line"/>
			<point x="49" y="717"/>
			<point x="78" y="731"/>
			<point x="104" y="731" type="curve" smooth="yes"/>
			<point x="156" y="731"/>
			<point x="195" y="672"/>
			<point x="195" y="580" type="curve" smooth="yes"/>
			<point x="195" y="488"/>
			<point x="171" y="433"/>
			<point x="93" y="351" type="curve"/>
		</contour>
		<contour>
			<point x="88" y="17" type="curve" smooth="yes"/>
			<point x="88" y="1"/>
			<point x="91" y="0"/>
			<point x="103" y="0" type="curve" smooth="yes"/>
			<point x="116" y="0"/>
			<point x="117" y="1"/>
			<point x="117" y="17" type="curve" smooth="yes"/>
			<point x="117" y="33"/>
			<point x="116" y="34"/>
			<point x="103" y="34" type="curve" smooth="yes"/>
			<point x="89" y="34"/>
			<point x="88" y="33"/>
		</contour>
	</outline>
</glyph>
<glyph name="B" format="2">
  <advance width="271"/>
  <unicode hex="0042"/>
  <anchor x="122" y="700" name="top"/>
  <anchor x="122" y="0" name="bottom"/>
  <outline>
    <contour>
      <point x="43" y="-6" type="line"/>
      <point x="65" y="-9"/>
      <point x="84" y="-10"/>
      <point x="107" y="-10" type="curve" smooth="yes"/>
      <point x="203" y="-10"/>
      <point x="248" y="51"/>
      <point x="248" y="181" type="curve" smooth="yes"/>
      <point x="248" y="276"/>
      <point x="214" y="340"/>
      <point x="155" y="357" type="curve"/>
      <point x="155" y="358" type="line"/>
      <point x="201" y="379"/>
      <point x="232" y="449"/>
      <point x="232" y="534" type="curve" smooth="yes"/>
      <point x="232" y="655"/>
      <point x="193" y="710"/>
      <point x="107" y="710" type="curve" smooth="yes"/>
      <point x="88" y="710"/>
      <point x="67" y="708"/>
      <point x="43" y="704" type="curve"/>
    </contour>
    <contour>
      <point x="63" y="364" type="line"/>
      <point x="63" y="688" type="line"/>
      <point x="76" y="691"/>
      <point x="90" y="692"/>
      <point x="108" y="692" type="curve" smooth="yes"/>
      <point x="178" y="692"/>
      <point x="212" y="640"/>
      <point x="212" y="534" type="curve" smooth="yes"/>
      <point x="212" y="438"/>
      <point x="174" y="364"/>
      <point x="116" y="364" type="curve" smooth="yes"/>
    </contour>
    <contour>
      <point x="63" y="12" type="curve"/>
      <point x="63" y="344" type="line"/>
      <point x="119" y="344" type="line" smooth="yes"/>
      <point x="188" y="344"/>
      <point x="228" y="279"/>
      <point x="228" y="182" type="curve" smooth="yes"/>
      <point x="228" y="60"/>
      <point x="192" y="9"/>
      <point x="105" y="9" type="curve" smooth="yes"/>
      <point x="95" y="9"/>
      <point x="85" y="10"/>
    </contour>
  </outline>
</glyph>
<glyph name="D" format="2">
  <advance width="287"/>
  <unicode hex="0044"/>
  <anchor x="129" y="700" name="top"/>
  <outline>
    <contour>
      <point x="117" y="-10" type="curve" smooth="yes"/>
      <point x="222" y="-10"/>
      <point x="259" y="90"/>
      <point x="259" y="350" type="curve" smooth="yes"/>
      <point x="259" y="611"/>
      <point x="222" y="710"/>
      <point x="118" y="710" type="curve" smooth="yes"/>
      <point x="96" y="710"/>
      <point x="71" y="708"/>
      <point x="43" y="704" type="curve"/>
      <point x="43" y="-6" type="line"/>
      <point x="63" y="-9"/>
      <point x="89" y="-10"/>
    </contour>
    <contour>
      <point x="105" y="8" type="curve" smooth="yes"/>
      <point x="93" y="8"/>
      <point x="80" y="9"/>
      <point x="63" y="11" type="curve"/>
      <point x="63" y="688" type="line"/>
      <point x="78" y="690"/>
      <point x="95" y="691"/>
      <point x="108" y="691" type="curve" smooth="yes"/>
      <point x="206" y="691"/>
      <point x="238" y="608"/>
      <point x="238" y="350" type="curve" smooth="yes"/>
      <point x="238" y="92"/>
      <point x="208" y="8"/>
    </contour>
  </outline>
</glyph>
<glyph name="G" format="2">
  <advance width="261"/>
  <unicode hex="0047"/>
  <anchor x="152" y="700" name="top"/>
  <anchor x="154" y="0" name="bottom"/>
  <outline>
    <contour>
      <point x="28" y="336" type="curve" smooth="yes"/>
      <point x="28" y="95"/>
      <point x="65" y="-10"/>
      <point x="161" y="-10" type="curve" smooth="yes"/>
      <point x="189" y="-10"/>
      <point x="217" y="-7"/>
      <point x="228" y="-2" type="curve"/>
      <point x="228" y="339" type="line"/>
      <point x="131" y="339" type="line"/>
      <point x="131" y="320" type="line"/>
      <point x="208" y="320" type="line"/>
      <point x="208" y="12" type="line"/>
      <point x="197" y="9"/>
      <point x="183" y="8"/>
      <point x="162" y="8" type="curve" smooth="yes"/>
      <point x="82" y="8"/>
      <point x="48" y="108"/>
      <point x="48" y="336" type="curve" smooth="yes"/>
      <point x="48" y="591"/>
      <point x="82" y="691"/>
      <point x="166" y="691" type="curve" smooth="yes"/>
      <point x="182" y="691"/>
      <point x="198" y="689"/>
      <point x="217" y="683" type="curve"/>
      <point x="221" y="701" type="line"/>
      <point x="203" y="707"/>
      <point x="184" y="710"/>
      <point x="165" y="710" type="curve" smooth="yes"/>
      <point x="67" y="710"/>
      <point x="28" y="603"/>
    </contour>
  </outline>
</glyph>
<glyph name="H" format="2">
  <advance width="308"/>
  <unicode hex="0048"/>
  <anchor x="154" y="700" name="top"/>
  <outline>
    <contour>
      <point x="43" y="0" type="line"/>
      <point x="63" y="0" type="line"/>
      <point x="63" y="291" type="line"/>
      <point x="245" y="291" type="line"/>
      <point x="245" y="0" type="line"/>
      <point x="265" y="0" type="line"/>
      <point x="265" y="700" type="line"/>
      <point x="245" y="700" type="line"/>
      <point x="245" y="310" type="line"/>
      <point x="63" y="310" type="line"/>
      <point x="63" y="700" type="line"/>
      <point x="43" y="700" type="line"/>
    </contour>
  </outline>
</glyph>
<glyph name="L" format="2">
  <advance width="208"/>
  <unicode hex="004C"/>
  <anchor x="104" y="350" name="center"/>
  <anchor x="53" y="700" name="top"/>
  <anchor x="144" y="700" name="topright"/>
  <anchor x="126" y="0" name="bottom"/>
  <outline>
    <contour>
      <point x="43" y="0" type="line"/>
      <point x="204" y="0" type="line"/>
      <point x="204" y="19" type="line"/>
      <point x="63" y="19" type="line"/>
      <point x="63" y="700" type="line"/>
      <point x="43" y="700" type="line"/>
    </contour>
  </outline>
</glyph>
<glyph name="M" format="2">
  <advance width="323"/>
  <unicode hex="004D"/>
  <outline>
    <contour>
      <point x="43" y="0" type="line"/>
      <point x="63" y="0" type="line"/>
      <point x="63" y="637" type="line"/>
      <point x="154" y="277" type="line"/>
      <point x="168" y="277" type="line"/>
      <point x="260" y="636" type="line"/>
      <point x="260" y="0" type="line"/>
      <point x="280" y="0" type="line"/>
      <point x="280" y="700" type="line"/>
      <point x="259" y="700" type="line"/>
      <point x="162" y="325" type="line"/>
      <point x="65" y="700" type="line"/>
      <point x="43" y="700" type="line"/>
    </contour>
  </outline>
</glyph>
<glyph name="N" format="2">
  <advance width="303"/>
  <unicode hex="004E"/>
  <anchor x="152" y="700" name="top"/>
  <anchor x="152" y="0" name="bottom"/>
  <outline>
    <contour>
      <point x="43" y="0" type="line"/>
      <point x="63" y="0" type="line"/>
      <point x="63" y="635" type="line"/>
      <point x="239" y="0" type="line"/>
      <point x="260" y="0" type="line"/>
      <point x="260" y="700" type="line"/>
      <point x="240" y="700" type="line"/>
      <point x="240" y="61" type="line"/>
      <point x="64" y="700" type="line"/>
      <point x="43" y="700" type="line"/>
    </contour>
  </outline>
</glyph>
<glyph name="P" format="2">
  <advance width="248"/>
  <unicode hex="0050"/>
  <outline>
    <contour>
      <point x="43" y="0" type="line"/>
      <point x="63" y="0" type="line"/>
      <point x="63" y="295" type="line"/>
      <point x="73" y="294"/>
      <point x="88" y="294"/>
      <point x="104" y="294" type="curve" smooth="yes"/>
      <point x="188" y="294"/>
      <point x="232" y="356"/>
      <point x="232" y="512" type="curve" smooth="yes"/>
      <point x="232" y="663"/>
      <point x="202" y="710"/>
      <point x="107" y="710" type="curve" smooth="yes"/>
      <point x="88" y="710"/>
      <point x="67" y="708"/>
      <point x="43" y="704" type="curve"/>
    </contour>
    <contour>
      <point x="63" y="688" type="line"/>
      <point x="79" y="691"/>
      <point x="94" y="692"/>
      <point x="108" y="692" type="curve" smooth="yes"/>
      <point x="193" y="692"/>
      <point x="212" y="641"/>
      <point x="212" y="509" type="curve" smooth="yes"/>
      <point x="212" y="368"/>
      <point x="176" y="314"/>
      <point x="105" y="314" type="curve" smooth="yes"/>
      <point x="89" y="314"/>
      <point x="76" y="314"/>
      <point x="63" y="315" type="curve"/>
    </contour>
  </outline>
</glyph>
<glyph name="Q" format="2">
  <advance width="299"/>
  <unicode hex="0051"/>
  <outline>
    <contour>
      <point x="166" y="4" type="curve"/>
      <point x="148" y="0" type="line"/>
      <point x="164" y="-161"/>
      <point x="181" y="-210"/>
      <point x="224" y="-210" type="curve" smooth="yes"/>
      <point x="237" y="-210"/>
      <point x="253" y="-205"/>
      <point x="272" y="-198" type="curve"/>
      <point x="266" y="-181" type="line"/>
      <point x="251" y="-188"/>
      <point x="238" y="-192"/>
      <point x="228" y="-192" type="curve" smooth="yes"/>
      <point x="195" y="-192"/>
      <point x="182" y="-149"/>
    </contour>
    <contour>
      <point x="149" y="8" type="curve" smooth="yes"/>
      <point x="78" y="8"/>
      <point x="48" y="77"/>
      <point x="48" y="349" type="curve" smooth="yes"/>
      <point x="48" y="623"/>
      <point x="78" y="692"/>
      <point x="149" y="692" type="curve" smooth="yes"/>
      <point x="221" y="692"/>
      <point x="251" y="623"/>
      <point x="251" y="349" type="curve" smooth="yes"/>
      <point x="251" y="77"/>
      <point x="221" y="8"/>
    </contour>
    <contour>
      <point x="149" y="-10" type="curve" smooth="yes"/>
      <point x="235" y="-10"/>
      <point x="271" y="61"/>
      <point x="271" y="349" type="curve" smooth="yes"/>
      <point x="271" y="639"/>
      <point x="235" y="710"/>
      <point x="149" y="710" type="curve" smooth="yes"/>
      <point x="64" y="710"/>
      <point x="28" y="639"/>
      <point x="28" y="349" type="curve" smooth="yes"/>
      <point x="28" y="61"/>
      <point x="64" y="-10"/>
    </contour>
  </outline>
</glyph>
<glyph name="S" format="2">
	<advance width="238"/>
	<unicode hex="0053"/>
	<anchor x="129" y="700" name="top"/>
	<anchor x="119" y="0" name="bottom"/>
	<outline>
		<contour>
			<point x="197" y="696" type="line"/>
			<point x="181" y="704"/>
			<point x="159" y="710"/>
			<point x="132" y="710" type="curve" smooth="yes"/>
			<point x="76" y="710"/>
			<point x="29" y="662"/>
			<point x="29" y="577" type="curve" smooth="yes"/>
			<point x="29" y="485"/>
			<point x="71" y="415"/>
			<point x="113" y="346" type="curve" smooth="yes"/>
			<point x="154" y="278"/>
			<point x="196" y="209"/>
			<point x="196" y="121" type="curve" smooth="yes"/>
			<point x="196" y="42"/>
			<point x="144" y="10"/>
			<point x="99" y="10" type="curve" smooth="yes"/>
			<point x="73" y="10"/>
			<point x="51" y="13"/>
			<point x="27" y="24" type="curve"/>
			<point x="19" y="6" type="line"/>
			<point x="35" y="-3"/>
			<point x="67" y="-10"/>
			<point x="99" y="-10" type="curve" smooth="yes"/>
			<point x="155" y="-10"/>
			<point x="216" y="32"/>
			<point x="216" y="124" type="curve" smooth="yes"/>
			<point x="216" y="217"/>
			<point x="172" y="286"/>
			<point x="130" y="356" type="curve" smooth="yes"/>
			<point x="89" y="424"/>
			<point x="49" y="489"/>
			<point x="49" y="577" type="curve" smooth="yes"/>
			<point x="49" y="648"/>
			<point x="83" y="692"/>
			<point x="132" y="692" type="curve" smooth="yes"/>
			<point x="159" y="692"/>
			<point x="172" y="688"/>
			<point x="189" y="680" type="curve"/>
		</contour>
	</outline>
</glyph>
<glyph name="U" format="2">
  <advance width="297"/>
  <unicode hex="0055"/>
  <anchor x="170" y="0" name="ogonek"/>
  <anchor x="149" y="700" name="top"/>
  <anchor x="259" y="700" name="topright"/>
  <anchor x="149" y="0" name="bottom"/>
  <outline>
    <contour>
      <point x="38" y="136" type="line"/>
      <point x="38" y="16"/>
      <point x="95" y="-10"/>
      <point x="149" y="-10" type="curve" smooth="yes"/>
      <point x="203" y="-10"/>
      <point x="259" y="16"/>
      <point x="259" y="136" type="curve" smooth="yes"/>
      <point x="259" y="700" type="line"/>
      <point x="239" y="700" type="line"/>
      <point x="239" y="136" type="line" smooth="yes"/>
      <point x="239" y="29"/>
      <point x="193" y="10"/>
      <point x="149" y="10" type="curve" smooth="yes"/>
      <point x="105" y="10"/>
      <point x="58" y="29"/>
      <point x="58" y="136" type="curve" smooth="yes"/>
      <point x="58" y="700" type="line"/>
      <point x="38" y="700" type="line"/>
    </contour>
  </outline>
</glyph>
<glyph name="V" format="2">
	<advance width="258"/>
	<unicode hex="0056"/>
	<outline>
		<contour>
			<point x="118" y="0" type="line"/>
			<point x="140" y="0" type="line"/>
			<point x="248" y="699" type="line"/>
			<point x="229" y="702" type="line"/>
			<point x="129" y="54" type="line"/>
			<point x="29" y="702" type="line"/>
			<point x="10" y="699" type="line"/>
		</contour>
	</outline>
</glyph>
<glyph name="Z" format="2">
	<advance width="250"/>
	<unicode hex="005A"/>
	<anchor x="134" y="350" name="center"/>
	<anchor x="134" y="0" name="bottom"/>
	<anchor x="131" y="700" name="top"/>
	<outline>
		<contour>
			<point x="15" y="0" type="line"/>
			<point x="242" y="0" type="line"/>
			<point x="242" y="19" type="line"/>
			<point x="37" y="19" type="line"/>
			<point x="37" y="21" type="line"/>
			<point x="228" y="685" type="line"/>
			<point x="228" y="700" type="line"/>
			<point x="35" y="700" type="line"/>
			<point x="35" y="681" type="line"/>
			<point x="206" y="681" type="line"/>
			<point x="206" y="679" type="line"/>
			<point x="15" y="15" type="line"/>
		</contour>
	</outline>
</glyph>
<glyph name="bracketleft" format="2">
	<advance width="171"/>
	<unicode hex="005B"/>
	<outline>
		<contour>
			<point x="70" y="-190" type="line"/>
			<point x="70" y="720" type="line"/>
			<point x="165" y="720" type="line"/>
			<point x="165" y="740" type="line"/>
			<point x="50" y="740" type="line"/>
			<point x="50" y="-210" type="line"/>
			<point x="165" y="-210" type="line"/>
			<point x="165" y="-190" type="line"/>
		</contour>
	</outline>
</glyph>
<glyph name="backslash" format="2">
  <advance width="190"/>
  <unicode hex="005C"/>
  <outline>
    <contour>
      <point x="21" y="740" type="line"/>
      <point x="2" y="740" type="line"/>
      <point x="169" y="-210" type="line"/>
      <point x="188" y="-210" type="line"/>
    </contour>
  </outline>
</glyph>
<glyph name="bracketright" format="2">
  <advance width="171"/>
  <unicode hex="005D"/>
  <outline>
    <contour>
      <point x="6" y="-190" type="line"/>
      <point x="6" y="-210" type="line"/>
      <point x="121" y="-210" type="line"/>
      <point x="121" y="740" type="line"/>
      <point x="6" y="740" type="line"/>
      <point x="6" y="720" type="line"/>
      <point x="101" y="720" type="line"/>
      <point x="101" y="-190" type="line"/>
    </contour>
  </outline>
</glyph>
<glyph name="underscore" format="2">
	<advance width="608"/>
	<unicode hex="005F"/>
	<outline>
		<contour>
			<point x="0" y="-136" type="line"/>
			<point x="608" y="-136" type="line"/>
			<point x="608" y="-116" type="line"/>
			<point x="0" y="-116" type="line"/>
		</contour>
	</outline>
</glyph>
<glyph name="a" format="2">
	<advance width="250"/>
	<unicode hex="0061"/>
	<anchor x="254" y="-1" name="ogonek"/>
	<anchor x="111" y="0" name="bottom"/>
	<anchor x="114" y="530" name="top"/>
	<outline>
		<contour>
			<point x="9" y="106" type="curve" smooth="yes"/>
			<point x="9" y="31"/>
			<point x="42" y="-10"/>
			<point x="95" y="-10" type="curve" smooth="yes"/>
			<point x="129" y="-10"/>
			<point x="157" y="10"/>
			<point x="180" y="36" type="curve"/>
			<point x="180" y="9"/>
			<point x="195" y="-10"/>
			<point x="219" y="-10" type="curve" smooth="yes"/>
			<point x="229" y="-10"/>
			<point x="240" y="-8"/>
			<point x="254" y="-1" type="curve"/>
			<point x="247" y="16" type="line"/>
			<point x="236" y="11"/>
			<point x="227" y="9"/>
			<point x="219" y="9" type="curve" smooth="yes"/>
			<point x="207" y="9"/>
			<point x="200" y="17"/>
			<point x="200" y="41" type="curve" smooth="yes"/>
			<point x="200" y="421" type="line" smooth="yes"/>
			<point x="200" y="496"/>
			<point x="174" y="540"/>
			<point x="111" y="540" type="curve" smooth="yes"/>
			<point x="90" y="540"/>
			<point x="65" y="536"/>
			<point x="35" y="524" type="curve"/>
			<point x="42" y="507" type="line"/>
			<point x="69" y="517"/>
			<point x="92" y="520"/>
			<point x="111" y="520" type="curve" smooth="yes"/>
			<point x="160" y="520"/>
			<point x="180" y="484"/>
			<point x="180" y="421" type="curve" smooth="yes"/>
			<point x="180" y="278" type="line"/>
			<point x="87" y="252"/>
			<point x="9" y="214"/>
		</contour>
		<contour>
			<point x="29" y="111" type="curve" smooth="yes"/>
			<point x="29" y="204"/>
			<point x="107" y="240"/>
			<point x="180" y="259" type="curve"/>
			<point x="180" y="65" type="line"/>
			<point x="164" y="40"/>
			<point x="134" y="9"/>
			<point x="97" y="9" type="curve" smooth="yes"/>
			<point x="55" y="9"/>
			<point x="29" y="46"/>
		</contour>
	</outline>
</glyph>
<glyph name="b" format="2">
  <advance width="256"/>
  <unicode hex="0062"/>
  <outline>
    <contour>
      <point x="44" y="4" type="line"/>
      <point x="74" y="-6"/>
      <point x="93" y="-10"/>
      <point x="112" y="-10" type="curve" smooth="yes"/>
      <point x="196" y="-10"/>
      <point x="227" y="67"/>
      <point x="227" y="276" type="curve" smooth="yes"/>
      <point x="227" y="447"/>
      <point x="194" y="540"/>
      <point x="132" y="540" type="curve" smooth="yes"/>
      <point x="109" y="540"/>
      <point x="80" y="531"/>
      <point x="64" y="520" type="curve"/>
      <point x="64" y="740" type="line"/>
      <point x="44" y="740" type="line"/>
    </contour>
    <contour>
      <point x="64" y="15" type="curve"/>
      <point x="64" y="500" type="line"/>
      <point x="89" y="517"/>
      <point x="104" y="522"/>
      <point x="127" y="522" type="curve" smooth="yes"/>
      <point x="179" y="522"/>
      <point x="207" y="435"/>
      <point x="207" y="276" type="curve" smooth="yes"/>
      <point x="207" y="74"/>
      <point x="182" y="7"/>
      <point x="107" y="7" type="curve" smooth="yes"/>
      <point x="95" y="7"/>
      <point x="86" y="9"/>
    </contour>
  </outline>
</glyph>
<glyph name="c" format="2">
  <advance width="205"/>
  <unicode hex="0063"/>
  <anchor x="127" y="530" name="top"/>
  <anchor x="128" y="0" name="bottom"/>
  <outline>
    <contour>
      <point x="29" y="260" type="curve" smooth="yes"/>
      <point x="29" y="67"/>
      <point x="62" y="-10"/>
      <point x="136" y="-10" type="curve" smooth="yes"/>
      <point x="153" y="-10"/>
      <point x="177" y="-7"/>
      <point x="190" y="-4" type="curve"/>
      <point x="186" y="14" type="line"/>
      <point x="174" y="12"/>
      <point x="149" y="9"/>
      <point x="136" y="9" type="curve" smooth="yes"/>
      <point x="78" y="9"/>
      <point x="49" y="81"/>
      <point x="49" y="254" type="curve" smooth="yes"/>
      <point x="49" y="444"/>
      <point x="75" y="521"/>
      <point x="140" y="521" type="curve" smooth="yes"/>
      <point x="155" y="521"/>
      <point x="167" y="519"/>
      <point x="181" y="515" type="curve"/>
      <point x="185" y="533" type="line"/>
      <point x="170" y="538"/>
      <point x="155" y="540"/>
      <point x="143" y="540" type="curve" smooth="yes"/>
      <point x="61" y="540"/>
      <point x="29" y="462"/>
    </contour>
  </outline>
</glyph>
<glyph name="d" format="2">
  <advance width="256"/>
  <unicode hex="0064"/>
  <anchor x="128" y="275" name="center"/>
  <anchor x="132" y="740" name="top"/>
  <anchor x="275" y="740" name="topright"/>
  <anchor x="128" y="0" name="bottom"/>
  <outline>
    <contour>
      <point x="196" y="0" type="line"/>
      <point x="212" y="0" type="line"/>
      <point x="212" y="740" type="line"/>
      <point x="192" y="740" type="line"/>
      <point x="192" y="532" type="line"/>
      <point x="173" y="538"/>
      <point x="159" y="540"/>
      <point x="144" y="540" type="curve" smooth="yes"/>
      <point x="60" y="540"/>
      <point x="29" y="463"/>
      <point x="29" y="254" type="curve" smooth="yes"/>
      <point x="29" y="80"/>
      <point x="63" y="-10"/>
      <point x="128" y="-10" type="curve" smooth="yes"/>
      <point x="151" y="-10"/>
      <point x="175" y="-3"/>
      <point x="192" y="10" type="curve"/>
    </contour>
    <contour>
      <point x="192" y="30" type="line"/>
      <point x="167" y="13"/>
      <point x="152" y="8"/>
      <point x="128" y="8" type="curve" smooth="yes"/>
      <point x="77" y="8"/>
      <point x="49" y="94"/>
      <point x="49" y="254" type="curve" smooth="yes"/>
      <point x="49" y="456"/>
      <point x="74" y="523"/>
      <point x="149" y="523" type="curve" smooth="yes"/>
      <point x="161" y="523"/>
      <point x="171" y="521"/>
      <point x="192" y="515" type="curve"/>
    </contour>
  </outline>
</glyph>
<glyph name="f" format="2">
	<advance width="190"/>
	<unicode hex="0066"/>
	<outline>
		<contour>
			<point x="71" y="0" type="line"/>
			<point x="91" y="0" type="line"/>
			<point x="91" y="465" type="line"/>
			<point x="177" y="465" type="line"/>
			<point x="177" y="484" type="line"/>
			<point x="91" y="484" type="line"/>
			<point x="91" y="515" type="line" smooth="yes"/>
			<point x="91" y="667"/>
			<point x="119" y="731"/>
			<point x="182" y="731" type="curve" smooth="yes"/>
			<point x="195" y="731"/>
			<point x="208" y="730"/>
			<point x="223" y="725" type="curve"/>
			<point x="227" y="743" type="line"/>
			<point x="210" y="748"/>
			<point x="195" y="750"/>
			<point x="182" y="750" type="curve" smooth="yes"/>
			<point x="106" y="750"/>
			<point x="71" y="680"/>
			<point x="71" y="515" type="curve" smooth="yes"/>
			<point x="71" y="484" type="line"/>
			<point x="11" y="478" type="line"/>
			<point x="11" y="465" type="line"/>
			<point x="71" y="465" type="line"/>
		</contour>
	</outline>
</glyph>
<glyph name="i" format="2">
	<advance width="108"/>
	<unicode hex="0069"/>
	<anchor x="64" y="0" name="ogonek"/>
	<anchor x="54" y="0" name="bottom"/>
	<outline>
		<contour>
			<point x="54" y="677" type="curve" smooth="yes"/>
			<point x="68" y="677"/>
			<point x="68" y="678"/>
			<point x="68" y="694" type="curve" smooth="yes"/>
			<point x="68" y="710"/>
			<point x="68" y="711"/>
			<point x="54" y="711" type="curve" smooth="yes"/>
			<point x="40" y="711"/>
			<point x="40" y="710"/>
			<point x="40" y="694" type="curve" smooth="yes"/>
			<point x="40" y="678"/>
			<point x="41" y="677"/>
		</contour>
		<contour>
			<point x="44" y="0" type="line"/>
			<point x="64" y="0" type="line"/>
			<point x="64" y="530" type="line"/>
			<point x="44" y="530" type="line"/>
		</contour>
	</outline>
</glyph>
<glyph name="j" format="2">
	<advance width="107"/>
	<unicode hex="006A"/>
	<outline>
		<contour>
			<point x="63" y="530" type="line"/>
			<point x="43" y="530" type="line"/>
			<point x="43" y="14" type="line" smooth="yes"/>
			<point x="43" y="-84"/>
			<point x="24" y="-148"/>
			<point x="-10" y="-180" type="curve" smooth="yes"/>
			<point x="-15" y="-185"/>
			<point x="-20" y="-189"/>
			<point x="-26" y="-192" type="curve"/>
			<point x="-17" y="-209" type="line"/>
			<point x="-9" y="-204"/>
			<point x="-2" y="-198"/>
			<point x="5" y="-192" type="curve" smooth="yes"/>
			<point x="43" y="-155"/>
			<point x="63" y="-90"/>
			<point x="63" y="14" type="curve" smooth="yes"/>
		</contour>
		<contour>
			<point x="53" y="677" type="curve" smooth="yes"/>
			<point x="66" y="677"/>
			<point x="67" y="678"/>
			<point x="67" y="694" type="curve" smooth="yes"/>
			<point x="67" y="710"/>
			<point x="66" y="711"/>
			<point x="53" y="711" type="curve" smooth="yes"/>
			<point x="39" y="711"/>
			<point x="39" y="710"/>
			<point x="39" y="694" type="curve" smooth="yes"/>
			<point x="39" y="678"/>
			<point x="40" y="677"/>
		</contour>
	</outline>
</glyph>
<glyph name="p" format="2">
  <advance width="256"/>
  <unicode hex="0070"/>
  <outline>
    <contour>
      <point x="44" y="-210" type="line"/>
      <point x="64" y="-210" type="line"/>
      <point x="64" y="-2" type="line"/>
      <point x="83" y="-8"/>
      <point x="98" y="-10"/>
      <point x="112" y="-10" type="curve" smooth="yes"/>
      <point x="196" y="-10"/>
      <point x="227" y="67"/>
      <point x="227" y="276" type="curve" smooth="yes"/>
      <point x="227" y="447"/>
      <point x="194" y="540"/>
      <point x="132" y="540" type="curve" smooth="yes"/>
      <point x="109" y="540"/>
      <point x="80" y="531"/>
      <point x="64" y="520" type="curve"/>
      <point x="64" y="540" type="line"/>
      <point x="44" y="540" type="line"/>
    </contour>
    <contour>
      <point x="107" y="7" type="curve" smooth="yes"/>
      <point x="95" y="7"/>
      <point x="86" y="9"/>
      <point x="64" y="15" type="curve"/>
      <point x="64" y="500" type="line"/>
      <point x="89" y="517"/>
      <point x="104" y="522"/>
      <point x="127" y="522" type="curve" smooth="yes"/>
      <point x="179" y="522"/>
      <point x="207" y="435"/>
      <point x="207" y="276" type="curve" smooth="yes"/>
      <point x="207" y="74"/>
      <point x="182" y="7"/>
    </contour>
  </outline>
</glyph>
<glyph name="q" format="2">
  <advance width="256"/>
  <unicode hex="0071"/>
  <outline>
    <contour>
      <point x="212" y="527" type="line"/>
      <point x="179" y="537"/>
      <point x="163" y="540"/>
      <point x="144" y="540" type="curve" smooth="yes"/>
      <point x="60" y="540"/>
      <point x="29" y="463"/>
      <point x="29" y="254" type="curve" smooth="yes"/>
      <point x="29" y="84"/>
      <point x="63" y="-10"/>
      <point x="124" y="-10" type="curve" smooth="yes"/>
      <point x="147" y="-10"/>
      <point x="176" y="-1"/>
      <point x="192" y="10" type="curve"/>
      <point x="192" y="-210" type="line"/>
      <point x="212" y="-210" type="line"/>
    </contour>
    <contour>
      <point x="192" y="514" type="curve"/>
      <point x="192" y="30" type="line"/>
      <point x="167" y="13"/>
      <point x="152" y="8"/>
      <point x="129" y="8" type="curve" smooth="yes"/>
      <point x="78" y="8"/>
      <point x="49" y="97"/>
      <point x="49" y="254" type="curve" smooth="yes"/>
      <point x="49" y="456"/>
      <point x="74" y="523"/>
      <point x="149" y="523" type="curve" smooth="yes"/>
      <point x="160" y="523"/>
      <point x="170" y="521"/>
    </contour>
  </outline>
</glyph>
<glyph name="s" format="2">
	<advance width="201"/>
	<unicode hex="0073"/>
	<anchor x="97" y="530" name="top"/>
	<anchor x="92" y="0" name="bottom"/>
	<outline>
		<contour>
			<point x="2" y="9" type="line"/>
			<point x="23" y="-4"/>
			<point x="54" y="-10"/>
			<point x="82" y="-10" type="curve" smooth="yes"/>
			<point x="142" y="-10"/>
			<point x="188" y="31"/>
			<point x="188" y="110" type="curve" smooth="yes"/>
			<point x="188" y="188"/>
			<point x="145" y="234"/>
			<point x="107" y="281" type="curve" smooth="yes"/>
			<point x="73" y="323"/>
			<point x="39" y="365"/>
			<point x="39" y="429" type="curve" smooth="yes"/>
			<point x="39" y="484"/>
			<point x="70" y="520"/>
			<point x="116" y="520" type="curve" smooth="yes"/>
			<point x="134" y="520"/>
			<point x="149" y="516"/>
			<point x="164" y="509" type="curve"/>
			<point x="172" y="527" type="line"/>
			<point x="155" y="536"/>
			<point x="136" y="540"/>
			<point x="116" y="540" type="curve" smooth="yes"/>
			<point x="55" y="540"/>
			<point x="19" y="494"/>
			<point x="19" y="429" type="curve" smooth="yes"/>
			<point x="19" y="359"/>
			<point x="56" y="310"/>
			<point x="94" y="265" type="curve" smooth="yes"/>
			<point x="131" y="221"/>
			<point x="168" y="178"/>
			<point x="168" y="110" type="curve" smooth="yes"/>
			<point x="168" y="45"/>
			<point x="130" y="10"/>
			<point x="82" y="10" type="curve" smooth="yes"/>
			<point x="58" y="10"/>
			<point x="31" y="15"/>
			<point x="12" y="26" type="curve"/>
		</contour>
	</outline>
</glyph>
<glyph name="t" format="2">
	<advance width="190"/>
	<unicode hex="0074"/>
	<anchor x="95" y="275" name="center"/>
	<anchor x="74" y="665" name="top"/>
	<anchor x="164" y="740" name="topright"/>
	<anchor x="121" y="0" name="bottom"/>
	<outline>
		<contour>
			<point x="148" y="-10" type="curve" smooth="yes"/>
			<point x="161" y="-10"/>
			<point x="176" y="-8"/>
			<point x="193" y="-3" type="curve"/>
			<point x="189" y="15" type="line"/>
			<point x="174" y="10"/>
			<point x="161" y="9"/>
			<point x="148" y="9" type="curve" smooth="yes"/>
			<point x="99" y="9"/>
			<point x="81" y="38"/>
			<point x="81" y="108" type="curve" smooth="yes"/>
			<point x="81" y="511" type="line"/>
			<point x="188" y="511" type="line"/>
			<point x="188" y="530" type="line"/>
			<point x="81" y="530" type="line"/>
			<point x="81" y="665" type="line"/>
			<point x="66" y="665" type="line"/>
			<point x="61" y="530" type="line"/>
			<point x="8" y="524" type="line"/>
			<point x="8" y="511" type="line"/>
			<point x="61" y="511" type="line"/>
			<point x="61" y="108" type="line" smooth="yes"/>
			<point x="61" y="43"/>
			<point x="73" y="-10"/>
		</contour>
	</outline>
</glyph>
<glyph name="v" format="2">
	<advance width="238"/>
	<unicode hex="0076"/>
	<outline>
		<contour>
			<point x="110" y="0" type="line"/>
			<point x="128" y="0" type="line"/>
			<point x="224" y="528" type="line"/>
			<point x="204" y="532" type="line"/>
			<point x="119" y="45" type="line"/>
			<point x="34" y="532" type="line"/>
			<point x="14" y="528" type="line"/>
		</contour>
	</outline>
</glyph>
<glyph name="x" format="2">
	<advance width="254"/>
	<unicode hex="0078"/>
	<outline>
		<contour>
			<point x="7" y="-6" type="line"/>
			<point x="26" y="-10" type="line"/>
			<point x="126" y="248" type="line"/>
			<point x="229" y="-10" type="line"/>
			<point x="248" y="-6" type="line"/>
			<point x="138" y="269" type="line"/>
			<point x="237" y="528" type="line"/>
			<point x="218" y="532" type="line"/>
			<point x="128" y="297" type="line"/>
			<point x="36" y="533" type="line"/>
			<point x="17" y="527" type="line"/>
			<point x="116" y="275" type="line"/>
		</contour>
	</outline>
</glyph>
<glyph name="y" format="2">
	<advance width="238"/>
	<unicode hex="0079"/>
	<anchor x="118" y="530" name="top"/>
	<anchor x="193" y="0" name="bottom"/>
	<outline>
		<contour>
			<point x="86" y="-208" type="line"/>
			<point x="107" y="-213" type="line"/>
			<point x="222" y="528" type="line"/>
			<point x="202" y="532" type="line"/>
			<point x="128" y="42" type="line"/>
			<point x="35" y="532" type="line"/>
			<point x="15" y="528" type="line"/>
			<point x="117" y="0" type="line"/>
			<point x="118" y="0" type="line"/>
		</contour>
	</outline>
</glyph>
<glyph name="braceleft" format="2">
	<advance width="194"/>
	<unicode hex="007B"/>
	<outline>
		<contour>
			<point x="69" y="-73" type="curve" smooth="yes"/>
			<point x="69" y="-146"/>
			<point x="91" y="-210"/>
			<point x="145" y="-210" type="curve" smooth="yes"/>
			<point x="165" y="-210" type="line"/>
			<point x="165" y="-190" type="line"/>
			<point x="145" y="-190" type="line" smooth="yes"/>
			<point x="105" y="-190"/>
			<point x="89" y="-136"/>
			<point x="89" y="-73" type="curve" smooth="yes"/>
			<point x="89" y="14"/>
			<point x="122" y="78"/>
			<point x="122" y="170" type="curve" smooth="yes"/>
			<point x="122" y="203"/>
			<point x="112" y="249"/>
			<point x="88" y="265" type="curve"/>
			<point x="112" y="286"/>
			<point x="122" y="327"/>
			<point x="122" y="360" type="curve" smooth="yes"/>
			<point x="122" y="445"/>
			<point x="89" y="509"/>
			<point x="89" y="603" type="curve" smooth="yes"/>
			<point x="89" y="666"/>
			<point x="105" y="720"/>
			<point x="145" y="720" type="curve" smooth="yes"/>
			<point x="165" y="720" type="line"/>
			<point x="165" y="740" type="line"/>
			<point x="145" y="740" type="line" smooth="yes"/>
			<point x="91" y="740"/>
			<point x="69" y="676"/>
			<point x="69" y="603" type="curve" smooth="yes"/>
			<point x="69" y="503"/>
			<point x="102" y="444"/>
			<point x="102" y="360" type="curve" smooth="yes"/>
			<point x="102" y="323"/>
			<point x="92" y="275"/>
			<point x="71" y="275" type="curve" smooth="yes"/>
			<point x="50" y="275" type="line"/>
			<point x="50" y="255" type="line"/>
			<point x="71" y="255" type="line" smooth="yes"/>
			<point x="92" y="255"/>
			<point x="102" y="208"/>
			<point x="102" y="170" type="curve" smooth="yes"/>
			<point x="102" y="83"/>
			<point x="69" y="20"/>
		</contour>
	</outline>
</glyph>
<glyph name="bar" format="2">
	<advance width="108"/>
	<unicode hex="007C"/>
	<outline>
		<contour>
			<point x="64" y="790" type="line"/>
			<point x="44" y="790" type="line"/>
			<point x="44" y="-210" type="line"/>
			<point x="64" y="-210" type="line"/>
		</contour>
	</outline>
</glyph>
<glyph name="exclamdown" format="2">
  <advance width="114"/>
  <unicode hex="00A1"/>
  <outline>
    <contour>
      <point x="67" y="266" type="line"/>
      <point x="47" y="266" type="line"/>
      <point x="47" y="-210" type="line"/>
      <point x="67" y="-210" type="line"/>
    </contour>
    <contour>
      <point x="71" y="513" type="curve" smooth="yes"/>
      <point x="71" y="529"/>
      <point x="71" y="530"/>
      <point x="57" y="530" type="curve" smooth="yes"/>
      <point x="44" y="530"/>
      <point x="43" y="529"/>
      <point x="43" y="513" type="curve" smooth="yes"/>
      <point x="43" y="497"/>
      <point x="43" y="496"/>
      <point x="57" y="496" type="curve" smooth="yes"/>
      <point x="71" y="496"/>
      <point x="71" y="497"/>
    </contour>
  </outline>
</glyph>
<glyph name="sterling" format="2">
	<advance width="250"/>
	<unicode hex="00A3"/>
	<outline>
		<contour>
			<point x="52" y="0" type="line"/>
			<point x="219" y="0" type="line"/>
			<point x="219" y="20" type="line"/>
			<point x="72" y="20" type="line"/>
			<point x="110" y="100"/>
			<point x="134" y="151"/>
			<point x="134" y="242" type="curve" smooth="yes"/>
			<point x="134" y="347"/>
			<point x="78" y="412"/>
			<point x="78" y="531" type="curve" smooth="yes"/>
			<point x="78" y="649"/>
			<point x="119" y="690"/>
			<point x="166" y="690" type="curve" smooth="yes"/>
			<point x="180" y="690"/>
			<point x="189" y="687"/>
			<point x="201" y="682" type="curve"/>
			<point x="207" y="698" type="line"/>
			<point x="194" y="706"/>
			<point x="180" y="710"/>
			<point x="166" y="710" type="curve" smooth="yes"/>
			<point x="94" y="710"/>
			<point x="58" y="635"/>
			<point x="58" y="531" type="curve" smooth="yes"/>
			<point x="58" y="400"/>
			<point x="114" y="345"/>
			<point x="114" y="242" type="curve" smooth="yes"/>
			<point x="114" y="151"/>
			<point x="92" y="113"/>
			<point x="52" y="20" type="curve"/>
		</contour>
		<contour>
			<point x="30" y="366" type="line"/>
			<point x="190" y="366" type="line"/>
			<point x="190" y="386" type="line"/>
			<point x="30" y="386" type="line"/>
		</contour>
	</outline>
</glyph>
<glyph name="brokenbar" format="2">
	<advance width="108"/>
	<unicode hex="00A6"/>
	<outline>
		<contour>
			<point x="64" y="391" type="line"/>
			<point x="64" y="790" type="line"/>
			<point x="44" y="790" type="line"/>
			<point x="44" y="391" type="line"/>
		</contour>
		<contour>
			<point x="44" y="190" type="line"/>
			<point x="44" y="-210" type="line"/>
			<point x="64" y="-210" type="line"/>
			<point x="64" y="190" type="line"/>
		</contour>
	</outline>
</glyph>
<glyph name="section" format="2">
	<advance width="292"/>
	<unicode hex="00A7"/>
	<outline>
		<contour>
			<point x="107" y="-220" type="curve" smooth="yes"/>
			<point x="210" y="-220"/>
			<point x="276" y="-102"/>
			<point x="276" y="53" type="curve" smooth="yes"/>
			<point x="276" y="142"/>
			<point x="261" y="219"/>
			<point x="201" y="426" type="curve" smooth="yes"/>
			<point x="154" y="591"/>
			<point x="150" y="609"/>
			<point x="150" y="649" type="curve" smooth="yes"/>
			<point x="150" y="701"/>
			<point x="173" y="731"/>
			<point x="210" y="731" type="curve" smooth="yes"/>
			<point x="223" y="731"/>
			<point x="234" y="729"/>
			<point x="248" y="722" type="curve"/>
			<point x="256" y="737" type="line"/>
			<point x="238" y="746"/>
			<point x="220" y="749"/>
			<point x="202" y="749" type="curve" smooth="yes"/>
			<point x="94" y="749"/>
			<point x="30" y="652"/>
			<point x="29" y="486" type="curve" smooth="yes"/>
			<point x="29" y="397"/>
			<point x="46" y="309"/>
			<point x="101" y="126" type="curve" smooth="yes"/>
			<point x="146" y="-26"/>
			<point x="159" y="-80"/>
			<point x="159" y="-121" type="curve" smooth="yes"/>
			<point x="159" y="-174"/>
			<point x="137" y="-202"/>
			<point x="98" y="-202" type="curve" smooth="yes"/>
			<point x="75" y="-202"/>
			<point x="54" y="-193"/>
			<point x="28" y="-169" type="curve"/>
			<point x="16" y="-183" type="line"/>
			<point x="47" y="-211"/>
			<point x="70" y="-220"/>
		</contour>
		<contour>
			<point x="109" y="-207" type="curve" smooth="yes"/>
			<point x="93" y="-207"/>
			<point x="84" y="-205"/>
			<point x="77" y="-202" type="curve"/>
			<point x="93" y="-215" type="line"/>
			<point x="144" y="-214"/>
			<point x="177" y="-178"/>
			<point x="177" y="-122" type="curve" smooth="yes"/>
			<point x="177" y="-80"/>
			<point x="164" y="-24"/>
			<point x="119" y="132" type="curve" smooth="yes"/>
			<point x="61" y="332"/>
			<point x="48" y="397"/>
			<point x="48" y="486" type="curve" smooth="yes"/>
			<point x="48" y="634"/>
			<point x="107" y="733"/>
			<point x="191" y="733" type="curve" smooth="yes"/>
			<point x="195" y="733"/>
			<point x="198" y="733"/>
			<point x="204" y="732" type="curve"/>
			<point x="192" y="742" type="line"/>
			<point x="154" y="730"/>
			<point x="130" y="694"/>
			<point x="130" y="649" type="curve" smooth="yes"/>
			<point x="130" y="607"/>
			<point x="138" y="569"/>
			<point x="182" y="421" type="curve" smooth="yes"/>
			<point x="243" y="212"/>
			<point x="258" y="139"/>
			<point x="258" y="53" type="curve" smooth="yes"/>
			<point x="258" y="-95"/>
			<point x="201" y="-207"/>
		</contour>
	</outline>
</glyph>
<glyph name="copyright" format="2">
	<advance width="286"/>
	<unicode hex="00A9"/>
	<outline>
		<contour>
			<point x="143" y="7" type="curve" smooth="yes"/>
			<point x="80" y="7"/>
			<point x="50" y="86"/>
			<point x="50" y="350" type="curve" smooth="yes"/>
			<point x="50" y="615"/>
			<point x="80" y="693"/>
			<point x="143" y="693" type="curve" smooth="yes"/>
			<point x="206" y="693"/>
			<point x="236" y="615"/>
			<point x="236" y="350" type="curve" smooth="yes"/>
			<point x="236" y="86"/>
			<point x="206" y="7"/>
		</contour>
		<contour>
			<point x="143" y="710" type="curve" smooth="yes"/>
			<point x="66" y="710"/>
			<point x="33" y="631"/>
			<point x="33" y="350" type="curve" smooth="yes"/>
			<point x="33" y="70"/>
			<point x="66" y="-10"/>
			<point x="143" y="-10" type="curve" smooth="yes"/>
			<point x="220" y="-10"/>
			<point x="253" y="70"/>
			<point x="253" y="350" type="curve" smooth="yes"/>
			<point x="253" y="631"/>
			<point x="220" y="710"/>
		</contour>
		<contour>
			<point x="80" y="336" type="curve" smooth="yes"/>
			<point x="80" y="223"/>
			<point x="103" y="166"/>
			<point x="154" y="166" type="curve" smooth="yes"/>
			<point x="162" y="166"/>
			<point x="178" y="168"/>
			<point x="188" y="170" type="curve"/>
			<point x="184" y="188" type="line"/>
			<point x="177" y="186"/>
			<point x="160" y="185"/>
			<point x="154" y="185" type="curve" smooth="yes"/>
			<point x="113" y="185"/>
			<point x="100" y="246"/>
			<point x="100" y="336" type="curve" smooth="yes"/>
			<point x="100" y="455"/>
			<point x="117" y="499"/>
			<point x="156" y="499" type="curve" smooth="yes"/>
			<point x="164" y="499"/>
			<point x="172" y="499"/>
			<point x="181" y="496" type="curve"/>
			<point x="185" y="514" type="line"/>
			<point x="175" y="517"/>
			<point x="164" y="518"/>
			<point x="156" y="518" type="curve" smooth="yes"/>
			<point x="107" y="518"/>
			<point x="80" y="471"/>
		</contour>
	</outline>
</glyph>
<glyph name="ordfeminine" format="2">
  <advance width="189"/>
  <unicode hex="00AA"/>
  <outline>
    <contour>
      <point x="23" y="302" type="line"/>
      <point x="169" y="302" type="line"/>
      <point x="169" y="320" type="line"/>
      <point x="23" y="320" type="line"/>
    </contour>
    <contour>
      <point x="24" y="432" type="curve" smooth="yes"/>
      <point x="24" y="386"/>
      <point x="44" y="364"/>
      <point x="76" y="364" type="curve" smooth="yes"/>
      <point x="96" y="364"/>
      <point x="113" y="374"/>
      <point x="126" y="390" type="curve"/>
      <point x="127" y="373"/>
      <point x="136" y="364"/>
      <point x="152" y="364" type="curve" smooth="yes"/>
      <point x="159" y="364"/>
      <point x="167" y="367"/>
      <point x="175" y="371" type="curve"/>
      <point x="171" y="384" type="line"/>
      <point x="165" y="381"/>
      <point x="159" y="379"/>
      <point x="155" y="379" type="curve" smooth="yes"/>
      <point x="148" y="379"/>
      <point x="143" y="384"/>
      <point x="143" y="401" type="curve" smooth="yes"/>
      <point x="143" y="581" type="line" smooth="yes"/>
      <point x="143" y="626"/>
      <point x="141" y="675"/>
      <point x="88" y="675" type="curve" smooth="yes"/>
      <point x="73" y="675"/>
      <point x="56" y="672"/>
      <point x="39" y="666" type="curve"/>
      <point x="44" y="650" type="line"/>
      <point x="58" y="655"/>
      <point x="73" y="658"/>
      <point x="84" y="658" type="curve" smooth="yes"/>
      <point x="114" y="658"/>
      <point x="126" y="638"/>
      <point x="126" y="600" type="curve" smooth="yes"/>
      <point x="126" y="529" type="line"/>
      <point x="65" y="515"/>
      <point x="24" y="491"/>
    </contour>
    <contour>
      <point x="41" y="432" type="curve" smooth="yes"/>
      <point x="41" y="485"/>
      <point x="76" y="499"/>
      <point x="126" y="515" type="curve"/>
      <point x="126" y="407" type="line"/>
      <point x="117" y="394"/>
      <point x="100" y="379"/>
      <point x="79" y="379" type="curve" smooth="yes"/>
      <point x="56" y="379"/>
      <point x="41" y="395"/>
    </contour>
  </outline>
</glyph>
<glyph name="uni00B3" format="2">
	<advance width="220"/>
	<unicode hex="00B3"/>
	<outline>
		<contour>
			<point x="46" y="384" type="line"/>
			<point x="60" y="368"/>
			<point x="78" y="360"/>
			<point x="102" y="360" type="curve" smooth="yes"/>
			<point x="147" y="360"/>
			<point x="174" y="405"/>
			<point x="174" y="480" type="curve" smooth="yes"/>
			<point x="174" y="532"/>
			<point x="161" y="568"/>
			<point x="131" y="578" type="curve"/>
			<point x="154" y="590"/>
			<point x="165" y="625"/>
			<point x="165" y="669" type="curve" smooth="yes"/>
			<point x="165" y="733"/>
			<point x="140" y="774"/>
			<point x="101" y="774" type="curve" smooth="yes"/>
			<point x="83" y="774"/>
			<point x="66" y="767"/>
			<point x="54" y="754" type="curve"/>
			<point x="62" y="743" type="line"/>
			<point x="72" y="753"/>
			<point x="82" y="757"/>
			<point x="99" y="757" type="curve" smooth="yes"/>
			<point x="130" y="757"/>
			<point x="148" y="724"/>
			<point x="148" y="669" type="curve" smooth="yes"/>
			<point x="148" y="623"/>
			<point x="137" y="585"/>
			<point x="104" y="585" type="curve" smooth="yes"/>
			<point x="81" y="585" type="line"/>
			<point x="81" y="569" type="line"/>
			<point x="104" y="569" type="line" smooth="yes"/>
			<point x="144" y="569"/>
			<point x="155" y="534"/>
			<point x="155" y="480" type="curve" smooth="yes"/>
			<point x="155" y="415"/>
			<point x="135" y="377"/>
			<point x="101" y="377" type="curve" smooth="yes"/>
			<point x="80" y="377"/>
			<point x="68" y="383"/>
			<point x="56" y="396" type="curve"/>
		</contour>
	</outline>
</glyph>
<glyph name="paragraph" format="2">
	<advance width="379"/>
	<unicode hex="00B6"/>
	<outline>
		<contour>
			<point x="315" y="-210" type="line"/>
			<point x="335" y="-210" type="line"/>
			<point x="335" y="740" type="line"/>
			<point x="315" y="740" type="line"/>
		</contour>
		<contour>
			<point x="155" y="195" type="line"/>
			<point x="71" y="215"/>
			<point x="36" y="314"/>
			<point x="36" y="455" type="curve" smooth="yes"/>
			<point x="36" y="601"/>
			<point x="85" y="717"/>
			<point x="198" y="722" type="curve"/>
			<point x="198" y="-210" type="line"/>
			<point x="218" y="-210" type="line"/>
			<point x="218" y="740" type="line"/>
			<point x="203" y="740" type="line" smooth="yes"/>
			<point x="73" y="740"/>
			<point x="16" y="610"/>
			<point x="16" y="455" type="curve" smooth="yes"/>
			<point x="16" y="306"/>
			<point x="57" y="198"/>
			<point x="154" y="175" type="curve"/>
		</contour>
	</outline>
</glyph>
<glyph name="periodcentered" format="2">
	<advance width="90"/>
	<unicode hex="00B7"/>
	<outline>
		<contour>
			<point x="31" y="287" type="curve" smooth="yes"/>
			<point x="31" y="271"/>
			<point x="32" y="270"/>
			<point x="45" y="270" type="curve" smooth="yes"/>
			<point x="59" y="270"/>
			<point x="59" y="271"/>
			<point x="59" y="287" type="curve" smooth="yes"/>
			<point x="59" y="303"/>
			<point x="59" y="304"/>
			<point x="45" y="304" type="curve" smooth="yes"/>
			<point x="31" y="304"/>
			<point x="31" y="303"/>
		</contour>
	</outline>
</glyph>
<glyph name="ordmasculine" format="2">
  <advance width="212"/>
  <unicode hex="00BA"/>
  <outline>
    <contour>
      <point x="33" y="302" type="line"/>
      <point x="179" y="302" type="line"/>
      <point x="179" y="320" type="line"/>
      <point x="33" y="320" type="line"/>
    </contour>
    <component base="o.superior" xOffset="20"/>
  </outline>
</glyph>
<glyph name="questiondown" format="2">
	<advance width="232"/>
	<unicode hex="00BF"/>
	<outline>
		<contour>
			<point x="156" y="266" type="line"/>
			<point x="136" y="266" type="line"/>
			<point x="136" y="188" type="line"/>
			<point x="68" y="107"/>
			<point x="33" y="64"/>
			<point x="33" y="-48" type="curve" smooth="yes"/>
			<point x="33" y="-166"/>
			<point x="86" y="-220"/>
			<point x="145" y="-220" type="curve" smooth="yes"/>
			<point x="181" y="-220"/>
			<point x="215" y="-199"/>
			<point x="241" y="-167" type="curve"/>
			<point x="229" y="-154" type="line"/>
			<point x="200" y="-187"/>
			<point x="171" y="-201"/>
			<point x="145" y="-201" type="curve" smooth="yes"/>
			<point x="93" y="-201"/>
			<point x="54" y="-142"/>
			<point x="54" y="-50" type="curve" smooth="yes"/>
			<point x="54" y="42"/>
			<point x="78" y="97"/>
			<point x="156" y="179" type="curve"/>
		</contour>
		<contour>
			<point x="161" y="513" type="curve" smooth="yes"/>
			<point x="161" y="529"/>
			<point x="158" y="530"/>
			<point x="146" y="530" type="curve" smooth="yes"/>
			<point x="133" y="530"/>
			<point x="132" y="529"/>
			<point x="132" y="513" type="curve" smooth="yes"/>
			<point x="132" y="497"/>
			<point x="133" y="496"/>
			<point x="146" y="496" type="curve" smooth="yes"/>
			<point x="160" y="496"/>
			<point x="161" y="497"/>
		</contour>
	</outline>
</glyph>
<glyph name="Oslash" format="2">
	<advance width="299"/>
	<unicode hex="00D8"/>
	<anchor x="149" y="700" name="top"/>
	<outline>
		<contour>
			<point x="45" y="-10" type="line"/>
			<point x="65" y="54" type="line"/>
			<point x="70" y="64" type="line"/>
			<point x="240" y="610" type="line"/>
			<point x="245" y="621" type="line"/>
			<point x="273" y="710" type="line"/>
			<point x="254" y="710" type="line"/>
			<point x="234" y="645" type="line"/>
			<point x="229" y="635" type="line"/>
			<point x="59" y="90" type="line"/>
			<point x="55" y="83" type="line"/>
			<point x="26" y="-10" type="line"/>
		</contour>
		<contour>
			<point x="149" y="8" type="curve" smooth="yes"/>
			<point x="78" y="8"/>
			<point x="48" y="77"/>
			<point x="48" y="349" type="curve" smooth="yes"/>
			<point x="48" y="623"/>
			<point x="78" y="692"/>
			<point x="149" y="692" type="curve" smooth="yes"/>
			<point x="221" y="692"/>
			<point x="251" y="623"/>
			<point x="251" y="349" type="curve" smooth="yes"/>
			<point x="251" y="77"/>
			<point x="221" y="8"/>
		</contour>
		<contour>
			<point x="149" y="-10" type="curve" smooth="yes"/>
			<point x="235" y="-10"/>
			<point x="271" y="61"/>
			<point x="271" y="349" type="curve" smooth="yes"/>
			<point x="271" y="639"/>
			<point x="235" y="710"/>
			<point x="149" y="710" type="curve" smooth="yes"/>
			<point x="64" y="710"/>
			<point x="28" y="639"/>
			<point x="28" y="349" type="curve" smooth="yes"/>
			<point x="28" y="61"/>
			<point x="64" y="-10"/>
		</contour>
	</outline>
</glyph>
<glyph name="germandbls" format="2">
  <advance width="317"/>
  <unicode hex="00DF"/>
  <outline>
    <contour>
      <point x="71" y="0" type="line"/>
      <point x="91" y="0" type="line"/>
      <point x="91" y="546" type="line" smooth="yes"/>
      <point x="91" y="670"/>
      <point x="122" y="731"/>
      <point x="190" y="731" type="curve" smooth="yes"/>
      <point x="235" y="731"/>
      <point x="268" y="701"/>
      <point x="268" y="651" type="curve" smooth="yes"/>
      <point x="268" y="605"/>
      <point x="252" y="580"/>
      <point x="209" y="540" type="curve" smooth="yes"/>
      <point x="171" y="504"/>
      <point x="151" y="460"/>
      <point x="151" y="417" type="curve" smooth="yes"/>
      <point x="151" y="362"/>
      <point x="162" y="332"/>
      <point x="219" y="264" type="curve" smooth="yes"/>
      <point x="275" y="197"/>
      <point x="292" y="161"/>
      <point x="292" y="110" type="curve" smooth="yes"/>
      <point x="292" y="50"/>
      <point x="258" y="10"/>
      <point x="206" y="10" type="curve" smooth="yes"/>
      <point x="179" y="10"/>
      <point x="153" y="16"/>
      <point x="136" y="26" type="curve"/>
      <point x="126" y="9" type="line"/>
      <point x="145" y="-3"/>
      <point x="175" y="-10"/>
      <point x="206" y="-10" type="curve" smooth="yes"/>
      <point x="271" y="-10"/>
      <point x="312" y="37"/>
      <point x="312" y="110" type="curve" smooth="yes"/>
      <point x="312" y="166"/>
      <point x="292" y="209"/>
      <point x="235" y="277" type="curve" smooth="yes"/>
      <point x="181" y="342"/>
      <point x="171" y="368"/>
      <point x="171" y="417" type="curve" smooth="yes"/>
      <point x="171" y="457"/>
      <point x="189" y="495"/>
      <point x="225" y="529" type="curve" smooth="yes"/>
      <point x="267" y="568"/>
      <point x="288" y="603"/>
      <point x="288" y="651" type="curve" smooth="yes"/>
      <point x="288" y="713"/>
      <point x="248" y="750"/>
      <point x="190" y="750" type="curve" smooth="yes"/>
      <point x="109" y="750"/>
      <point x="71" y="687"/>
      <point x="71" y="558" type="curve" smooth="yes"/>
      <point x="71" y="485" type="line"/>
      <point x="11" y="479" type="line"/>
      <point x="11" y="465" type="line"/>
      <point x="71" y="465" type="line"/>
    </contour>
  </outline>
</glyph>
<glyph name="eth" format="2">
	<advance width="250"/>
	<unicode hex="00F0"/>
	<outline>
		<contour>
			<point x="208" y="501" type="curve"/>
			<point x="210" y="521" type="line"/>
			<point x="197" y="534"/>
			<point x="177" y="540"/>
			<point x="154" y="540" type="curve" smooth="yes"/>
			<point x="63" y="540"/>
			<point x="29" y="458"/>
			<point x="29" y="256" type="curve" smooth="yes"/>
			<point x="29" y="60"/>
			<point x="55" y="-10"/>
			<point x="125" y="-10" type="curve" smooth="yes"/>
			<point x="199" y="-10"/>
			<point x="221" y="61"/>
			<point x="221" y="318" type="curve" smooth="yes"/>
			<point x="221" y="598"/>
			<point x="203" y="710"/>
			<point x="87" y="710" type="curve" smooth="yes"/>
			<point x="66" y="710"/>
			<point x="52" y="707"/>
			<point x="28" y="700" type="curve"/>
			<point x="34" y="683" type="line"/>
			<point x="53" y="689"/>
			<point x="65" y="692"/>
			<point x="85" y="692" type="curve" smooth="yes"/>
			<point x="177" y="692"/>
			<point x="202" y="606"/>
			<point x="202" y="316" type="curve" smooth="yes"/>
			<point x="202" y="80"/>
			<point x="185" y="8"/>
			<point x="126" y="8" type="curve" smooth="yes"/>
			<point x="68" y="8"/>
			<point x="49" y="74"/>
			<point x="49" y="256" type="curve" smooth="yes"/>
			<point x="49" y="448"/>
			<point x="80" y="522"/>
			<point x="154" y="522" type="curve" smooth="yes"/>
			<point x="172" y="522"/>
			<point x="192" y="519"/>
		</contour>
		<contour>
			<point x="69" y="566" type="line"/>
			<point x="170" y="654" type="line"/>
			<point x="173" y="655" type="line"/>
			<point x="243" y="716" type="line"/>
			<point x="219" y="716" type="line"/>
			<point x="166" y="670" type="line"/>
			<point x="162" y="668" type="line"/>
			<point x="44" y="566" type="line"/>
		</contour>
	</outline>
</glyph>
<glyph name="divide" format="2">
  <advance width="370"/>
  <unicode hex="00F7"/>
  <outline>
    <contour>
      <point x="171" y="89" type="curve" smooth="yes"/>
      <point x="171" y="73"/>
      <point x="171" y="72"/>
      <point x="185" y="72" type="curve" smooth="yes"/>
      <point x="199" y="72"/>
      <point x="199" y="73"/>
      <point x="199" y="89" type="curve" smooth="yes"/>
      <point x="199" y="105"/>
      <point x="198" y="106"/>
      <point x="185" y="106" type="curve" smooth="yes"/>
      <point x="171" y="106"/>
      <point x="171" y="105"/>
    </contour>
    <contour>
      <point x="171" y="489" type="curve" smooth="yes"/>
      <point x="171" y="473"/>
      <point x="172" y="472"/>
      <point x="185" y="472" type="curve" smooth="yes"/>
      <point x="199" y="472"/>
      <point x="199" y="473"/>
      <point x="199" y="489" type="curve" smooth="yes"/>
      <point x="199" y="505"/>
      <point x="199" y="506"/>
      <point x="185" y="506" type="curve" smooth="yes"/>
      <point x="171" y="506"/>
      <point x="171" y="505"/>
    </contour>
    <contour>
      <point x="39" y="279" type="line"/>
      <point x="331" y="279" type="line"/>
      <point x="331" y="299" type="line"/>
      <point x="39" y="299" type="line"/>
    </contour>
  </outline>
</glyph>
<glyph name="Dcroat" format="2">
  <advance width="294"/>
  <unicode hex="0110"/>
  <outline>
    <contour>
      <point x="7" y="350" type="line"/>
      <point x="173" y="350" type="line"/>
      <point x="173" y="370" type="line"/>
      <point x="7" y="370" type="line"/>
    </contour>
    <contour>
      <point x="124" y="-10" type="curve" smooth="yes"/>
      <point x="229" y="-10"/>
      <point x="266" y="90"/>
      <point x="266" y="350" type="curve" smooth="yes"/>
      <point x="266" y="611"/>
      <point x="229" y="710"/>
      <point x="125" y="710" type="curve" smooth="yes"/>
      <point x="103" y="710"/>
      <point x="78" y="708"/>
      <point x="50" y="704" type="curve"/>
      <point x="50" y="-6" type="line"/>
      <point x="70" y="-9"/>
      <point x="96" y="-10"/>
    </contour>
    <contour>
      <point x="112" y="8" type="curve" smooth="yes"/>
      <point x="100" y="8"/>
      <point x="87" y="9"/>
      <point x="70" y="11" type="curve"/>
      <point x="70" y="688" type="line"/>
      <point x="85" y="690"/>
      <point x="102" y="691"/>
      <point x="115" y="691" type="curve" smooth="yes"/>
      <point x="213" y="691"/>
      <point x="245" y="608"/>
      <point x="245" y="350" type="curve" smooth="yes"/>
      <point x="245" y="92"/>
      <point x="215" y="8"/>
    </contour>
  </outline>
</glyph>
<glyph name="dcroat" format="2">
  <advance width="256"/>
  <unicode hex="0111"/>
  <outline>
    <contour>
      <point x="114" y="618" type="line"/>
      <point x="254" y="618" type="line"/>
      <point x="254" y="636" type="line"/>
      <point x="114" y="636" type="line"/>
    </contour>
    <contour>
      <point x="196" y="0" type="line"/>
      <point x="212" y="0" type="line"/>
      <point x="212" y="740" type="line"/>
      <point x="192" y="740" type="line"/>
      <point x="192" y="532" type="line"/>
      <point x="173" y="538"/>
      <point x="159" y="540"/>
      <point x="144" y="540" type="curve" smooth="yes"/>
      <point x="60" y="540"/>
      <point x="29" y="463"/>
      <point x="29" y="254" type="curve" smooth="yes"/>
      <point x="29" y="80"/>
      <point x="63" y="-10"/>
      <point x="128" y="-10" type="curve" smooth="yes"/>
      <point x="151" y="-10"/>
      <point x="175" y="-3"/>
      <point x="192" y="10" type="curve"/>
    </contour>
    <contour>
      <point x="192" y="30" type="line"/>
      <point x="167" y="13"/>
      <point x="152" y="8"/>
      <point x="128" y="8" type="curve" smooth="yes"/>
      <point x="77" y="8"/>
      <point x="49" y="94"/>
      <point x="49" y="254" type="curve" smooth="yes"/>
      <point x="49" y="456"/>
      <point x="74" y="523"/>
      <point x="149" y="523" type="curve" smooth="yes"/>
      <point x="161" y="523"/>
      <point x="171" y="521"/>
      <point x="192" y="515" type="curve"/>
    </contour>
  </outline>
</glyph>
<glyph name="Idotaccent" format="2">
  <advance width="106"/>
  <unicode hex="0130"/>
  <outline>
    <contour>
      <point x="53" y="807" type="curve" smooth="yes"/>
      <point x="67" y="807"/>
      <point x="67" y="808"/>
      <point x="67" y="824" type="curve" smooth="yes"/>
      <point x="67" y="840"/>
      <point x="67" y="841"/>
      <point x="53" y="841" type="curve" smooth="yes"/>
      <point x="39" y="841"/>
      <point x="39" y="840"/>
      <point x="39" y="824" type="curve" smooth="yes"/>
      <point x="39" y="808"/>
      <point x="40" y="807"/>
    </contour>
    <contour>
      <point x="43" y="0" type="line"/>
      <point x="63" y="0" type="line"/>
      <point x="63" y="700" type="line"/>
      <point x="43" y="700" type="line"/>
    </contour>
  </outline>
</glyph>
<glyph name="dotlessi" format="2">
  <advance width="108"/>
  <unicode hex="0131"/>
  <anchor x="64" y="0" name="ogonek"/>
  <anchor x="54" y="0" name="bottom"/>
  <anchor x="54" y="530" name="top"/>
  <outline>
    <contour>
      <point x="44" y="0" type="line"/>
      <point x="64" y="0" type="line"/>
      <point x="64" y="530" type="line"/>
      <point x="44" y="530" type="line"/>
    </contour>
  </outline>
</glyph>
<glyph name="ldot" format="2">
  <advance width="133"/>
  <unicode hex="0140"/>
  <outline>
    <contour>
      <point x="119" y="340" type="curve" smooth="yes"/>
      <point x="133" y="340"/>
      <point x="133" y="341"/>
      <point x="133" y="357" type="curve" smooth="yes"/>
      <point x="133" y="373"/>
      <point x="133" y="374"/>
      <point x="119" y="374" type="curve" smooth="yes"/>
      <point x="105" y="374"/>
      <point x="105" y="373"/>
      <point x="105" y="357" type="curve" smooth="yes"/>
      <point x="105" y="341"/>
      <point x="106" y="340"/>
    </contour>
    <contour>
      <point x="64" y="740" type="line"/>
      <point x="44" y="740" type="line"/>
      <point x="44" y="85" type="line" smooth="yes"/>
      <point x="44" y="6"/>
      <point x="61" y="-10"/>
      <point x="98" y="-10" type="curve" smooth="yes"/>
      <point x="107" y="-10"/>
      <point x="119" y="-8"/>
      <point x="131" y="-3" type="curve"/>
      <point x="127" y="16" type="line"/>
      <point x="112" y="11"/>
      <point x="104" y="10"/>
      <point x="98" y="10" type="curve" smooth="yes"/>
      <point x="76" y="10"/>
      <point x="64" y="22"/>
      <point x="64" y="85" type="curve" smooth="yes"/>
    </contour>
  </outline>
</glyph>
<glyph name="lslash" format="2">
	<advance width="133"/>
	<unicode hex="0142"/>
	<outline>
		<contour>
			<point x="98" y="-10" type="curve" smooth="yes"/>
			<point x="107" y="-10"/>
			<point x="119" y="-8"/>
			<point x="131" y="-3" type="curve"/>
			<point x="127" y="16" type="line"/>
			<point x="112" y="11"/>
			<point x="104" y="10"/>
			<point x="98" y="10" type="curve" smooth="yes"/>
			<point x="76" y="10"/>
			<point x="64" y="22"/>
			<point x="64" y="115" type="curve" smooth="yes"/>
			<point x="64" y="272" type="line"/>
			<point x="133" y="340" type="line"/>
			<point x="133" y="366" type="line"/>
			<point x="64" y="298" type="line"/>
			<point x="64" y="740" type="line"/>
			<point x="44" y="740" type="line"/>
			<point x="44" y="277" type="line"/>
			<point x="0" y="234" type="line"/>
			<point x="0" y="209" type="line"/>
			<point x="44" y="251" type="line"/>
			<point x="44" y="115" type="line" smooth="yes"/>
			<point x="44" y="6"/>
			<point x="61" y="-10"/>
		</contour>
	</outline>
</glyph>
<glyph name="Eng" format="2">
  <advance width="303"/>
  <unicode hex="014A"/>
  <outline>
    <contour>
      <point x="43" y="0" type="line"/>
      <point x="63" y="0" type="line"/>
      <point x="63" y="629" type="line"/>
      <point x="240" y="7" type="line"/>
      <point x="240" y="-13" type="line" smooth="yes"/>
      <point x="240" y="-83"/>
      <point x="213" y="-109"/>
      <point x="155" y="-109" type="curve" smooth="yes"/>
      <point x="153" y="-109"/>
      <point x="150" y="-109"/>
      <point x="148" y="-109" type="curve"/>
      <point x="148" y="-128" type="line"/>
      <point x="150" y="-128"/>
      <point x="153" y="-128"/>
      <point x="155" y="-128" type="curve" smooth="yes"/>
      <point x="245" y="-128"/>
      <point x="260" y="-75"/>
      <point x="260" y="-10" type="curve" smooth="yes"/>
      <point x="260" y="700" type="line"/>
      <point x="240" y="700" type="line"/>
      <point x="240" y="75" type="line"/>
      <point x="62" y="700" type="line"/>
      <point x="43" y="700" type="line"/>
    </contour>
  </outline>
</glyph>
<glyph name="eng" format="2">
  <advance width="261"/>
  <unicode hex="014B"/>
  <outline>
    <contour>
      <point x="217" y="14" type="curve"/>
      <point x="217" y="446" type="line" smooth="yes"/>
      <point x="217" y="516"/>
      <point x="182" y="540"/>
      <point x="142" y="540" type="curve" smooth="yes"/>
      <point x="115" y="540"/>
      <point x="84" y="530"/>
      <point x="64" y="517" type="curve"/>
      <point x="64" y="530" type="line"/>
      <point x="44" y="530" type="line"/>
      <point x="44" y="0" type="line"/>
      <point x="64" y="0" type="line"/>
      <point x="64" y="496" type="line"/>
      <point x="82" y="511"/>
      <point x="115" y="522"/>
      <point x="135" y="522" type="curve" smooth="yes"/>
      <point x="177" y="522"/>
      <point x="197" y="495"/>
      <point x="197" y="446" type="curve" smooth="yes"/>
      <point x="197" y="14" type="line" smooth="yes"/>
      <point x="197" y="-84"/>
      <point x="178" y="-148"/>
      <point x="144" y="-180" type="curve" smooth="yes"/>
      <point x="139" y="-185"/>
      <point x="134" y="-189"/>
      <point x="128" y="-192" type="curve"/>
      <point x="137" y="-209" type="line"/>
      <point x="145" y="-204"/>
      <point x="152" y="-198"/>
      <point x="159" y="-192" type="curve" smooth="yes"/>
      <point x="197" y="-155"/>
      <point x="217" y="-90"/>
    </contour>
  </outline>
</glyph>
<glyph name="oe" format="2">
  <advance width="422"/>
  <unicode hex="0153"/>
  <outline>
    <contour>
      <point x="29" y="265" type="curve" smooth="yes"/>
      <point x="29" y="44"/>
      <point x="57" y="-10"/>
      <point x="126" y="-10" type="curve" smooth="yes"/>
      <point x="183" y="-10"/>
      <point x="200" y="27"/>
      <point x="213" y="114" type="curve"/>
      <point x="225" y="28"/>
      <point x="254" y="-10"/>
      <point x="314" y="-10" type="curve" smooth="yes"/>
      <point x="333" y="-10"/>
      <point x="364" y="-4"/>
      <point x="388" y="6" type="curve"/>
      <point x="383" y="24" type="line"/>
      <point x="356" y="13"/>
      <point x="333" y="9"/>
      <point x="312" y="9" type="curve" smooth="yes"/>
      <point x="258" y="9"/>
      <point x="223" y="56"/>
      <point x="223" y="235" type="curve" smooth="yes"/>
      <point x="223" y="252"/>
      <point x="223" y="270"/>
      <point x="223" y="287" type="curve"/>
      <point x="308" y="287"/>
      <point x="363" y="296"/>
      <point x="398" y="302" type="curve"/>
      <point x="398" y="305"/>
      <point x="399" y="309"/>
      <point x="399" y="325" type="curve" smooth="yes"/>
      <point x="399" y="480"/>
      <point x="361" y="540"/>
      <point x="303" y="540" type="curve" smooth="yes"/>
      <point x="250" y="540"/>
      <point x="230" y="503"/>
      <point x="215" y="415" type="curve"/>
      <point x="201" y="502"/>
      <point x="183" y="540"/>
      <point x="126" y="540" type="curve" smooth="yes"/>
      <point x="57" y="540"/>
      <point x="29" y="486"/>
    </contour>
    <contour>
      <point x="49" y="265" type="curve" smooth="yes"/>
      <point x="49" y="470"/>
      <point x="71" y="522"/>
      <point x="126" y="522" type="curve" smooth="yes"/>
      <point x="181" y="522"/>
      <point x="203" y="470"/>
      <point x="203" y="265" type="curve" smooth="yes"/>
      <point x="203" y="60"/>
      <point x="181" y="8"/>
      <point x="126" y="8" type="curve" smooth="yes"/>
      <point x="71" y="8"/>
      <point x="49" y="60"/>
    </contour>
    <contour>
      <point x="223" y="305" type="curve"/>
      <point x="230" y="484"/>
      <point x="257" y="522"/>
      <point x="303" y="522" type="curve" smooth="yes"/>
      <point x="348" y="522"/>
      <point x="379" y="470"/>
      <point x="379" y="318" type="curve"/>
      <point x="357" y="312"/>
      <point x="284" y="305"/>
    </contour>
  </outline>
</glyph>
<glyph name="uni0162" format="2">
  <advance width="234"/>
  <unicode hex="0162"/>
  <outline>
    <contour>
      <point x="78" y="-195" type="curve"/>
      <point x="71" y="-210" type="line"/>
      <point x="84" y="-218"/>
      <point x="98" y="-220"/>
      <point x="108" y="-220" type="curve" smooth="yes"/>
      <point x="142" y="-220"/>
      <point x="155" y="-184"/>
      <point x="155" y="-146" type="curve" smooth="yes"/>
      <point x="155" y="-104"/>
      <point x="137" y="-46"/>
      <point x="127" y="0" type="curve"/>
      <point x="107" y="0" type="line"/>
      <point x="124" y="-58"/>
      <point x="137" y="-109"/>
      <point x="137" y="-146" type="curve" smooth="yes"/>
      <point x="137" y="-182"/>
      <point x="125" y="-203"/>
      <point x="104" y="-203" type="curve" smooth="yes"/>
      <point x="95" y="-203"/>
      <point x="86" y="-200"/>
    </contour>
    <contour>
      <point x="229" y="681" type="line"/>
      <point x="229" y="700" type="line"/>
      <point x="5" y="700" type="line"/>
      <point x="5" y="681" type="line"/>
      <point x="107" y="681" type="line"/>
      <point x="107" y="0" type="line"/>
      <point x="127" y="0" type="line"/>
      <point x="127" y="681" type="line"/>
    </contour>
  </outline>
</glyph>
<glyph name="Tbar" format="2">
  <advance width="234"/>
  <unicode hex="0166"/>
  <outline>
    <contour>
      <point x="27" y="370" type="line"/>
      <point x="107" y="370" type="line"/>
      <point x="107" y="0" type="line"/>
      <point x="127" y="0" type="line"/>
      <point x="127" y="370" type="line"/>
      <point x="207" y="370" type="line"/>
      <point x="207" y="390" type="line"/>
      <point x="127" y="390" type="line"/>
      <point x="127" y="681" type="line"/>
      <point x="229" y="681" type="line"/>
      <point x="229" y="700" type="line"/>
      <point x="5" y="700" type="line"/>
      <point x="5" y="681" type="line"/>
      <point x="107" y="681" type="line"/>
      <point x="107" y="390" type="line"/>
      <point x="27" y="390" type="line"/>
    </contour>
  </outline>
</glyph>
<glyph name="tbar" format="2">
  <advance width="190"/>
  <unicode hex="0167"/>
  <outline>
    <contour>
      <point x="81" y="314" type="line"/>
      <point x="178" y="314" type="line"/>
      <point x="178" y="332" type="line"/>
      <point x="81" y="332" type="line"/>
      <point x="81" y="511" type="line"/>
      <point x="188" y="511" type="line"/>
      <point x="188" y="530" type="line"/>
      <point x="81" y="530" type="line"/>
      <point x="81" y="665" type="line"/>
      <point x="66" y="665" type="line"/>
      <point x="61" y="530" type="line"/>
      <point x="8" y="524" type="line"/>
      <point x="8" y="511" type="line"/>
      <point x="61" y="511" type="line"/>
      <point x="61" y="332" type="line"/>
      <point x="18" y="332" type="line"/>
      <point x="18" y="314" type="line"/>
      <point x="61" y="314" type="line"/>
      <point x="61" y="108" type="line" smooth="yes"/>
      <point x="61" y="43"/>
      <point x="73" y="-10"/>
      <point x="148" y="-10" type="curve" smooth="yes"/>
      <point x="161" y="-10"/>
      <point x="176" y="-8"/>
      <point x="193" y="-3" type="curve"/>
      <point x="189" y="15" type="line"/>
      <point x="174" y="10"/>
      <point x="161" y="9"/>
      <point x="148" y="9" type="curve" smooth="yes"/>
      <point x="99" y="9"/>
      <point x="81" y="38"/>
      <point x="81" y="108" type="curve" smooth="yes"/>
    </contour>
  </outline>
</glyph>
<glyph name="uni018F" format="2">
  <advance width="265"/>
  <unicode hex="018F"/>
  <outline>
    <contour>
      <point x="38" y="675" type="line"/>
      <point x="66" y="685"/>
      <point x="94" y="692"/>
      <point x="109" y="692" type="curve" smooth="yes"/>
      <point x="187" y="692"/>
      <point x="217" y="597"/>
      <point x="217" y="351" type="curve" smooth="yes"/>
      <point x="217" y="341"/>
      <point x="217" y="331"/>
      <point x="217" y="321" type="curve"/>
      <point x="122" y="321"/>
      <point x="61" y="308"/>
      <point x="22" y="300" type="curve"/>
      <point x="22" y="293"/>
      <point x="21" y="287"/>
      <point x="21" y="272" type="curve" smooth="yes"/>
      <point x="21" y="85"/>
      <point x="57" y="-10"/>
      <point x="127" y="-10" type="curve" smooth="yes"/>
      <point x="206" y="-10"/>
      <point x="237" y="98"/>
      <point x="237" y="371" type="curve" smooth="yes"/>
      <point x="237" y="607"/>
      <point x="200" y="710"/>
      <point x="116" y="710" type="curve" smooth="yes"/>
      <point x="87" y="710"/>
      <point x="56" y="703"/>
      <point x="31" y="691" type="curve"/>
    </contour>
    <contour>
      <point x="217" y="301" type="curve"/>
      <point x="211" y="90"/>
      <point x="187" y="10"/>
      <point x="129" y="10" type="curve" smooth="yes"/>
      <point x="69" y="10"/>
      <point x="41" y="97"/>
      <point x="41" y="282" type="curve"/>
      <point x="93" y="295"/>
      <point x="141" y="300"/>
    </contour>
  </outline>
</glyph>
<glyph name="florin" format="2">
	<advance width="250"/>
	<unicode hex="0192"/>
	<outline>
		<contour>
			<point x="48" y="384" type="line"/>
			<point x="45" y="366" type="line"/>
			<point x="104" y="366" type="line"/>
			<point x="14" y="-210" type="line"/>
			<point x="32" y="-210" type="line"/>
			<point x="122" y="366" type="line"/>
			<point x="189" y="366" type="line"/>
			<point x="192" y="384" type="line"/>
			<point x="125" y="384" type="line"/>
			<point x="135" y="444" type="line" smooth="yes"/>
			<point x="166" y="632"/>
			<point x="192" y="692"/>
			<point x="238" y="692" type="curve" smooth="yes"/>
			<point x="246" y="692"/>
			<point x="254" y="690"/>
			<point x="266" y="686" type="curve"/>
			<point x="274" y="703" type="line"/>
			<point x="264" y="708"/>
			<point x="253" y="710"/>
			<point x="241" y="710" type="curve" smooth="yes"/>
			<point x="178" y="710"/>
			<point x="150" y="650"/>
			<point x="117" y="444" type="curve" smooth="yes"/>
			<point x="107" y="384" type="line"/>
		</contour>
	</outline>
</glyph>
<glyph name="uni0237" format="2">
  <advance width="107"/>
  <unicode hex="0237"/>
  <anchor x="53" y="530" name="top"/>
  <outline>
    <contour>
      <point x="63" y="14" type="curve" smooth="yes"/>
      <point x="63" y="530" type="line"/>
      <point x="43" y="530" type="line"/>
      <point x="43" y="14" type="line"/>
      <point x="43" y="-84"/>
      <point x="24" y="-148"/>
      <point x="-10" y="-180" type="curve" smooth="yes"/>
      <point x="-15" y="-185"/>
      <point x="-20" y="-189"/>
      <point x="-26" y="-192" type="curve"/>
      <point x="-17" y="-209" type="line"/>
      <point x="-9" y="-204"/>
      <point x="-2" y="-198"/>
      <point x="5" y="-192" type="curve" smooth="yes"/>
      <point x="43" y="-155"/>
      <point x="63" y="-90"/>
    </contour>
  </outline>
</glyph>
<glyph name="uni0259" format="2">
  <advance width="240"/>
  <unicode hex="0259"/>
  <outline>
    <contour>
      <point x="16" y="228" type="curve"/>
      <point x="15" y="220"/>
      <point x="15" y="215"/>
      <point x="15" y="205" type="curve" smooth="yes"/>
      <point x="15" y="50"/>
      <point x="53" y="-10"/>
      <point x="111" y="-10" type="curve" smooth="yes"/>
      <point x="175" y="-10"/>
      <point x="211" y="46"/>
      <point x="211" y="280" type="curve" smooth="yes"/>
      <point x="211" y="475"/>
      <point x="173" y="540"/>
      <point x="103" y="540" type="curve" smooth="yes"/>
      <point x="81" y="540"/>
      <point x="54" y="537"/>
      <point x="26" y="524" type="curve"/>
      <point x="31" y="506" type="line"/>
      <point x="58" y="517"/>
      <point x="83" y="521"/>
      <point x="102" y="521" type="curve" smooth="yes"/>
      <point x="160" y="521"/>
      <point x="191" y="468"/>
      <point x="191" y="265" type="curve" smooth="yes"/>
      <point x="191" y="258"/>
      <point x="191" y="250"/>
      <point x="191" y="243" type="curve"/>
      <point x="106" y="243"/>
      <point x="51" y="234"/>
    </contour>
    <contour>
      <point x="191" y="225" type="curve"/>
      <point x="184" y="46"/>
      <point x="157" y="8"/>
      <point x="111" y="8" type="curve" smooth="yes"/>
      <point x="66" y="8"/>
      <point x="35" y="60"/>
      <point x="35" y="212" type="curve"/>
      <point x="57" y="218"/>
      <point x="130" y="225"/>
    </contour>
  </outline>
</glyph>
<glyph name="gravecomb" format="2">
	<advance width="0"/>
	<unicode hex="0300"/>
	<anchor x="-167" y="710" name="top"/>
	<anchor x="-126" y="530" name="_top"/>
	<outline>
		<contour>
			<point x="-135" y="596" type="line"/>
			<point x="-116" y="596" type="line"/>
			<point x="-195" y="790" type="line"/>
			<point x="-218" y="790" type="line"/>
		</contour>
	</outline>
</glyph>
<glyph name="acutecomb" format="2">
	<advance width="0"/>
	<unicode hex="0301"/>
	<anchor x="-86" y="710" name="top"/>
	<anchor x="-126" y="530" name="_top"/>
	<outline>
		<contour>
			<point x="-137" y="596" type="line"/>
			<point x="-118" y="596" type="line"/>
			<point x="-35" y="790" type="line"/>
			<point x="-57" y="790" type="line"/>
		</contour>
	</outline>
</glyph>
<glyph name="uni0302" format="2">
	<advance width="0"/>
	<unicode hex="0302"/>
	<anchor x="-126" y="747" name="top"/>
	<anchor x="-126" y="530" name="_top"/>
	<anchor x="-40" y="672" name="top_viet"/>
	<outline>
		<contour>
			<point x="-203" y="596" type="line"/>
			<point x="-185" y="596" type="line"/>
			<point x="-126" y="760" type="line"/>
			<point x="-68" y="596" type="line"/>
			<point x="-49" y="596" type="line"/>
			<point x="-116" y="790" type="line"/>
			<point x="-135" y="790" type="line"/>
		</contour>
	</outline>
</glyph>
<glyph name="tildecomb" format="2">
  <unicode hex="0303"/>
  <anchor x="-126" y="614" name="top"/>
  <anchor x="-126" y="530" name="_top"/>
  <outline>
    <contour>
      <point x="-206" y="604" type="curve"/>
      <point x="-187" y="604" type="line"/>
      <point x="-191" y="614"/>
      <point x="-194" y="631"/>
      <point x="-194" y="648" type="curve" smooth="yes"/>
      <point x="-194" y="673"/>
      <point x="-188" y="697"/>
      <point x="-173" y="697" type="curve" smooth="yes"/>
      <point x="-142" y="697"/>
      <point x="-128" y="604"/>
      <point x="-79" y="604" type="curve" smooth="yes"/>
      <point x="-49" y="604"/>
      <point x="-40" y="636"/>
      <point x="-40" y="676" type="curve" smooth="yes"/>
      <point x="-40" y="690"/>
      <point x="-42" y="705"/>
      <point x="-45" y="720" type="curve"/>
      <point x="-62" y="720" type="line"/>
      <point x="-59" y="707"/>
      <point x="-57" y="692"/>
      <point x="-57" y="678" type="curve" smooth="yes"/>
      <point x="-57" y="658"/>
      <point x="-57" y="622"/>
      <point x="-79" y="622" type="curve" smooth="yes"/>
      <point x="-116" y="622"/>
      <point x="-127" y="713"/>
      <point x="-173" y="713" type="curve" smooth="yes"/>
      <point x="-201" y="713"/>
      <point x="-211" y="683"/>
      <point x="-211" y="648" type="curve" smooth="yes"/>
      <point x="-211" y="634"/>
      <point x="-209" y="618"/>
    </contour>
  </outline>
</glyph>
<glyph name="hookabovecomb" format="2">
	<advance width="0"/>
	<unicode hex="0309"/>
	<anchor x="-118" y="794" name="top"/>
	<anchor x="-126" y="530" name="_top"/>
	<outline>
		<contour>
			<point x="-120" y="606" type="line"/>
			<point x="-90" y="649"/>
			<point x="-73" y="695"/>
			<point x="-73" y="737" type="curve" smooth="yes"/>
			<point x="-73" y="776"/>
			<point x="-93" y="794"/>
			<point x="-121" y="794" type="curve" smooth="yes"/>
			<point x="-141" y="794"/>
			<point x="-158" y="787"/>
			<point x="-171" y="766" type="curve"/>
			<point x="-159" y="755" type="line"/>
			<point x="-149" y="772"/>
			<point x="-135" y="777"/>
			<point x="-122" y="777" type="curve" smooth="yes"/>
			<point x="-102" y="777"/>
			<point x="-92" y="760"/>
			<point x="-92" y="736" type="curve" smooth="yes"/>
			<point x="-92" y="698"/>
			<point x="-102" y="664"/>
			<point x="-132" y="617" type="curve"/>
		</contour>
	</outline>
</glyph>
<glyph name="uni030A" format="2">
	<advance width="0"/>
	<unicode hex="030A"/>
	<anchor x="-126" y="739" name="top"/>
	<anchor x="-126" y="530" name="_top"/>
	<outline>
		<contour>
			<point x="-126" y="617" type="curve" smooth="yes"/>
			<point x="-90" y="617"/>
			<point x="-70" y="645"/>
			<point x="-70" y="695" type="curve" smooth="yes"/>
			<point x="-70" y="745"/>
			<point x="-90" y="773"/>
			<point x="-126" y="773" type="curve" smooth="yes"/>
			<point x="-162" y="773"/>
			<point x="-182" y="745"/>
			<point x="-182" y="695" type="curve" smooth="yes"/>
			<point x="-182" y="645"/>
			<point x="-162" y="617"/>
		</contour>
		<contour>
			<point x="-126" y="634" type="curve" smooth="yes"/>
			<point x="-150" y="634"/>
			<point x="-163" y="655"/>
			<point x="-163" y="695" type="curve" smooth="yes"/>
			<point x="-163" y="736"/>
			<point x="-150" y="756"/>
			<point x="-126" y="756" type="curve" smooth="yes"/>
			<point x="-102" y="756"/>
			<point x="-89" y="736"/>
			<point x="-89" y="695" type="curve" smooth="yes"/>
			<point x="-89" y="655"/>
			<point x="-102" y="634"/>
		</contour>
	</outline>
</glyph>
<glyph name="uni030B" format="2">
	<advance width="0"/>
	<unicode hex="030B"/>
	<anchor x="-82" y="790" name="top"/>
	<anchor x="-126" y="530" name="_top"/>
	<outline>
		<contour>
			<point x="-95" y="596" type="line"/>
			<point x="-76" y="596" type="line"/>
			<point x="6" y="790" type="line"/>
			<point x="-16" y="790" type="line"/>
		</contour>
		<contour>
			<point x="-170" y="596" type="line"/>
			<point x="-151" y="596" type="line"/>
			<point x="-69" y="790" type="line"/>
			<point x="-91" y="790" type="line"/>
		</contour>
	</outline>
</glyph>
<glyph name="uni0312" format="2">
	<advance width="0"/>
	<unicode hex="0312"/>
	<anchor x="-126" y="530" name="_top"/>
	<outline>
		<contour>
			<point x="-116" y="595" type="line"/>
			<point x="-123" y="611"/>
			<point x="-127" y="642"/>
			<point x="-127" y="675" type="curve" smooth="yes"/>
			<point x="-127" y="710"/>
			<point x="-123" y="746"/>
			<point x="-105" y="790" type="curve"/>
			<point x="-128" y="790" type="line"/>
			<point x="-141" y="753"/>
			<point x="-147" y="720"/>
			<point x="-147" y="675" type="curve" smooth="yes"/>
			<point x="-147" y="637"/>
			<point x="-142" y="608"/>
			<point x="-137" y="595" type="curve"/>
		</contour>
	</outline>
</glyph>
<glyph name="uni0326" format="2">
	<advance width="0"/>
	<unicode hex="0326"/>
	<anchor x="-126" y="0" name="_bottom"/>
	<outline>
		<contour>
			<point x="-160" y="-220" type="curve"/>
			<point x="-139" y="-220" type="line"/>
			<point x="-122" y="-183"/>
			<point x="-115" y="-150"/>
			<point x="-115" y="-105" type="curve" smooth="yes"/>
			<point x="-115" y="-93"/>
			<point x="-116" y="-82"/>
			<point x="-117" y="-73" type="curve"/>
			<point x="-135" y="-73" type="line"/>
			<point x="-134" y="-83"/>
			<point x="-133" y="-94"/>
			<point x="-133" y="-105" type="curve" smooth="yes"/>
			<point x="-133" y="-140"/>
			<point x="-140" y="-176"/>
		</contour>
	</outline>
</glyph>
<glyph name="uni0328" format="2">
	<advance width="0"/>
	<unicode hex="0328"/>
	<anchor x="-97" y="0" name="_ogonek"/>
	<outline>
		<contour>
			<point x="-116" y="-220" type="curve" smooth="yes"/>
			<point x="-106" y="-220"/>
			<point x="-98" y="-217"/>
			<point x="-90" y="-212" type="curve"/>
			<point x="-96" y="-198" type="line"/>
			<point x="-102" y="-202"/>
			<point x="-107" y="-203"/>
			<point x="-113" y="-203" type="curve" smooth="yes"/>
			<point x="-127" y="-203"/>
			<point x="-139" y="-194"/>
			<point x="-139" y="-159" type="curve" smooth="yes"/>
			<point x="-139" y="-110"/>
			<point x="-126" y="-60"/>
			<point x="-97" y="0" type="curve"/>
			<point x="-112" y="7" type="line"/>
			<point x="-144" y="-64"/>
			<point x="-157" y="-118"/>
			<point x="-157" y="-160" type="curve" smooth="yes"/>
			<point x="-157" y="-204"/>
			<point x="-140" y="-220"/>
		</contour>
	</outline>
</glyph>
<glyph name="pi" format="2">
	<advance width="300"/>
	<unicode hex="03C0"/>
	<outline>
		<contour>
			<point x="257" y="-10" type="curve" smooth="yes"/>
			<point x="267" y="-10"/>
			<point x="278" y="-8"/>
			<point x="292" y="-1" type="curve"/>
			<point x="285" y="16" type="line"/>
			<point x="275" y="11"/>
			<point x="266" y="9"/>
			<point x="257" y="9" type="curve" smooth="yes"/>
			<point x="244" y="9"/>
			<point x="238" y="17"/>
			<point x="238" y="34" type="curve" smooth="yes"/>
			<point x="238" y="512" type="line"/>
			<point x="285" y="512" type="line"/>
			<point x="285" y="530" type="line"/>
			<point x="162" y="530" type="line" smooth="yes"/>
			<point x="99" y="530"/>
			<point x="57" y="526"/>
			<point x="22" y="495" type="curve"/>
			<point x="30" y="478" type="line"/>
			<point x="59" y="501"/>
			<point x="84" y="509"/>
			<point x="102" y="511" type="curve"/>
			<point x="89" y="377"/>
			<point x="75" y="105"/>
			<point x="49" y="0" type="curve"/>
			<point x="69" y="0" type="line"/>
			<point x="97" y="115"/>
			<point x="111" y="382"/>
			<point x="122" y="512" type="curve"/>
			<point x="218" y="512" type="line"/>
			<point x="218" y="34" type="line" smooth="yes"/>
			<point x="218" y="15"/>
			<point x="227" y="-10"/>
		</contour>
	</outline>
</glyph>
<glyph name="quoteright" format="2">
	<advance width="102"/>
	<unicode hex="2019"/>
	<outline>
		<contour>
			<point x="35" y="430" type="line"/>
			<point x="70" y="498"/>
			<point x="85" y="564"/>
			<point x="85" y="664" type="curve" smooth="yes"/>
			<point x="85" y="676"/>
			<point x="85" y="688"/>
			<point x="84" y="700" type="curve"/>
			<point x="66" y="700" type="line"/>
			<point x="66" y="688"/>
			<point x="66" y="676"/>
			<point x="66" y="664" type="curve" smooth="yes"/>
			<point x="66" y="564"/>
			<point x="50" y="498"/>
			<point x="16" y="430" type="curve"/>
		</contour>
	</outline>
</glyph>
<glyph name="dagger" format="2">
	<advance width="282"/>
	<unicode hex="2020"/>
	<outline>
		<contour>
			<point x="131" y="-210" type="line"/>
			<point x="151" y="-210" type="line"/>
			<point x="151" y="510" type="line"/>
			<point x="256" y="510" type="line"/>
			<point x="256" y="530" type="line"/>
			<point x="151" y="530" type="line"/>
			<point x="151" y="740" type="line"/>
			<point x="131" y="740" type="line"/>
			<point x="131" y="530" type="line"/>
			<point x="26" y="530" type="line"/>
			<point x="26" y="510" type="line"/>
			<point x="131" y="510" type="line"/>
		</contour>
	</outline>
</glyph>
<glyph name="bullet" format="2">
	<advance width="204"/>
	<unicode hex="2022"/>
	<outline>
		<contour>
			<point x="102" y="242" type="curve" smooth="yes"/>
			<point x="143" y="242"/>
			<point x="176" y="275"/>
			<point x="176" y="316" type="curve" smooth="yes"/>
			<point x="176" y="357"/>
			<point x="143" y="390"/>
			<point x="102" y="390" type="curve" smooth="yes"/>
			<point x="61" y="390"/>
			<point x="28" y="357"/>
			<point x="28" y="316" type="curve" smooth="yes"/>
			<point x="28" y="275"/>
			<point x="61" y="242"/>
		</contour>
	</outline>
</glyph>
<glyph name="minute" format="2">
	<advance width="150"/>
	<unicode hex="2032"/>
	<outline>
		<contour>
			<point x="42" y="429" type="line"/>
			<point x="53" y="429" type="line"/>
			<point x="108" y="700" type="line"/>
			<point x="86" y="700" type="line"/>
		</contour>
	</outline>
</glyph>
<glyph name="fraction" format="2">
  <advance width="78"/>
  <unicode hex="2044"/>
  <outline>
    <contour>
      <point x="-92" y="-13" type="line"/>
      <point x="186" y="736" type="line"/>
      <point x="170" y="742" type="line"/>
      <point x="-108" y="-7" type="line"/>
    </contour>
  </outline>
</glyph>
<glyph name="uni2052" format="2">
  <advance width="250"/>
  <unicode hex="2052"/>
  <outline>
    <contour>
      <point x="9" y="2" type="line"/>
      <point x="26" y="-3" type="line"/>
      <point x="241" y="698" type="line"/>
      <point x="224" y="703" type="line"/>
    </contour>
    <contour>
      <point x="28" y="683" type="curve" smooth="yes"/>
      <point x="28" y="667"/>
      <point x="29" y="666"/>
      <point x="42" y="666" type="curve" smooth="yes"/>
      <point x="56" y="666"/>
      <point x="56" y="667"/>
      <point x="56" y="683" type="curve" smooth="yes"/>
      <point x="56" y="699"/>
      <point x="56" y="700"/>
      <point x="42" y="700" type="curve" smooth="yes"/>
      <point x="28" y="700"/>
      <point x="28" y="699"/>
    </contour>
    <contour>
      <point x="195" y="17" type="curve" smooth="yes"/>
      <point x="195" y="1"/>
      <point x="196" y="0"/>
      <point x="209" y="0" type="curve" smooth="yes"/>
      <point x="223" y="0"/>
      <point x="223" y="1"/>
      <point x="223" y="17" type="curve" smooth="yes"/>
      <point x="223" y="33"/>
      <point x="223" y="34"/>
      <point x="209" y="34" type="curve" smooth="yes"/>
      <point x="195" y="34"/>
      <point x="195" y="33"/>
    </contour>
  </outline>
</glyph>
<glyph name="uni2070" format="2">
	<advance width="220"/>
	<unicode hex="2070"/>
	<outline>
		<contour>
			<point x="43" y="569" type="curve" smooth="yes"/>
			<point x="43" y="407"/>
			<point x="63" y="361"/>
			<point x="109" y="361" type="curve" smooth="yes"/>
			<point x="157" y="361"/>
			<point x="177" y="407"/>
			<point x="177" y="569" type="curve" smooth="yes"/>
			<point x="177" y="730"/>
			<point x="158" y="774"/>
			<point x="109" y="774" type="curve" smooth="yes"/>
			<point x="63" y="774"/>
			<point x="43" y="730"/>
		</contour>
		<contour>
			<point x="61" y="569" type="curve" smooth="yes"/>
			<point x="61" y="717"/>
			<point x="76" y="756"/>
			<point x="109" y="756" type="curve" smooth="yes"/>
			<point x="144" y="756"/>
			<point x="159" y="717"/>
			<point x="159" y="569" type="curve" smooth="yes"/>
			<point x="159" y="421"/>
			<point x="144" y="379"/>
			<point x="109" y="379" type="curve" smooth="yes"/>
			<point x="76" y="379"/>
			<point x="61" y="421"/>
		</contour>
	</outline>
</glyph>
<glyph name="uni2075" format="2">
	<advance width="220"/>
	<unicode hex="2075"/>
	<outline>
		<contour>
			<point x="46" y="386" type="line"/>
			<point x="59" y="368"/>
			<point x="78" y="359"/>
			<point x="98" y="359" type="curve" smooth="yes"/>
			<point x="144" y="359"/>
			<point x="173" y="400"/>
			<point x="173" y="475" type="curve" smooth="yes"/>
			<point x="173" y="538"/>
			<point x="151" y="582"/>
			<point x="106" y="582" type="curve" smooth="yes"/>
			<point x="77" y="582" type="line"/>
			<point x="84" y="747" type="line"/>
			<point x="157" y="747" type="line"/>
			<point x="157" y="764" type="line"/>
			<point x="68" y="764" type="line"/>
			<point x="58" y="572" type="line"/>
			<point x="64" y="566" type="line"/>
			<point x="103" y="566" type="line" smooth="yes"/>
			<point x="137" y="566"/>
			<point x="154" y="528"/>
			<point x="154" y="475" type="curve" smooth="yes"/>
			<point x="154" y="411"/>
			<point x="132" y="376"/>
			<point x="97" y="376" type="curve" smooth="yes"/>
			<point x="78" y="376"/>
			<point x="65" y="386"/>
			<point x="56" y="397" type="curve"/>
		</contour>
	</outline>
</glyph>
<glyph name="uni2078" format="2">
	<advance width="214"/>
	<unicode hex="2078"/>
	<outline>
		<contour>
			<point x="109" y="361" type="curve" smooth="yes"/>
			<point x="151" y="361"/>
			<point x="176" y="397"/>
			<point x="176" y="457" type="curve" smooth="yes"/>
			<point x="176" y="593"/>
			<point x="67" y="564"/>
			<point x="67" y="681" type="curve" smooth="yes"/>
			<point x="67" y="730"/>
			<point x="83" y="759"/>
			<point x="110" y="759" type="curve" smooth="yes"/>
			<point x="138" y="759"/>
			<point x="153" y="731"/>
			<point x="153" y="679" type="curve" smooth="yes"/>
			<point x="153" y="635"/>
			<point x="140" y="602"/>
			<point x="106" y="574" type="curve"/>
			<point x="116" y="565" type="line"/>
			<point x="154" y="597"/>
			<point x="169" y="633"/>
			<point x="169" y="681" type="curve" smooth="yes"/>
			<point x="169" y="738"/>
			<point x="146" y="775"/>
			<point x="110" y="775" type="curve" smooth="yes"/>
			<point x="72" y="775"/>
			<point x="50" y="739"/>
			<point x="50" y="676" type="curve" smooth="yes"/>
			<point x="50" y="557"/>
			<point x="159" y="584"/>
			<point x="159" y="457" type="curve" smooth="yes"/>
			<point x="159" y="405"/>
			<point x="141" y="376"/>
			<point x="110" y="376" type="curve" smooth="yes"/>
			<point x="78" y="376"/>
			<point x="60" y="408"/>
			<point x="60" y="465" type="curve" smooth="yes"/>
			<point x="60" y="517"/>
			<point x="76" y="556"/>
			<point x="110" y="580" type="curve"/>
			<point x="100" y="590" type="line"/>
			<point x="60" y="560"/>
			<point x="42" y="517"/>
			<point x="42" y="463" type="curve" smooth="yes"/>
			<point x="42" y="397"/>
			<point x="66" y="361"/>
		</contour>
	</outline>
</glyph>
<glyph name="uni2079" format="2">
  <advance width="208"/>
  <unicode hex="2079"/>
  <outline>
    <contour>
      <point x="89" y="360" type="curve" smooth="yes"/>
      <point x="132" y="360"/>
      <point x="165" y="398"/>
      <point x="165" y="583" type="curve" smooth="yes"/>
      <point x="165" y="730"/>
      <point x="141" y="775"/>
      <point x="99" y="775" type="curve" smooth="yes"/>
      <point x="58" y="775"/>
      <point x="35" y="727"/>
      <point x="35" y="654" type="curve" smooth="yes"/>
      <point x="35" y="582"/>
      <point x="57" y="539"/>
      <point x="98" y="539" type="curve" smooth="yes"/>
      <point x="118" y="539"/>
      <point x="140" y="560"/>
      <point x="147" y="586" type="curve"/>
      <point x="147" y="413"/>
      <point x="122" y="375"/>
      <point x="90" y="375" type="curve" smooth="yes"/>
      <point x="77" y="375"/>
      <point x="64" y="382"/>
      <point x="52" y="392" type="curve"/>
      <point x="44" y="379" type="line"/>
      <point x="58" y="367"/>
      <point x="74" y="360"/>
    </contour>
    <contour>
      <point x="98" y="555" type="curve" smooth="yes"/>
      <point x="70" y="555"/>
      <point x="52" y="591"/>
      <point x="52" y="656" type="curve" smooth="yes"/>
      <point x="52" y="730"/>
      <point x="75" y="760"/>
      <point x="100" y="760" type="curve" smooth="yes"/>
      <point x="127" y="760"/>
      <point x="144" y="722"/>
      <point x="147" y="617" type="curve"/>
      <point x="138" y="577"/>
      <point x="118" y="555"/>
    </contour>
  </outline>
</glyph>
<glyph name="franc" format="2">
	<advance width="250"/>
	<unicode hex="20A3"/>
	<outline>
		<contour>
			<point x="73" y="0" type="line"/>
			<point x="93" y="0" type="line"/>
			<point x="93" y="680" type="line"/>
			<point x="248" y="680" type="line"/>
			<point x="248" y="700" type="line"/>
			<point x="73" y="700" type="line"/>
		</contour>
		<contour>
			<point x="16" y="220" type="line"/>
			<point x="198" y="220" type="line"/>
			<point x="198" y="239" type="line"/>
			<point x="16" y="239" type="line"/>
		</contour>
		<contour>
			<point x="16" y="380" type="line"/>
			<point x="198" y="380" type="line"/>
			<point x="198" y="399" type="line"/>
			<point x="16" y="399" type="line"/>
		</contour>
	</outline>
</glyph>
<glyph name="uni20A6" format="2">
	<advance width="250"/>
	<unicode hex="20A6"/>
	<outline>
		<contour>
			<point x="42" y="0" type="line"/>
			<point x="62" y="0" type="line"/>
			<point x="62" y="652" type="line"/>
			<point x="178" y="0" type="line"/>
			<point x="208" y="0" type="line"/>
			<point x="208" y="700" type="line"/>
			<point x="188" y="700" type="line"/>
			<point x="188" y="52" type="line"/>
			<point x="72" y="700" type="line"/>
			<point x="42" y="700" type="line"/>
		</contour>
		<contour>
			<point x="4" y="340" type="line"/>
			<point x="48" y="340" type="line"/>
			<point x="48" y="360" type="line"/>
			<point x="4" y="360" type="line"/>
		</contour>
		<contour>
			<point x="202" y="340" type="line"/>
			<point x="246" y="340" type="line"/>
			<point x="246" y="360" type="line"/>
			<point x="202" y="360" type="line"/>
		</contour>
	</outline>
</glyph>
<glyph name="peseta" format="2">
	<advance width="250"/>
	<unicode hex="20A7"/>
	<outline>
		<contour>
			<point x="47" y="0" type="line"/>
			<point x="67" y="0" type="line"/>
			<point x="67" y="295" type="line"/>
			<point x="77" y="294"/>
			<point x="92" y="294"/>
			<point x="108" y="294" type="curve" smooth="yes"/>
			<point x="172" y="294"/>
			<point x="206" y="346"/>
			<point x="206" y="502" type="curve" smooth="yes"/>
			<point x="206" y="656"/>
			<point x="181" y="710"/>
			<point x="111" y="710" type="curve" smooth="yes"/>
			<point x="92" y="710"/>
			<point x="71" y="708"/>
			<point x="47" y="704" type="curve"/>
		</contour>
		<contour>
			<point x="4" y="490" type="line"/>
			<point x="57" y="490" type="line"/>
			<point x="57" y="510" type="line"/>
			<point x="4" y="510" type="line"/>
		</contour>
		<contour>
			<point x="109" y="314" type="curve" smooth="yes"/>
			<point x="93" y="314"/>
			<point x="80" y="314"/>
			<point x="67" y="315" type="curve"/>
			<point x="67" y="688" type="line"/>
			<point x="83" y="691"/>
			<point x="98" y="692"/>
			<point x="112" y="692" type="curve" smooth="yes"/>
			<point x="168" y="692"/>
			<point x="186" y="645"/>
			<point x="186" y="499" type="curve" smooth="yes"/>
			<point x="186" y="358"/>
			<point x="160" y="314"/>
		</contour>
		<contour>
			<point x="200" y="490" type="line"/>
			<point x="250" y="490" type="line"/>
			<point x="250" y="510" type="line"/>
			<point x="200" y="510" type="line"/>
		</contour>
	</outline>
</glyph>
<glyph name="uni20A9" format="2">
	<advance width="250"/>
	<unicode hex="20A9"/>
	<outline>
		<contour>
			<point x="59" y="0" type="line"/>
			<point x="78" y="0" type="line"/>
			<point x="126" y="645" type="line"/>
			<point x="173" y="0" type="line"/>
			<point x="192" y="0" type="line"/>
			<point x="242" y="701" type="line"/>
			<point x="223" y="702" type="line"/>
			<point x="182" y="83" type="line"/>
			<point x="138" y="700" type="line"/>
			<point x="113" y="700" type="line"/>
			<point x="68" y="83" type="line"/>
			<point x="28" y="702" type="line"/>
			<point x="8" y="700" type="line"/>
		</contour>
		<contour>
			<point x="3" y="340" type="line"/>
			<point x="39" y="340" type="line"/>
			<point x="39" y="356" type="line"/>
			<point x="3" y="356" type="line"/>
		</contour>
		<contour>
			<point x="211" y="340" type="line"/>
			<point x="247" y="340" type="line"/>
			<point x="247" y="356" type="line"/>
			<point x="211" y="356" type="line"/>
		</contour>
	</outline>
</glyph>
<glyph name="dong" format="2">
	<advance width="250"/>
	<unicode hex="20AB"/>
	<outline>
		<contour>
			<point x="129" y="68" type="curve" smooth="yes"/>
			<point x="152" y="68"/>
			<point x="176" y="75"/>
			<point x="193" y="88" type="curve"/>
			<point x="197" y="78" type="line"/>
			<point x="213" y="78" type="line"/>
			<point x="213" y="740" type="line"/>
			<point x="193" y="740" type="line"/>
			<point x="193" y="530" type="line"/>
			<point x="174" y="536"/>
			<point x="160" y="538"/>
			<point x="145" y="538" type="curve" smooth="yes"/>
			<point x="61" y="538"/>
			<point x="30" y="461"/>
			<point x="30" y="292" type="curve" smooth="yes"/>
			<point x="30" y="158"/>
			<point x="64" y="68"/>
		</contour>
		<contour>
			<point x="40" y="0" type="line"/>
			<point x="238" y="0" type="line"/>
			<point x="238" y="20" type="line"/>
			<point x="40" y="20" type="line"/>
		</contour>
		<contour>
			<point x="129" y="86" type="curve" smooth="yes"/>
			<point x="78" y="86"/>
			<point x="50" y="172"/>
			<point x="50" y="292" type="curve" smooth="yes"/>
			<point x="50" y="454"/>
			<point x="75" y="521"/>
			<point x="150" y="521" type="curve" smooth="yes"/>
			<point x="162" y="521"/>
			<point x="172" y="519"/>
			<point x="193" y="513" type="curve"/>
			<point x="193" y="108" type="line"/>
			<point x="168" y="91"/>
			<point x="153" y="86"/>
		</contour>
		<contour>
			<point x="91" y="624" type="line"/>
			<point x="253" y="624" type="line"/>
			<point x="253" y="642" type="line"/>
			<point x="91" y="642" type="line"/>
		</contour>
	</outline>
</glyph>
<glyph name="uni20AD" format="2">
	<advance width="250"/>
	<unicode hex="20AD"/>
	<outline>
		<contour>
			<point x="233" y="-5" type="curve" smooth="yes"/>
			<point x="236" y="-5"/>
			<point x="240" y="-5"/>
			<point x="246" y="-3" type="curve"/>
			<point x="246" y="18" type="line"/>
			<point x="244" y="17"/>
			<point x="241" y="17"/>
			<point x="239" y="17" type="curve" smooth="yes"/>
			<point x="225" y="17"/>
			<point x="215" y="23"/>
			<point x="181" y="113" type="curve" smooth="yes"/>
			<point x="94" y="346" type="line"/>
			<point x="223" y="346" type="line"/>
			<point x="223" y="366" type="line"/>
			<point x="96" y="366" type="line"/>
			<point x="141" y="436"/>
			<point x="209" y="558"/>
			<point x="233" y="698" type="curve"/>
			<point x="215" y="702" type="line"/>
			<point x="191" y="554"/>
			<point x="122" y="434"/>
			<point x="73" y="365" type="curve"/>
			<point x="73" y="700" type="line"/>
			<point x="53" y="700" type="line"/>
			<point x="53" y="366" type="line"/>
			<point x="5" y="366" type="line"/>
			<point x="5" y="346" type="line"/>
			<point x="53" y="346" type="line"/>
			<point x="53" y="0" type="line"/>
			<point x="73" y="0" type="line"/>
			<point x="73" y="348" type="line"/>
			<point x="164" y="105" type="line" smooth="yes"/>
			<point x="192" y="30"/>
			<point x="209" y="-5"/>
		</contour>
	</outline>
</glyph>
<glyph name="uni20B2" format="2">
	<advance width="250"/>
	<unicode hex="20B2"/>
	<outline>
		<contour>
			<point x="29" y="336" type="curve" smooth="yes"/>
			<point x="29" y="95"/>
			<point x="68" y="-10"/>
			<point x="164" y="-10" type="curve" smooth="yes"/>
			<point x="184" y="-10"/>
			<point x="207" y="-6"/>
			<point x="219" y="-2" type="curve"/>
			<point x="219" y="339" type="line"/>
			<point x="132" y="339" type="line"/>
			<point x="132" y="320" type="line"/>
			<point x="199" y="320" type="line"/>
			<point x="199" y="12" type="line"/>
			<point x="188" y="10"/>
			<point x="180" y="8"/>
			<point x="163" y="8" type="curve" smooth="yes"/>
			<point x="85" y="8"/>
			<point x="49" y="108"/>
			<point x="49" y="336" type="curve" smooth="yes"/>
			<point x="49" y="591"/>
			<point x="85" y="691"/>
			<point x="164" y="691" type="curve" smooth="yes"/>
			<point x="176" y="691"/>
			<point x="191" y="690"/>
			<point x="208" y="684" type="curve"/>
			<point x="213" y="701" type="line"/>
			<point x="197" y="707"/>
			<point x="180" y="710"/>
			<point x="163" y="710" type="curve" smooth="yes"/>
			<point x="70" y="710"/>
			<point x="29" y="603"/>
		</contour>
		<contour>
			<point x="149" y="-105" type="line"/>
			<point x="169" y="-105" type="line"/>
			<point x="169" y="1" type="line"/>
			<point x="149" y="-4" type="line"/>
		</contour>
		<contour>
			<point x="149" y="703" type="line"/>
			<point x="169" y="705" type="line"/>
			<point x="169" y="805" type="line"/>
			<point x="149" y="805" type="line"/>
		</contour>
	</outline>
</glyph>
<glyph name="uni20B5" format="2">
	<advance width="250"/>
	<unicode hex="20B5"/>
	<outline>
		<contour>
			<point x="45" y="336" type="curve" smooth="yes"/>
			<point x="45" y="54"/>
			<point x="99" y="-10"/>
			<point x="168" y="-10" type="curve" smooth="yes"/>
			<point x="185" y="-10"/>
			<point x="216" y="-8"/>
			<point x="234" y="-2" type="curve"/>
			<point x="230" y="17" type="line"/>
			<point x="216" y="12"/>
			<point x="182" y="8"/>
			<point x="169" y="8" type="curve" smooth="yes"/>
			<point x="111" y="8"/>
			<point x="65" y="75"/>
			<point x="65" y="336" type="curve" smooth="yes"/>
			<point x="65" y="624"/>
			<point x="111" y="691"/>
			<point x="173" y="691" type="curve" smooth="yes"/>
			<point x="189" y="691"/>
			<point x="205" y="689"/>
			<point x="224" y="683" type="curve"/>
			<point x="228" y="701" type="line"/>
			<point x="207" y="708"/>
			<point x="188" y="710"/>
			<point x="172" y="710" type="curve" smooth="yes"/>
			<point x="91" y="710"/>
			<point x="45" y="622"/>
		</contour>
		<contour>
			<point x="155" y="-105" type="line"/>
			<point x="175" y="-105" type="line"/>
			<point x="175" y="1" type="line"/>
			<point x="155" y="-4" type="line"/>
		</contour>
		<contour>
			<point x="155" y="703" type="line"/>
			<point x="175" y="705" type="line"/>
			<point x="175" y="805" type="line"/>
			<point x="155" y="805" type="line"/>
		</contour>
	</outline>
</glyph>
<glyph name="uni20BA" format="2">
	<advance width="250"/>
	<unicode hex="20BA"/>
	<outline>
		<contour>
			<point x="59" y="0" type="line"/>
			<point x="100" y="0" type="line" smooth="yes"/>
			<point x="182" y="0"/>
			<point x="229" y="82"/>
			<point x="229" y="267" type="curve"/>
			<point x="209" y="267" type="line"/>
			<point x="209" y="100"/>
			<point x="172" y="20"/>
			<point x="104" y="20" type="curve" smooth="yes"/>
			<point x="79" y="20" type="line"/>
			<point x="79" y="700" type="line"/>
			<point x="59" y="700" type="line"/>
		</contour>
		<contour>
			<point x="19" y="374" type="line"/>
			<point x="171" y="518" type="line"/>
			<point x="171" y="542" type="line"/>
			<point x="19" y="398" type="line"/>
		</contour>
		<contour>
			<point x="19" y="266" type="line"/>
			<point x="171" y="410" type="line"/>
			<point x="171" y="434" type="line"/>
			<point x="19" y="290" type="line"/>
		</contour>
	</outline>
</glyph>
<glyph name="trademark" format="2">
	<advance width="280"/>
	<unicode hex="2122"/>
	<outline>
		<contour>
			<point x="114" y="680" type="line"/>
			<point x="114" y="700" type="line"/>
			<point x="10" y="700" type="line"/>
			<point x="10" y="680" type="line"/>
			<point x="52" y="680" type="line"/>
			<point x="52" y="381" type="line"/>
			<point x="72" y="381" type="line"/>
			<point x="72" y="680" type="line"/>
		</contour>
		<contour>
			<point x="129" y="381" type="line"/>
			<point x="149" y="381" type="line"/>
			<point x="149" y="636" type="line"/>
			<point x="186" y="502" type="line"/>
			<point x="200" y="502" type="line"/>
			<point x="240" y="635" type="line"/>
			<point x="240" y="381" type="line"/>
			<point x="260" y="381" type="line"/>
			<point x="260" y="700" type="line"/>
			<point x="243" y="700" type="line"/>
			<point x="194" y="537" type="line"/>
			<point x="147" y="700" type="line"/>
			<point x="129" y="700" type="line"/>
		</contour>
	</outline>
</glyph>
<glyph name="uni2126" format="2">
  <advance width="320"/>
  <unicode hex="2126"/>
  <outline>
    <contour>
      <point x="38" y="-10" type="line"/>
      <point x="136" y="-10" type="line"/>
      <point x="136" y="3" type="line"/>
      <point x="81" y="30"/>
      <point x="58" y="123"/>
      <point x="58" y="349" type="curve" smooth="yes"/>
      <point x="58" y="623"/>
      <point x="88" y="692"/>
      <point x="160" y="692" type="curve" smooth="yes"/>
      <point x="232" y="692"/>
      <point x="262" y="623"/>
      <point x="262" y="349" type="curve" smooth="yes"/>
      <point x="262" y="124"/>
      <point x="239" y="30"/>
      <point x="184" y="3" type="curve"/>
      <point x="184" y="-10" type="line"/>
      <point x="282" y="-10" type="line"/>
      <point x="282" y="8" type="line"/>
      <point x="214" y="8" type="line"/>
      <point x="262" y="47"/>
      <point x="282" y="143"/>
      <point x="282" y="349" type="curve" smooth="yes"/>
      <point x="282" y="639"/>
      <point x="248" y="710"/>
      <point x="160" y="710" type="curve" smooth="yes"/>
      <point x="72" y="710"/>
      <point x="38" y="639"/>
      <point x="38" y="349" type="curve" smooth="yes"/>
      <point x="38" y="143"/>
      <point x="58" y="47"/>
      <point x="105" y="8" type="curve"/>
      <point x="38" y="8" type="line"/>
    </contour>
  </outline>
</glyph>
<glyph name="arrowleft" format="2">
	<advance width="400"/>
	<unicode hex="2190"/>
	<outline>
		<contour>
			<point x="383" y="299" type="line"/>
			<point x="59" y="299" type="line"/>
			<point x="253" y="482" type="line"/>
			<point x="241" y="495" type="line"/>
			<point x="24" y="289" type="line"/>
			<point x="241" y="83" type="line"/>
			<point x="253" y="96" type="line"/>
			<point x="59" y="279" type="line"/>
			<point x="383" y="279" type="line"/>
		</contour>
	</outline>
</glyph>
<glyph name="arrowright" format="2">
	<advance width="400"/>
	<unicode hex="2192"/>
	<outline>
		<contour>
			<point x="17" y="279" type="line"/>
			<point x="341" y="279" type="line"/>
			<point x="147" y="96" type="line"/>
			<point x="159" y="83" type="line"/>
			<point x="376" y="289" type="line"/>
			<point x="159" y="495" type="line"/>
			<point x="147" y="482" type="line"/>
			<point x="341" y="299" type="line"/>
			<point x="17" y="299" type="line"/>
		</contour>
	</outline>
</glyph>
<glyph name="uni2197" format="2">
	<advance width="400"/>
	<unicode hex="2197"/>
	<outline>
		<contour>
			<point x="324" y="116" type="line"/>
			<point x="324" y="416" type="line"/>
			<point x="24" y="416" type="line"/>
			<point x="25" y="398" type="line"/>
			<point x="292" y="398" type="line"/>
			<point x="63" y="169" type="line"/>
			<point x="77" y="155" type="line"/>
			<point x="306" y="384" type="line"/>
			<point x="306" y="117" type="line"/>
		</contour>
	</outline>
</glyph>
<glyph name="uni2198" format="2">
	<advance width="400"/>
	<unicode hex="2198"/>
	<outline>
		<contour>
			<point x="77" y="416" type="line"/>
			<point x="63" y="402" type="line"/>
			<point x="292" y="173" type="line"/>
			<point x="25" y="173" type="line"/>
			<point x="24" y="155" type="line"/>
			<point x="324" y="155" type="line"/>
			<point x="324" y="455" type="line"/>
			<point x="306" y="454" type="line"/>
			<point x="306" y="187" type="line"/>
		</contour>
	</outline>
</glyph>
<glyph name="uni2206" format="2">
  <advance width="284"/>
  <unicode hex="2206"/>
  <outline>
    <contour>
      <point x="22" y="0" type="line"/>
      <point x="262" y="0" type="line"/>
      <point x="262" y="11" type="line"/>
      <point x="151" y="710" type="line"/>
      <point x="135" y="710" type="line"/>
      <point x="22" y="11" type="line"/>
    </contour>
    <contour>
      <point x="43" y="20" type="line"/>
      <point x="143" y="655" type="line"/>
      <point x="241" y="20" type="line"/>
    </contour>
  </outline>
</glyph>
<glyph name="infinity" format="2">
	<advance width="529"/>
	<unicode hex="221E"/>
	<outline>
		<contour>
			<point x="135" y="208" type="curve" smooth="yes"/>
			<point x="187" y="208"/>
			<point x="224" y="256"/>
			<point x="265" y="332" type="curve"/>
			<point x="302" y="244"/>
			<point x="337" y="208"/>
			<point x="392" y="208" type="curve" smooth="yes"/>
			<point x="460" y="208"/>
			<point x="506" y="260"/>
			<point x="506" y="357" type="curve" smooth="yes"/>
			<point x="506" y="445"/>
			<point x="464" y="501"/>
			<point x="394" y="501" type="curve" smooth="yes"/>
			<point x="338" y="501"/>
			<point x="304" y="452"/>
			<point x="264" y="376" type="curve"/>
			<point x="227" y="464"/>
			<point x="196" y="501"/>
			<point x="137" y="501" type="curve" smooth="yes"/>
			<point x="69" y="501"/>
			<point x="23" y="449"/>
			<point x="23" y="352" type="curve" smooth="yes"/>
			<point x="23" y="264"/>
			<point x="65" y="208"/>
		</contour>
		<contour>
			<point x="394" y="481" type="curve" smooth="yes"/>
			<point x="448" y="481"/>
			<point x="486" y="438"/>
			<point x="486" y="357" type="curve" smooth="yes"/>
			<point x="486" y="272"/>
			<point x="446" y="228"/>
			<point x="392" y="228" type="curve" smooth="yes"/>
			<point x="339" y="228"/>
			<point x="319" y="257"/>
			<point x="274" y="351" type="curve"/>
			<point x="319" y="447"/>
			<point x="359" y="481"/>
		</contour>
		<contour>
			<point x="135" y="228" type="curve" smooth="yes"/>
			<point x="81" y="228"/>
			<point x="43" y="271"/>
			<point x="43" y="352" type="curve" smooth="yes"/>
			<point x="43" y="437"/>
			<point x="83" y="481"/>
			<point x="137" y="481" type="curve" smooth="yes"/>
			<point x="186" y="481"/>
			<point x="209" y="452"/>
			<point x="254" y="357" type="curve"/>
			<point x="209" y="261"/>
			<point x="173" y="228"/>
		</contour>
	</outline>
</glyph>
<glyph name="integral" format="2">
	<advance width="300"/>
	<unicode hex="222B"/>
	<outline>
		<contour>
			<point x="49" y="-220" type="curve" smooth="yes"/>
			<point x="147" y="-220"/>
			<point x="160" y="-110"/>
			<point x="160" y="46" type="curve" smooth="yes"/>
			<point x="160" y="486" type="line" smooth="yes"/>
			<point x="160" y="696"/>
			<point x="197" y="731"/>
			<point x="251" y="731" type="curve" smooth="yes"/>
			<point x="264" y="731"/>
			<point x="277" y="730"/>
			<point x="292" y="725" type="curve"/>
			<point x="296" y="743" type="line"/>
			<point x="279" y="748"/>
			<point x="264" y="750"/>
			<point x="251" y="750" type="curve" smooth="yes"/>
			<point x="153" y="750"/>
			<point x="140" y="640"/>
			<point x="140" y="484" type="curve" smooth="yes"/>
			<point x="140" y="44" type="line" smooth="yes"/>
			<point x="140" y="-166"/>
			<point x="103" y="-201"/>
			<point x="49" y="-201" type="curve" smooth="yes"/>
			<point x="36" y="-201"/>
			<point x="23" y="-200"/>
			<point x="8" y="-195" type="curve"/>
			<point x="4" y="-213" type="line"/>
			<point x="21" y="-218"/>
			<point x="36" y="-220"/>
		</contour>
	</outline>
</glyph>
<glyph name="notequal" format="2">
  <advance width="370"/>
  <unicode hex="2260"/>
  <outline>
    <contour>
      <point x="331" y="404" type="line"/>
      <point x="262" y="404" type="line"/>
      <point x="301" y="471" type="line"/>
      <point x="283" y="480" type="line"/>
      <point x="239" y="404" type="line"/>
      <point x="39" y="404" type="line"/>
      <point x="39" y="384" type="line"/>
      <point x="228" y="384" type="line"/>
      <point x="121" y="197" type="line"/>
      <point x="39" y="197" type="line"/>
      <point x="39" y="177" type="line"/>
      <point x="110" y="177" type="line"/>
      <point x="70" y="107" type="line"/>
      <point x="88" y="98" type="line"/>
      <point x="133" y="177" type="line"/>
      <point x="331" y="177" type="line"/>
      <point x="331" y="197" type="line"/>
      <point x="144" y="197" type="line"/>
      <point x="251" y="384" type="line"/>
      <point x="331" y="384" type="line"/>
    </contour>
  </outline>
</glyph>
<glyph name="lessequal" format="2">
	<advance width="370"/>
	<unicode hex="2264"/>
	<outline>
		<contour>
			<point x="347" y="108" type="line"/>
			<point x="347" y="129" type="line"/>
			<point x="45" y="309" type="line"/>
			<point x="347" y="487" type="line"/>
			<point x="347" y="509" type="line"/>
			<point x="23" y="318" type="line"/>
			<point x="23" y="298" type="line"/>
		</contour>
		<contour>
			<point x="23" y="72" type="line"/>
			<point x="347" y="72" type="line"/>
			<point x="347" y="92" type="line"/>
			<point x="23" y="92" type="line"/>
		</contour>
	</outline>
</glyph>
<glyph name="filledbox" format="2">
	<advance width="347"/>
	<unicode hex="25A0"/>
	<outline>
		<contour>
			<point x="69" y="208" type="line"/>
			<point x="278" y="208" type="line"/>
			<point x="278" y="417" type="line"/>
			<point x="69" y="417" type="line"/>
		</contour>
	</outline>
</glyph>
<glyph name="uni25A1" format="2">
	<advance width="347"/>
	<unicode hex="25A1"/>
	<outline>
		<contour>
			<point x="69" y="208" type="line"/>
			<point x="278" y="208" type="line"/>
			<point x="278" y="417" type="line"/>
			<point x="69" y="417" type="line"/>
		</contour>
		<contour>
			<point x="89" y="228" type="line"/>
			<point x="89" y="397" type="line"/>
			<point x="258" y="397" type="line"/>
			<point x="258" y="228" type="line"/>
		</contour>
	</outline>
</glyph>
<glyph name="uni25B7" format="2">
	<advance width="347"/>
	<unicode hex="25B7"/>
	<outline>
		<contour>
			<point x="60" y="182" type="line"/>
			<point x="317" y="299" type="line"/>
			<point x="60" y="417" type="line"/>
		</contour>
		<contour>
			<point x="80" y="213" type="line"/>
			<point x="80" y="386" type="line"/>
			<point x="270" y="299" type="line"/>
		</contour>
	</outline>
</glyph>
<glyph name="triagdn" format="2">
	<advance width="347"/>
	<unicode hex="25BC"/>
	<outline>
		<contour>
			<point x="174" y="171" type="line"/>
			<point x="291" y="428" type="line"/>
			<point x="56" y="428" type="line"/>
		</contour>
	</outline>
</glyph>
<glyph name="uni25BD" format="2">
	<advance width="347"/>
	<unicode hex="25BD"/>
	<outline>
		<contour>
			<point x="174" y="171" type="line"/>
			<point x="291" y="428" type="line"/>
			<point x="56" y="428" type="line"/>
		</contour>
		<contour>
			<point x="173" y="218" type="line"/>
			<point x="87" y="408" type="line"/>
			<point x="260" y="408" type="line"/>
		</contour>
	</outline>
</glyph>
<glyph name="circle" format="2">
	<advance width="347"/>
	<unicode hex="25CB"/>
	<outline>
		<contour>
			<point x="53" y="310" type="curve" smooth="yes"/>
			<point x="53" y="244"/>
			<point x="107" y="190"/>
			<point x="173" y="190" type="curve" smooth="yes"/>
			<point x="239" y="190"/>
			<point x="293" y="244"/>
			<point x="293" y="310" type="curve" smooth="yes"/>
			<point x="293" y="376"/>
			<point x="239" y="430"/>
			<point x="173" y="430" type="curve" smooth="yes"/>
			<point x="107" y="430"/>
			<point x="53" y="376"/>
		</contour>
		<contour>
			<point x="73" y="310" type="curve" smooth="yes"/>
			<point x="73" y="365"/>
			<point x="117" y="410"/>
			<point x="173" y="410" type="curve" smooth="yes"/>
			<point x="228" y="410"/>
			<point x="273" y="365"/>
			<point x="273" y="310" type="curve" smooth="yes"/>
			<point x="273" y="254"/>
			<point x="228" y="210"/>
			<point x="173" y="210" type="curve" smooth="yes"/>
			<point x="117" y="210"/>
			<point x="73" y="254"/>
		</contour>
	</outline>
</glyph>
<glyph name="uni25CF" format="2">
	<advance width="347"/>
	<unicode hex="25CF"/>
	<outline>
		<contour>
			<point x="53" y="310" type="curve" smooth="yes"/>
			<point x="53" y="244"/>
			<point x="107" y="190"/>
			<point x="173" y="190" type="curve" smooth="yes"/>
			<point x="239" y="190"/>
			<point x="293" y="244"/>
			<point x="293" y="310" type="curve" smooth="yes"/>
			<point x="293" y="376"/>
			<point x="239" y="430"/>
			<point x="173" y="430" type="curve" smooth="yes"/>
			<point x="107" y="430"/>
			<point x="53" y="376"/>
		</contour>
	</outline>
</glyph>
<glyph name="uni2782" format="2">
  <advance width="286"/>
  <unicode hex="2782"/>
  <outline>
    <contour>
      <point x="79" y="172" type="line"/>
      <point x="93" y="156"/>
      <point x="111" y="148"/>
      <point x="133" y="148" type="curve" smooth="yes"/>
      <point x="180" y="148"/>
      <point x="207" y="193"/>
      <point x="207" y="267" type="curve" smooth="yes"/>
      <point x="207" y="317"/>
      <point x="190" y="351"/>
      <point x="165" y="363" type="curve"/>
      <point x="190" y="380"/>
      <point x="198" y="411"/>
      <point x="198" y="457" type="curve" smooth="yes"/>
      <point x="198" y="522"/>
      <point x="171" y="558"/>
      <point x="134" y="558" type="curve" smooth="yes"/>
      <point x="116" y="558"/>
      <point x="99" y="551"/>
      <point x="87" y="538" type="curve"/>
      <point x="94" y="527" type="line"/>
      <point x="104" y="537"/>
      <point x="115" y="541"/>
      <point x="132" y="541" type="curve" smooth="yes"/>
      <point x="160" y="541"/>
      <point x="181" y="511"/>
      <point x="181" y="455" type="curve" smooth="yes"/>
      <point x="181" y="408"/>
      <point x="172" y="371"/>
      <point x="135" y="371" type="curve" smooth="yes"/>
      <point x="114" y="371" type="line"/>
      <point x="114" y="355" type="line"/>
      <point x="135" y="355" type="line" smooth="yes"/>
      <point x="169" y="355"/>
      <point x="188" y="321"/>
      <point x="188" y="267" type="curve" smooth="yes"/>
      <point x="188" y="202"/>
      <point x="168" y="165"/>
      <point x="134" y="165" type="curve" smooth="yes"/>
      <point x="113" y="165"/>
      <point x="100" y="173"/>
      <point x="88" y="184" type="curve"/>
    </contour>
    <contour>
      <point x="33" y="350" type="curve" smooth="yes"/>
      <point x="33" y="70"/>
      <point x="66" y="-10"/>
      <point x="143" y="-10" type="curve" smooth="yes"/>
      <point x="220" y="-10"/>
      <point x="253" y="70"/>
      <point x="253" y="350" type="curve" smooth="yes"/>
      <point x="253" y="631"/>
      <point x="220" y="710"/>
      <point x="143" y="710" type="curve" smooth="yes"/>
      <point x="66" y="710"/>
      <point x="33" y="631"/>
    </contour>
    <contour>
      <point x="50" y="350" type="curve" smooth="yes"/>
      <point x="50" y="615"/>
      <point x="80" y="693"/>
      <point x="143" y="693" type="curve" smooth="yes"/>
      <point x="206" y="693"/>
      <point x="236" y="615"/>
      <point x="236" y="350" type="curve" smooth="yes"/>
      <point x="236" y="86"/>
      <point x="206" y="7"/>
      <point x="143" y="7" type="curve" smooth="yes"/>
      <point x="80" y="7"/>
      <point x="50" y="86"/>
    </contour>
  </outline>
</glyph>
<glyph name="uni2783" format="2">
  <advance width="286"/>
  <unicode hex="2783"/>
  <outline>
    <contour>
      <point x="77" y="265" type="line"/>
      <point x="159" y="265" type="line"/>
      <point x="159" y="160" type="line"/>
      <point x="177" y="160" type="line"/>
      <point x="177" y="265" type="line"/>
      <point x="210" y="265" type="line"/>
      <point x="210" y="281" type="line"/>
      <point x="177" y="281" type="line"/>
      <point x="177" y="557" type="line"/>
      <point x="158" y="559" type="line"/>
      <point x="70" y="280" type="line"/>
    </contour>
    <contour>
      <point x="87" y="281" type="line"/>
      <point x="159" y="510" type="line"/>
      <point x="159" y="281" type="line"/>
    </contour>
    <contour>
      <point x="33" y="350" type="curve" smooth="yes"/>
      <point x="33" y="70"/>
      <point x="66" y="-10"/>
      <point x="143" y="-10" type="curve" smooth="yes"/>
      <point x="220" y="-10"/>
      <point x="253" y="70"/>
      <point x="253" y="350" type="curve" smooth="yes"/>
      <point x="253" y="631"/>
      <point x="220" y="710"/>
      <point x="143" y="710" type="curve" smooth="yes"/>
      <point x="66" y="710"/>
      <point x="33" y="631"/>
    </contour>
    <contour>
      <point x="50" y="350" type="curve" smooth="yes"/>
      <point x="50" y="615"/>
      <point x="80" y="693"/>
      <point x="143" y="693" type="curve" smooth="yes"/>
      <point x="206" y="693"/>
      <point x="236" y="615"/>
      <point x="236" y="350" type="curve" smooth="yes"/>
      <point x="236" y="86"/>
      <point x="206" y="7"/>
      <point x="143" y="7" type="curve" smooth="yes"/>
      <point x="80" y="7"/>
      <point x="50" y="86"/>
    </contour>
  </outline>
</glyph>
<glyph name="uni2784" format="2">
  <advance width="286"/>
  <unicode hex="2784"/>
  <outline>
    <contour>
      <point x="81" y="174" type="line"/>
      <point x="94" y="156"/>
      <point x="113" y="147"/>
      <point x="133" y="147" type="curve" smooth="yes"/>
      <point x="179" y="147"/>
      <point x="208" y="188"/>
      <point x="208" y="262" type="curve" smooth="yes"/>
      <point x="208" y="324"/>
      <point x="186" y="368"/>
      <point x="141" y="368" type="curve" smooth="yes"/>
      <point x="112" y="368" type="line"/>
      <point x="119" y="531" type="line"/>
      <point x="192" y="531" type="line"/>
      <point x="192" y="548" type="line"/>
      <point x="103" y="548" type="line"/>
      <point x="93" y="358" type="line"/>
      <point x="99" y="352" type="line"/>
      <point x="138" y="352" type="line" smooth="yes"/>
      <point x="172" y="352"/>
      <point x="189" y="314"/>
      <point x="189" y="262" type="curve" smooth="yes"/>
      <point x="189" y="198"/>
      <point x="167" y="164"/>
      <point x="132" y="164" type="curve" smooth="yes"/>
      <point x="113" y="164"/>
      <point x="100" y="174"/>
      <point x="91" y="185" type="curve"/>
    </contour>
    <contour>
      <point x="33" y="350" type="curve" smooth="yes"/>
      <point x="33" y="70"/>
      <point x="66" y="-10"/>
      <point x="143" y="-10" type="curve" smooth="yes"/>
      <point x="220" y="-10"/>
      <point x="253" y="70"/>
      <point x="253" y="350" type="curve" smooth="yes"/>
      <point x="253" y="631"/>
      <point x="220" y="710"/>
      <point x="143" y="710" type="curve" smooth="yes"/>
      <point x="66" y="710"/>
      <point x="33" y="631"/>
    </contour>
    <contour>
      <point x="50" y="350" type="curve" smooth="yes"/>
      <point x="50" y="615"/>
      <point x="80" y="693"/>
      <point x="143" y="693" type="curve" smooth="yes"/>
      <point x="206" y="693"/>
      <point x="236" y="615"/>
      <point x="236" y="350" type="curve" smooth="yes"/>
      <point x="236" y="86"/>
      <point x="206" y="7"/>
      <point x="143" y="7" type="curve" smooth="yes"/>
      <point x="80" y="7"/>
      <point x="50" y="86"/>
    </contour>
  </outline>
</glyph>
<glyph name="uni2788" format="2">
  <advance width="286"/>
  <unicode hex="2788"/>
  <outline>
    <contour>
      <point x="190" y="368" type="curve"/>
      <point x="190" y="200"/>
      <point x="165" y="163"/>
      <point x="133" y="163" type="curve" smooth="yes"/>
      <point x="120" y="163"/>
      <point x="107" y="170"/>
      <point x="95" y="180" type="curve"/>
      <point x="87" y="167" type="line"/>
      <point x="101" y="155"/>
      <point x="117" y="148"/>
      <point x="132" y="148" type="curve" smooth="yes"/>
      <point x="175" y="148"/>
      <point x="208" y="186"/>
      <point x="208" y="369" type="curve" smooth="yes"/>
      <point x="208" y="514"/>
      <point x="184" y="559"/>
      <point x="142" y="559" type="curve" smooth="yes"/>
      <point x="101" y="559"/>
      <point x="78" y="511"/>
      <point x="78" y="439" type="curve" smooth="yes"/>
      <point x="78" y="368"/>
      <point x="100" y="325"/>
      <point x="141" y="325" type="curve" smooth="yes"/>
      <point x="161" y="325"/>
      <point x="183" y="346"/>
    </contour>
    <contour>
      <point x="141" y="341" type="curve" smooth="yes"/>
      <point x="113" y="341"/>
      <point x="95" y="377"/>
      <point x="95" y="441" type="curve" smooth="yes"/>
      <point x="95" y="514"/>
      <point x="118" y="544"/>
      <point x="143" y="544" type="curve" smooth="yes"/>
      <point x="170" y="544"/>
      <point x="187" y="506"/>
      <point x="190" y="402" type="curve"/>
      <point x="181" y="363"/>
      <point x="161" y="341"/>
    </contour>
    <contour>
      <point x="143" y="-10" type="curve" smooth="yes"/>
      <point x="220" y="-10"/>
      <point x="253" y="70"/>
      <point x="253" y="350" type="curve" smooth="yes"/>
      <point x="253" y="631"/>
      <point x="220" y="710"/>
      <point x="143" y="710" type="curve" smooth="yes"/>
      <point x="66" y="710"/>
      <point x="33" y="631"/>
      <point x="33" y="350" type="curve" smooth="yes"/>
      <point x="33" y="70"/>
      <point x="66" y="-10"/>
    </contour>
    <contour>
      <point x="143" y="693" type="curve" smooth="yes"/>
      <point x="206" y="693"/>
      <point x="236" y="615"/>
      <point x="236" y="350" type="curve" smooth="yes"/>
      <point x="236" y="86"/>
      <point x="206" y="7"/>
      <point x="143" y="7" type="curve" smooth="yes"/>
      <point x="80" y="7"/>
      <point x="50" y="86"/>
      <point x="50" y="350" type="curve" smooth="yes"/>
      <point x="50" y="615"/>
      <point x="80" y="693"/>
    </contour>
  </outline>
</glyph>
<glyph name="uni278A" format="2">
  <advance width="286"/>
  <unicode hex="278A"/>
  <outline>
    <contour>
      <point x="143" y="-10" type="curve" smooth="yes"/>
      <point x="220" y="-10"/>
      <point x="253" y="70"/>
      <point x="253" y="350" type="curve" smooth="yes"/>
      <point x="253" y="631"/>
      <point x="220" y="710"/>
      <point x="143" y="710" type="curve" smooth="yes"/>
      <point x="66" y="710"/>
      <point x="33" y="631"/>
      <point x="33" y="350" type="curve" smooth="yes"/>
      <point x="33" y="70"/>
      <point x="66" y="-10"/>
    </contour>
    <contour>
      <point x="71" y="160" type="line"/>
      <point x="71" y="177" type="line"/>
      <point x="140" y="177" type="line"/>
      <point x="140" y="528" type="line"/>
      <point x="79" y="473" type="line"/>
      <point x="71" y="488" type="line"/>
      <point x="149" y="556" type="line"/>
      <point x="159" y="556" type="line"/>
      <point x="159" y="177" type="line"/>
      <point x="222" y="177" type="line"/>
      <point x="222" y="160" type="line"/>
    </contour>
  </outline>
</glyph>
<glyph name="uni278B" format="2">
  <advance width="286"/>
  <unicode hex="278B"/>
  <outline>
    <contour>
      <point x="143" y="-10" type="curve" smooth="yes"/>
      <point x="220" y="-10"/>
      <point x="253" y="70"/>
      <point x="253" y="350" type="curve" smooth="yes"/>
      <point x="253" y="631"/>
      <point x="220" y="710"/>
      <point x="143" y="710" type="curve" smooth="yes"/>
      <point x="66" y="710"/>
      <point x="33" y="631"/>
      <point x="33" y="350" type="curve" smooth="yes"/>
      <point x="33" y="70"/>
      <point x="66" y="-10"/>
    </contour>
    <contour>
      <point x="86" y="160" type="line"/>
      <point x="83" y="174" type="line"/>
      <point x="151" y="334"/>
      <point x="172" y="411"/>
      <point x="172" y="473" type="curve" smooth="yes"/>
      <point x="172" y="518"/>
      <point x="156" y="546"/>
      <point x="131" y="546" type="curve" smooth="yes"/>
      <point x="114" y="546"/>
      <point x="105" y="541"/>
      <point x="86" y="520" type="curve"/>
      <point x="78" y="532" type="line"/>
      <point x="93" y="553"/>
      <point x="112" y="562"/>
      <point x="132" y="562" type="curve" smooth="yes"/>
      <point x="169" y="562"/>
      <point x="190" y="529"/>
      <point x="190" y="473" type="curve" smooth="yes"/>
      <point x="190" y="408"/>
      <point x="168" y="335"/>
      <point x="101" y="176" type="curve"/>
      <point x="208" y="176" type="line"/>
      <point x="208" y="160" type="line"/>
    </contour>
  </outline>
</glyph>
<glyph name="uni278E" format="2">
  <advance width="286"/>
  <unicode hex="278E"/>
  <outline>
    <contour>
      <point x="143" y="-10" type="curve" smooth="yes"/>
      <point x="220" y="-10"/>
      <point x="253" y="70"/>
      <point x="253" y="350" type="curve" smooth="yes"/>
      <point x="253" y="631"/>
      <point x="220" y="710"/>
      <point x="143" y="710" type="curve" smooth="yes"/>
      <point x="66" y="710"/>
      <point x="33" y="631"/>
      <point x="33" y="350" type="curve" smooth="yes"/>
      <point x="33" y="70"/>
      <point x="66" y="-10"/>
    </contour>
    <contour>
      <point x="133" y="147" type="curve" smooth="yes"/>
      <point x="113" y="147"/>
      <point x="94" y="156"/>
      <point x="81" y="174" type="curve"/>
      <point x="91" y="185" type="line"/>
      <point x="100" y="174"/>
      <point x="113" y="164"/>
      <point x="132" y="164" type="curve" smooth="yes"/>
      <point x="167" y="164"/>
      <point x="189" y="198"/>
      <point x="189" y="262" type="curve" smooth="yes"/>
      <point x="189" y="314"/>
      <point x="172" y="352"/>
      <point x="138" y="352" type="curve" smooth="yes"/>
      <point x="99" y="352" type="line"/>
      <point x="93" y="358" type="line"/>
      <point x="103" y="548" type="line"/>
      <point x="192" y="548" type="line"/>
      <point x="192" y="531" type="line"/>
      <point x="119" y="531" type="line"/>
      <point x="112" y="368" type="line"/>
      <point x="141" y="368" type="line" smooth="yes"/>
      <point x="186" y="368"/>
      <point x="208" y="324"/>
      <point x="208" y="262" type="curve" smooth="yes"/>
      <point x="208" y="188"/>
      <point x="179" y="147"/>
    </contour>
  </outline>
</glyph>
<glyph name="uni2790" format="2">
  <advance width="286"/>
  <unicode hex="2790"/>
  <outline>
    <contour>
      <point x="143" y="-10" type="curve" smooth="yes"/>
      <point x="220" y="-10"/>
      <point x="253" y="70"/>
      <point x="253" y="350" type="curve" smooth="yes"/>
      <point x="253" y="631"/>
      <point x="220" y="710"/>
      <point x="143" y="710" type="curve" smooth="yes"/>
      <point x="66" y="710"/>
      <point x="33" y="631"/>
      <point x="33" y="350" type="curve" smooth="yes"/>
      <point x="33" y="70"/>
      <point x="66" y="-10"/>
    </contour>
    <contour>
      <point x="124" y="160" type="line"/>
      <point x="124" y="256"/>
      <point x="132" y="319"/>
      <point x="156" y="406" type="curve" smooth="yes"/>
      <point x="190" y="533" type="line"/>
      <point x="79" y="533" type="line"/>
      <point x="79" y="550" type="line"/>
      <point x="207" y="550" type="line"/>
      <point x="207" y="536" type="line"/>
      <point x="170" y="398" type="line" smooth="yes"/>
      <point x="148" y="314"/>
      <point x="140" y="252"/>
      <point x="140" y="160" type="curve"/>
    </contour>
  </outline>
</glyph>
<glyph name="uni2791" format="2">
  <advance width="286"/>
  <unicode hex="2791"/>
  <outline>
    <contour>
      <point x="143" y="-10" type="curve" smooth="yes"/>
      <point x="220" y="-10"/>
      <point x="253" y="70"/>
      <point x="253" y="350" type="curve" smooth="yes"/>
      <point x="253" y="631"/>
      <point x="220" y="710"/>
      <point x="143" y="710" type="curve" smooth="yes"/>
      <point x="66" y="710"/>
      <point x="33" y="631"/>
      <point x="33" y="350" type="curve" smooth="yes"/>
      <point x="33" y="70"/>
      <point x="66" y="-10"/>
    </contour>
    <contour>
      <point x="145" y="164" type="curve" smooth="yes"/>
      <point x="176" y="164"/>
      <point x="194" y="193"/>
      <point x="194" y="245" type="curve" smooth="yes"/>
      <point x="194" y="311"/>
      <point x="164" y="335"/>
      <point x="136" y="359" type="curve"/>
      <point x="108" y="335"/>
      <point x="95" y="300"/>
      <point x="95" y="253" type="curve" smooth="yes"/>
      <point x="95" y="196"/>
      <point x="113" y="164"/>
    </contour>
    <contour>
      <point x="144" y="149" type="curve" smooth="yes"/>
      <point x="101" y="149"/>
      <point x="77" y="185"/>
      <point x="77" y="251" type="curve" smooth="yes"/>
      <point x="77" y="301"/>
      <point x="92" y="339"/>
      <point x="126" y="368" type="curve"/>
      <point x="104" y="388"/>
      <point x="85" y="412"/>
      <point x="85" y="460" type="curve" smooth="yes"/>
      <point x="85" y="523"/>
      <point x="107" y="559"/>
      <point x="145" y="559" type="curve" smooth="yes"/>
      <point x="181" y="559"/>
      <point x="204" y="522"/>
      <point x="204" y="465" type="curve" smooth="yes"/>
      <point x="204" y="421"/>
      <point x="192" y="389"/>
      <point x="160" y="359" type="curve"/>
      <point x="186" y="337"/>
      <point x="211" y="310"/>
      <point x="211" y="245" type="curve" smooth="yes"/>
      <point x="211" y="185"/>
      <point x="186" y="149"/>
    </contour>
    <contour>
      <point x="150" y="368" type="curve"/>
      <point x="177" y="394"/>
      <point x="188" y="423"/>
      <point x="188" y="463" type="curve" smooth="yes"/>
      <point x="188" y="515"/>
      <point x="173" y="543"/>
      <point x="145" y="543" type="curve" smooth="yes"/>
      <point x="118" y="543"/>
      <point x="102" y="514"/>
      <point x="102" y="465" type="curve" smooth="yes"/>
      <point x="102" y="412"/>
      <point x="125" y="390"/>
    </contour>
  </outline>
</glyph>
<glyph name="uni27E8" format="2">
	<advance width="161"/>
	<unicode hex="27E8"/>
	<outline>
		<contour>
			<point x="44" y="347" type="line"/>
			<point x="119" y="-3" type="line"/>
			<point x="136" y="1" type="line"/>
			<point x="62" y="351" type="line"/>
			<point x="136" y="699" type="line"/>
			<point x="119" y="703" type="line"/>
			<point x="44" y="353" type="line"/>
		</contour>
	</outline>
</glyph>
<glyph name="uni27F7" format="2">
	<advance width="737"/>
	<unicode hex="27F7"/>
	<outline>
		<contour>
			<point x="241" y="83" type="line"/>
			<point x="253" y="96" type="line"/>
			<point x="59" y="279" type="line"/>
			<point x="677" y="279" type="line"/>
			<point x="484" y="96" type="line"/>
			<point x="496" y="83" type="line"/>
			<point x="713" y="289" type="line"/>
			<point x="496" y="495" type="line"/>
			<point x="484" y="482" type="line"/>
			<point x="677" y="299" type="line"/>
			<point x="59" y="299" type="line"/>
			<point x="253" y="482" type="line"/>
			<point x="241" y="495" type="line"/>
			<point x="24" y="289" type="line"/>
		</contour>
	</outline>
</glyph>
<glyph name="fl" format="2">
  <advance width="315"/>
  <unicode hex="FB02"/>
  <outline>
    <contour>
      <point x="280" y="-10" type="curve" smooth="yes"/>
      <point x="289" y="-10"/>
      <point x="301" y="-8"/>
      <point x="313" y="-3" type="curve"/>
      <point x="309" y="16" type="line"/>
      <point x="294" y="11"/>
      <point x="286" y="10"/>
      <point x="280" y="10" type="curve" smooth="yes"/>
      <point x="258" y="10"/>
      <point x="246" y="22"/>
      <point x="246" y="85" type="curve" smooth="yes"/>
      <point x="246" y="734" type="line"/>
      <point x="228" y="744"/>
      <point x="206" y="750"/>
      <point x="182" y="750" type="curve" smooth="yes"/>
      <point x="106" y="750"/>
      <point x="71" y="680"/>
      <point x="71" y="515" type="curve" smooth="yes"/>
      <point x="71" y="484" type="line"/>
      <point x="11" y="478" type="line"/>
      <point x="11" y="465" type="line"/>
      <point x="71" y="465" type="line"/>
      <point x="71" y="0" type="line"/>
      <point x="91" y="0" type="line"/>
      <point x="91" y="465" type="line"/>
      <point x="167" y="465" type="line"/>
      <point x="167" y="484" type="line"/>
      <point x="91" y="484" type="line"/>
      <point x="91" y="515" type="line" smooth="yes"/>
      <point x="91" y="667"/>
      <point x="118" y="731"/>
      <point x="182" y="731" type="curve" smooth="yes"/>
      <point x="196" y="731"/>
      <point x="210" y="729"/>
      <point x="226" y="723" type="curve"/>
      <point x="226" y="85" type="line" smooth="yes"/>
      <point x="226" y="6"/>
      <point x="243" y="-10"/>
    </contour>
  </outline>
</glyph>
<glyph name="a.superior" format="2">
	<advance width="162"/>
	<outline>
		<contour>
			<point x="12" y="432" type="curve" smooth="yes"/>
			<point x="12" y="386"/>
			<point x="32" y="364"/>
			<point x="64" y="364" type="curve" smooth="yes"/>
			<point x="84" y="364"/>
			<point x="101" y="374"/>
			<point x="114" y="390" type="curve"/>
			<point x="115" y="373"/>
			<point x="124" y="364"/>
			<point x="140" y="364" type="curve" smooth="yes"/>
			<point x="147" y="364"/>
			<point x="155" y="367"/>
			<point x="163" y="371" type="curve"/>
			<point x="159" y="384" type="line"/>
			<point x="153" y="381"/>
			<point x="147" y="379"/>
			<point x="143" y="379" type="curve" smooth="yes"/>
			<point x="136" y="379"/>
			<point x="131" y="384"/>
			<point x="131" y="401" type="curve" smooth="yes"/>
			<point x="131" y="581" type="line" smooth="yes"/>
			<point x="131" y="626"/>
			<point x="129" y="675"/>
			<point x="76" y="675" type="curve" smooth="yes"/>
			<point x="61" y="675"/>
			<point x="44" y="672"/>
			<point x="27" y="666" type="curve"/>
			<point x="32" y="650" type="line"/>
			<point x="46" y="655"/>
			<point x="61" y="658"/>
			<point x="72" y="658" type="curve" smooth="yes"/>
			<point x="102" y="658"/>
			<point x="114" y="638"/>
			<point x="114" y="600" type="curve" smooth="yes"/>
			<point x="114" y="529" type="line"/>
			<point x="53" y="515"/>
			<point x="12" y="491"/>
		</contour>
		<contour>
			<point x="29" y="432" type="curve" smooth="yes"/>
			<point x="29" y="485"/>
			<point x="64" y="499"/>
			<point x="114" y="515" type="curve"/>
			<point x="114" y="407" type="line"/>
			<point x="105" y="394"/>
			<point x="88" y="379"/>
			<point x="67" y="379" type="curve" smooth="yes"/>
			<point x="44" y="379"/>
			<point x="29" y="395"/>
		</contour>
	</outline>
</glyph>
<glyph name="ae.sc" format="2">
  <advance width="420"/>
  <anchor x="262" y="600" name="top"/>
  <anchor x="210" y="0" name="bottom"/>
  <outline>
    <contour>
      <point x="21" y="0" type="line"/>
      <point x="42" y="-1" type="line"/>
      <point x="135" y="285" type="line"/>
      <point x="230" y="285" type="line"/>
      <point x="230" y="0" type="line"/>
      <point x="407" y="0" type="line"/>
      <point x="407" y="19" type="line"/>
      <point x="251" y="19" type="line"/>
      <point x="251" y="285" type="line"/>
      <point x="384" y="285" type="line"/>
      <point x="384" y="304" type="line"/>
      <point x="251" y="304" type="line"/>
      <point x="251" y="596" type="line"/>
      <point x="398" y="596" type="line"/>
      <point x="398" y="615" type="line"/>
      <point x="225" y="615" type="line"/>
    </contour>
    <contour>
      <point x="141" y="303" type="line"/>
      <point x="230" y="575" type="line"/>
      <point x="230" y="303" type="line"/>
    </contour>
  </outline>
</glyph>
<glyph name="at.sc" format="2">
	<advance width="289"/>
	<outline>
		<contour>
			<point x="143" y="-11" type="curve" smooth="yes"/>
			<point x="195" y="-11"/>
			<point x="221" y="25"/>
			<point x="227" y="56" type="curve"/>
			<point x="211" y="59" type="line"/>
			<point x="207" y="39"/>
			<point x="184" y="7"/>
			<point x="144" y="7" type="curve" smooth="yes"/>
			<point x="68" y="7"/>
			<point x="45" y="99"/>
			<point x="45" y="319" type="curve" smooth="yes"/>
			<point x="45" y="500"/>
			<point x="63" y="615"/>
			<point x="153" y="615" type="curve" smooth="yes"/>
			<point x="234" y="615"/>
			<point x="244" y="544"/>
			<point x="244" y="359" type="curve" smooth="yes"/>
			<point x="244" y="248"/>
			<point x="240" y="160"/>
			<point x="217" y="160" type="curve" smooth="yes"/>
			<point x="199" y="160"/>
			<point x="192" y="198"/>
			<point x="194" y="274" type="curve" smooth="yes"/>
			<point x="199" y="452" type="line"/>
			<point x="180" y="461"/>
			<point x="165" y="465"/>
			<point x="152" y="465" type="curve" smooth="yes"/>
			<point x="95" y="465"/>
			<point x="82" y="362"/>
			<point x="82" y="297" type="curve" smooth="yes"/>
			<point x="82" y="176"/>
			<point x="98" y="141"/>
			<point x="132" y="141" type="curve" smooth="yes"/>
			<point x="170" y="141"/>
			<point x="174" y="188"/>
			<point x="178" y="250" type="curve"/>
			<point x="178" y="156"/>
			<point x="192" y="142"/>
			<point x="216" y="142" type="curve" smooth="yes"/>
			<point x="262" y="142"/>
			<point x="264" y="243"/>
			<point x="264" y="359" type="curve" smooth="yes"/>
			<point x="264" y="553"/>
			<point x="254" y="632"/>
			<point x="153" y="632" type="curve" smooth="yes"/>
			<point x="42" y="632"/>
			<point x="25" y="508"/>
			<point x="25" y="319" type="curve" smooth="yes"/>
			<point x="25" y="98"/>
			<point x="45" y="-11"/>
		</contour>
		<contour>
			<point x="133" y="159" type="curve" smooth="yes"/>
			<point x="118" y="159"/>
			<point x="100" y="175"/>
			<point x="100" y="297" type="curve" smooth="yes"/>
			<point x="100" y="376"/>
			<point x="118" y="446"/>
			<point x="152" y="446" type="curve" smooth="yes"/>
			<point x="159" y="446"/>
			<point x="169" y="443"/>
			<point x="179" y="438" type="curve"/>
			<point x="176" y="381" type="line"/>
			<point x="162" y="205"/>
			<point x="157" y="159"/>
		</contour>
	</outline>
</glyph>
<glyph name="braceleft.sc" format="2">
	<advance width="172"/>
	<outline>
		<contour>
			<point x="67" y="1" type="curve" smooth="yes"/>
			<point x="67" y="-65"/>
			<point x="87" y="-125"/>
			<point x="136" y="-125" type="curve" smooth="yes"/>
			<point x="154" y="-125" type="line"/>
			<point x="154" y="-105" type="line"/>
			<point x="136" y="-105" type="line" smooth="yes"/>
			<point x="100" y="-105"/>
			<point x="87" y="-56"/>
			<point x="87" y="1" type="curve" smooth="yes"/>
			<point x="87" y="80"/>
			<point x="117" y="138"/>
			<point x="117" y="222" type="curve" smooth="yes"/>
			<point x="117" y="252"/>
			<point x="110" y="293"/>
			<point x="88" y="307" type="curve"/>
			<point x="110" y="326"/>
			<point x="117" y="363"/>
			<point x="117" y="393" type="curve" smooth="yes"/>
			<point x="117" y="470"/>
			<point x="87" y="528"/>
			<point x="87" y="614" type="curve" smooth="yes"/>
			<point x="87" y="671"/>
			<point x="100" y="720"/>
			<point x="136" y="720" type="curve" smooth="yes"/>
			<point x="154" y="720" type="line"/>
			<point x="154" y="740" type="line"/>
			<point x="136" y="740" type="line" smooth="yes"/>
			<point x="87" y="740"/>
			<point x="67" y="680"/>
			<point x="67" y="614" type="curve" smooth="yes"/>
			<point x="67" y="523"/>
			<point x="97" y="469"/>
			<point x="97" y="393" type="curve" smooth="yes"/>
			<point x="97" y="360"/>
			<point x="88" y="317"/>
			<point x="69" y="317" type="curve" smooth="yes"/>
			<point x="50" y="317" type="line"/>
			<point x="50" y="297" type="line"/>
			<point x="69" y="297" type="line" smooth="yes"/>
			<point x="88" y="297"/>
			<point x="97" y="256"/>
			<point x="97" y="222" type="curve" smooth="yes"/>
			<point x="97" y="143"/>
			<point x="67" y="86"/>
		</contour>
	</outline>
</glyph>
<glyph name="bracketright.sc" format="2">
  <advance width="172"/>
  <outline>
    <contour>
      <point x="7" y="-105" type="line"/>
      <point x="7" y="-125" type="line"/>
      <point x="122" y="-125" type="line"/>
      <point x="122" y="740" type="line"/>
      <point x="7" y="740" type="line"/>
      <point x="7" y="720" type="line"/>
      <point x="102" y="720" type="line"/>
      <point x="102" y="-105" type="line"/>
    </contour>
  </outline>
</glyph>
<glyph name="c.superior" format="2">
  <advance width="141"/>
  <outline>
    <contour>
      <point x="91" y="364" type="curve" smooth="yes"/>
      <point x="99" y="364"/>
      <point x="111" y="366"/>
      <point x="125" y="368" type="curve"/>
      <point x="122" y="383" type="line"/>
      <point x="116" y="381"/>
      <point x="102" y="379"/>
      <point x="92" y="379" type="curve" smooth="yes"/>
      <point x="60" y="379"/>
      <point x="44" y="423"/>
      <point x="44" y="512" type="curve" smooth="yes"/>
      <point x="44" y="616"/>
      <point x="59" y="660"/>
      <point x="94" y="660" type="curve" smooth="yes"/>
      <point x="107" y="660"/>
      <point x="113" y="659"/>
      <point x="119" y="656" type="curve"/>
      <point x="122" y="671" type="line"/>
      <point x="115" y="674"/>
      <point x="105" y="675"/>
      <point x="93" y="675" type="curve" smooth="yes"/>
      <point x="45" y="675"/>
      <point x="25" y="626"/>
      <point x="25" y="510" type="curve" smooth="yes"/>
      <point x="25" y="407"/>
      <point x="44" y="364"/>
    </contour>
  </outline>
</glyph>
<glyph name="centsuperior" format="2">
	<advance width="131"/>
	<outline>
		<contour>
			<point x="83" y="362" type="curve" smooth="yes"/>
			<point x="91" y="362"/>
			<point x="96" y="363"/>
			<point x="105" y="366" type="curve"/>
			<point x="103" y="382" type="line"/>
			<point x="97" y="380"/>
			<point x="93" y="379"/>
			<point x="85" y="379" type="curve" smooth="yes"/>
			<point x="58" y="379"/>
			<point x="43" y="421"/>
			<point x="43" y="514" type="curve" smooth="yes"/>
			<point x="43" y="645"/>
			<point x="65" y="664"/>
			<point x="80" y="664" type="curve" smooth="yes"/>
			<point x="85" y="664"/>
			<point x="89" y="663"/>
			<point x="98" y="660" type="curve"/>
			<point x="103" y="675" type="line"/>
			<point x="98" y="677"/>
			<point x="90" y="680"/>
			<point x="80" y="680" type="curve" smooth="yes"/>
			<point x="41" y="680"/>
			<point x="25" y="630"/>
			<point x="25" y="514" type="curve" smooth="yes"/>
			<point x="25" y="403"/>
			<point x="45" y="362"/>
		</contour>
		<contour>
			<point x="65" y="307" type="line"/>
			<point x="81" y="307" type="line"/>
			<point x="81" y="365" type="line"/>
			<point x="65" y="367" type="line"/>
		</contour>
		<contour>
			<point x="65" y="673" type="line"/>
			<point x="81" y="676" type="line"/>
			<point x="81" y="734" type="line"/>
			<point x="65" y="734" type="line"/>
		</contour>
	</outline>
</glyph>
<glyph name="commasuperior" format="2">
	<advance width="60"/>
	<outline>
		<contour>
			<point x="26" y="391" type="line"/>
			<point x="31" y="378"/>
			<point x="34" y="364"/>
			<point x="34" y="355" type="curve" smooth="yes"/>
			<point x="34" y="321"/>
			<point x="24" y="283"/>
			<point x="-2" y="264" type="curve"/>
			<point x="7" y="250" type="line"/>
			<point x="41" y="274"/>
			<point x="51" y="323"/>
			<point x="51" y="355" type="curve" smooth="yes"/>
			<point x="51" y="367"/>
			<point x="49" y="381"/>
			<point x="44" y="397" type="curve"/>
		</contour>
	</outline>
</glyph>
<glyph name="d.sc" format="2">
  <advance width="278"/>
  <anchor x="139" y="275" name="center"/>
  <anchor x="139" y="0" name="bottom"/>
  <anchor x="119" y="600" name="top"/>
  <outline>
    <contour>
      <point x="114" y="-9" type="curve" smooth="yes"/>
      <point x="214" y="-9"/>
      <point x="250" y="79"/>
      <point x="250" y="308" type="curve" smooth="yes"/>
      <point x="250" y="538"/>
      <point x="214" y="624"/>
      <point x="115" y="624" type="curve" smooth="yes"/>
      <point x="93" y="624"/>
      <point x="67" y="622"/>
      <point x="43" y="619" type="curve"/>
      <point x="43" y="-5" type="line"/>
      <point x="62" y="-8"/>
      <point x="91" y="-9"/>
    </contour>
    <contour>
      <point x="103" y="8" type="curve" smooth="yes"/>
      <point x="93" y="8"/>
      <point x="82" y="9"/>
      <point x="63" y="11" type="curve"/>
      <point x="63" y="603" type="line"/>
      <point x="76" y="605"/>
      <point x="94" y="606"/>
      <point x="106" y="606" type="curve" smooth="yes"/>
      <point x="198" y="606"/>
      <point x="228" y="534"/>
      <point x="228" y="308" type="curve" smooth="yes"/>
      <point x="228" y="82"/>
      <point x="200" y="8"/>
    </contour>
  </outline>
</glyph>
<glyph name="dividesuperior" format="2">
	<advance width="178"/>
	<outline>
		<contour>
			<point x="79" y="419" type="curve" smooth="yes"/>
			<point x="79" y="407"/>
			<point x="79" y="406"/>
			<point x="89" y="406" type="curve" smooth="yes"/>
			<point x="100" y="406"/>
			<point x="100" y="407"/>
			<point x="100" y="419" type="curve" smooth="yes"/>
			<point x="100" y="430"/>
			<point x="99" y="431"/>
			<point x="89" y="431" type="curve" smooth="yes"/>
			<point x="79" y="431"/>
			<point x="79" y="430"/>
		</contour>
		<contour>
			<point x="79" y="647" type="curve" smooth="yes"/>
			<point x="79" y="635"/>
			<point x="79" y="634"/>
			<point x="89" y="634" type="curve" smooth="yes"/>
			<point x="100" y="634"/>
			<point x="100" y="635"/>
			<point x="100" y="647" type="curve" smooth="yes"/>
			<point x="100" y="658"/>
			<point x="100" y="660"/>
			<point x="89" y="660" type="curve" smooth="yes"/>
			<point x="79" y="660"/>
			<point x="79" y="658"/>
		</contour>
		<contour>
			<point x="4" y="524" type="line"/>
			<point x="174" y="524" type="line"/>
			<point x="174" y="541" type="line"/>
			<point x="4" y="541" type="line"/>
		</contour>
	</outline>
</glyph>
<glyph name="e.sc" format="2">
  <advance width="233"/>
  <anchor x="220" y="0" name="ogonek"/>
  <anchor x="127" y="600" name="top"/>
  <anchor x="20" y="600" name="topleft"/>
  <anchor x="127" y="0" name="bottom"/>
  <outline>
    <contour>
      <point x="43" y="0" type="line"/>
      <point x="220" y="0" type="line"/>
      <point x="220" y="19" type="line"/>
      <point x="63" y="19" type="line"/>
      <point x="63" y="310" type="line"/>
      <point x="196" y="310" type="line"/>
      <point x="196" y="328" type="line"/>
      <point x="63" y="328" type="line"/>
      <point x="63" y="596" type="line"/>
      <point x="210" y="596" type="line"/>
      <point x="210" y="615" type="line"/>
      <point x="43" y="615" type="line"/>
    </contour>
  </outline>
</glyph>
<glyph name="e.superior" format="2">
  <advance width="180"/>
  <outline>
    <contour>
      <point x="93" y="364" type="curve" smooth="yes"/>
      <point x="107" y="364"/>
      <point x="124" y="367"/>
      <point x="142" y="373" type="curve"/>
      <point x="138" y="389" type="line"/>
      <point x="121" y="382"/>
      <point x="107" y="379"/>
      <point x="94" y="379" type="curve" smooth="yes"/>
      <point x="56" y="379"/>
      <point x="43" y="414"/>
      <point x="43" y="515" type="curve" smooth="yes"/>
      <point x="43" y="519"/>
      <point x="43" y="522"/>
      <point x="43" y="526" type="curve"/>
      <point x="93" y="527"/>
      <point x="125" y="532"/>
      <point x="146" y="535" type="curve"/>
      <point x="146" y="540"/>
      <point x="146" y="546"/>
      <point x="146" y="551" type="curve" smooth="yes"/>
      <point x="146" y="634"/>
      <point x="127" y="675"/>
      <point x="88" y="675" type="curve" smooth="yes"/>
      <point x="42" y="675"/>
      <point x="25" y="630"/>
      <point x="25" y="508" type="curve" smooth="yes"/>
      <point x="25" y="406"/>
      <point x="45" y="364"/>
    </contour>
    <contour>
      <point x="43" y="539" type="curve"/>
      <point x="47" y="629"/>
      <point x="58" y="660"/>
      <point x="87" y="660" type="curve" smooth="yes"/>
      <point x="116" y="660"/>
      <point x="130" y="623"/>
      <point x="130" y="548" type="curve"/>
      <point x="111" y="543"/>
      <point x="70" y="539"/>
    </contour>
  </outline>
</glyph>
<glyph name="eng.sc" format="2">
  <advance width="292"/>
  <outline>
    <contour>
      <point x="43" y="0" type="line"/>
      <point x="62" y="0" type="line"/>
      <point x="62" y="553" type="line"/>
      <point x="230" y="6" type="line"/>
      <point x="230" y="-11" type="line" smooth="yes"/>
      <point x="230" y="-73"/>
      <point x="204" y="-96"/>
      <point x="149" y="-96" type="curve" smooth="yes"/>
      <point x="147" y="-96"/>
      <point x="144" y="-96"/>
      <point x="142" y="-96" type="curve"/>
      <point x="142" y="-113" type="line"/>
      <point x="144" y="-113"/>
      <point x="147" y="-113"/>
      <point x="149" y="-113" type="curve" smooth="yes"/>
      <point x="235" y="-113"/>
      <point x="249" y="-66"/>
      <point x="249" y="-9" type="curve" smooth="yes"/>
      <point x="249" y="615" type="line"/>
      <point x="230" y="615" type="line"/>
      <point x="230" y="66" type="line"/>
      <point x="61" y="615" type="line"/>
      <point x="43" y="615" type="line"/>
    </contour>
  </outline>
</glyph>
<glyph name="f_f_h.liga" format="2">
  <advance width="598"/>
  <outline>
    <contour>
      <point x="71" y="0" type="line"/>
      <point x="91" y="0" type="line"/>
      <point x="91" y="465" type="line"/>
      <point x="226" y="465" type="line"/>
      <point x="226" y="0" type="line"/>
      <point x="246" y="0" type="line"/>
      <point x="246" y="465" type="line"/>
      <point x="322" y="465" type="line"/>
      <point x="322" y="484" type="line"/>
      <point x="246" y="484" type="line"/>
      <point x="246" y="486" type="line" smooth="yes"/>
      <point x="246" y="696"/>
      <point x="283" y="731"/>
      <point x="337" y="731" type="curve" smooth="yes"/>
      <point x="353" y="731"/>
      <point x="367" y="728"/>
      <point x="381" y="723" type="curve"/>
      <point x="381" y="0" type="line"/>
      <point x="401" y="0" type="line"/>
      <point x="401" y="496" type="line"/>
      <point x="419" y="511"/>
      <point x="452" y="522"/>
      <point x="472" y="522" type="curve" smooth="yes"/>
      <point x="514" y="522"/>
      <point x="534" y="495"/>
      <point x="534" y="446" type="curve" smooth="yes"/>
      <point x="534" y="0" type="line"/>
      <point x="554" y="0" type="line"/>
      <point x="554" y="446" type="line" smooth="yes"/>
      <point x="554" y="516"/>
      <point x="519" y="540"/>
      <point x="479" y="540" type="curve" smooth="yes"/>
      <point x="452" y="540"/>
      <point x="421" y="530"/>
      <point x="401" y="517" type="curve"/>
      <point x="401" y="734" type="line"/>
      <point x="383" y="745"/>
      <point x="360" y="750"/>
      <point x="337" y="750" type="curve" smooth="yes"/>
      <point x="305" y="750"/>
      <point x="283" y="738"/>
      <point x="266" y="718" type="curve"/>
      <point x="247" y="729"/>
      <point x="221" y="740"/>
      <point x="190" y="740" type="curve" smooth="yes"/>
      <point x="125" y="740"/>
      <point x="71" y="688"/>
      <point x="71" y="486" type="curve" smooth="yes"/>
      <point x="71" y="484" type="line"/>
      <point x="11" y="478" type="line"/>
      <point x="11" y="465" type="line"/>
      <point x="71" y="465" type="line"/>
    </contour>
    <contour>
      <point x="91" y="484" type="line"/>
      <point x="91" y="486" type="line" smooth="yes"/>
      <point x="91" y="673"/>
      <point x="136" y="721"/>
      <point x="191" y="721" type="curve" smooth="yes"/>
      <point x="217" y="721"/>
      <point x="239" y="712"/>
      <point x="257" y="703" type="curve"/>
      <point x="231" y="657"/>
      <point x="226" y="580"/>
      <point x="226" y="486" type="curve" smooth="yes"/>
      <point x="226" y="484" type="line"/>
    </contour>
  </outline>
</glyph>
<glyph name="f_f_l.liga" format="2">
  <advance width="470"/>
  <outline>
    <contour>
      <point x="435" y="-10" type="curve" smooth="yes"/>
      <point x="444" y="-10"/>
      <point x="456" y="-8"/>
      <point x="468" y="-3" type="curve"/>
      <point x="464" y="16" type="line"/>
      <point x="449" y="11"/>
      <point x="441" y="10"/>
      <point x="435" y="10" type="curve" smooth="yes"/>
      <point x="413" y="10"/>
      <point x="401" y="22"/>
      <point x="401" y="115" type="curve" smooth="yes"/>
      <point x="401" y="734" type="line"/>
      <point x="383" y="745"/>
      <point x="360" y="750"/>
      <point x="337" y="750" type="curve" smooth="yes"/>
      <point x="305" y="750"/>
      <point x="283" y="738"/>
      <point x="266" y="718" type="curve"/>
      <point x="247" y="729"/>
      <point x="221" y="740"/>
      <point x="190" y="740" type="curve" smooth="yes"/>
      <point x="125" y="740"/>
      <point x="71" y="688"/>
      <point x="71" y="486" type="curve" smooth="yes"/>
      <point x="71" y="484" type="line"/>
      <point x="11" y="478" type="line"/>
      <point x="11" y="465" type="line"/>
      <point x="71" y="465" type="line"/>
      <point x="71" y="0" type="line"/>
      <point x="91" y="0" type="line"/>
      <point x="91" y="465" type="line"/>
      <point x="226" y="465" type="line"/>
      <point x="226" y="0" type="line"/>
      <point x="246" y="0" type="line"/>
      <point x="246" y="465" type="line"/>
      <point x="322" y="465" type="line"/>
      <point x="322" y="484" type="line"/>
      <point x="246" y="484" type="line"/>
      <point x="246" y="486" type="line" smooth="yes"/>
      <point x="246" y="696"/>
      <point x="283" y="731"/>
      <point x="337" y="731" type="curve" smooth="yes"/>
      <point x="353" y="731"/>
      <point x="367" y="728"/>
      <point x="381" y="723" type="curve"/>
      <point x="381" y="115" type="line" smooth="yes"/>
      <point x="381" y="6"/>
      <point x="398" y="-10"/>
    </contour>
    <contour>
      <point x="91" y="484" type="line"/>
      <point x="91" y="486" type="line" smooth="yes"/>
      <point x="91" y="673"/>
      <point x="136" y="721"/>
      <point x="191" y="721" type="curve" smooth="yes"/>
      <point x="217" y="721"/>
      <point x="239" y="712"/>
      <point x="257" y="703" type="curve"/>
      <point x="231" y="657"/>
      <point x="226" y="580"/>
      <point x="226" y="486" type="curve" smooth="yes"/>
      <point x="226" y="484" type="line"/>
    </contour>
  </outline>
</glyph>
<glyph name="f_f_t.liga" format="2">
  <advance width="510"/>
  <outline>
    <contour>
      <point x="71" y="0" type="line"/>
      <point x="91" y="0" type="line"/>
      <point x="91" y="511" type="line"/>
      <point x="226" y="511" type="line"/>
      <point x="226" y="0" type="line"/>
      <point x="246" y="0" type="line"/>
      <point x="246" y="511" type="line"/>
      <point x="381" y="511" type="line"/>
      <point x="381" y="108" type="line" smooth="yes"/>
      <point x="381" y="43"/>
      <point x="393" y="-10"/>
      <point x="468" y="-10" type="curve" smooth="yes"/>
      <point x="481" y="-10"/>
      <point x="496" y="-8"/>
      <point x="513" y="-3" type="curve"/>
      <point x="509" y="15" type="line"/>
      <point x="494" y="10"/>
      <point x="481" y="9"/>
      <point x="468" y="9" type="curve" smooth="yes"/>
      <point x="419" y="9"/>
      <point x="401" y="38"/>
      <point x="401" y="108" type="curve" smooth="yes"/>
      <point x="401" y="511" type="line"/>
      <point x="508" y="511" type="line"/>
      <point x="508" y="530" type="line"/>
      <point x="401" y="530" type="line"/>
      <point x="401" y="734" type="line"/>
      <point x="384" y="745"/>
      <point x="361" y="750"/>
      <point x="337" y="750" type="curve" smooth="yes"/>
      <point x="306" y="750"/>
      <point x="284" y="737"/>
      <point x="267" y="717" type="curve"/>
      <point x="247" y="728"/>
      <point x="221" y="740"/>
      <point x="190" y="740" type="curve" smooth="yes"/>
      <point x="125" y="740"/>
      <point x="71" y="688"/>
      <point x="71" y="532" type="curve" smooth="yes"/>
      <point x="71" y="530" type="line"/>
      <point x="11" y="524" type="line"/>
      <point x="11" y="511" type="line"/>
      <point x="71" y="511" type="line"/>
    </contour>
    <contour>
      <point x="246" y="530" type="line"/>
      <point x="246" y="532" type="line" smooth="yes"/>
      <point x="246" y="692"/>
      <point x="289" y="731"/>
      <point x="337" y="731" type="curve" smooth="yes"/>
      <point x="354" y="731"/>
      <point x="367" y="729"/>
      <point x="381" y="723" type="curve"/>
      <point x="381" y="530" type="line"/>
    </contour>
    <contour>
      <point x="91" y="530" type="line"/>
      <point x="91" y="532" type="line" smooth="yes"/>
      <point x="91" y="673"/>
      <point x="136" y="721"/>
      <point x="191" y="721" type="curve" smooth="yes"/>
      <point x="217" y="721"/>
      <point x="239" y="712"/>
      <point x="257" y="703" type="curve"/>
      <point x="232" y="661"/>
      <point x="226" y="596"/>
      <point x="226" y="532" type="curve" smooth="yes"/>
      <point x="226" y="530" type="line"/>
    </contour>
  </outline>
</glyph>
<glyph name="f_h.liga" format="2">
  <advance width="443"/>
  <outline>
    <contour>
      <point x="71" y="0" type="line"/>
      <point x="91" y="0" type="line"/>
      <point x="91" y="465" type="line"/>
      <point x="167" y="465" type="line"/>
      <point x="167" y="484" type="line"/>
      <point x="91" y="484" type="line"/>
      <point x="91" y="515" type="line" smooth="yes"/>
      <point x="91" y="667"/>
      <point x="118" y="731"/>
      <point x="182" y="731" type="curve" smooth="yes"/>
      <point x="196" y="731"/>
      <point x="210" y="729"/>
      <point x="226" y="723" type="curve"/>
      <point x="226" y="0" type="line"/>
      <point x="246" y="0" type="line"/>
      <point x="246" y="496" type="line"/>
      <point x="264" y="511"/>
      <point x="297" y="522"/>
      <point x="317" y="522" type="curve" smooth="yes"/>
      <point x="359" y="522"/>
      <point x="379" y="495"/>
      <point x="379" y="446" type="curve" smooth="yes"/>
      <point x="379" y="0" type="line"/>
      <point x="399" y="0" type="line"/>
      <point x="399" y="446" type="line" smooth="yes"/>
      <point x="399" y="516"/>
      <point x="364" y="540"/>
      <point x="324" y="540" type="curve" smooth="yes"/>
      <point x="297" y="540"/>
      <point x="266" y="530"/>
      <point x="246" y="517" type="curve"/>
      <point x="246" y="734" type="line"/>
      <point x="228" y="744"/>
      <point x="206" y="750"/>
      <point x="182" y="750" type="curve" smooth="yes"/>
      <point x="106" y="750"/>
      <point x="71" y="680"/>
      <point x="71" y="515" type="curve" smooth="yes"/>
      <point x="71" y="484" type="line"/>
      <point x="11" y="478" type="line"/>
      <point x="11" y="465" type="line"/>
      <point x="71" y="465" type="line"/>
    </contour>
  </outline>
</glyph>
<glyph name="f_j.liga" format="2">
  <advance width="290"/>
  <outline>
    <contour>
      <point x="188" y="-192" type="curve" smooth="yes"/>
      <point x="226" y="-155"/>
      <point x="246" y="-90"/>
      <point x="246" y="14" type="curve" smooth="yes"/>
      <point x="246" y="530" type="line"/>
      <point x="91" y="530" type="line"/>
      <point x="91" y="532" type="line" smooth="yes"/>
      <point x="91" y="667"/>
      <point x="121" y="731"/>
      <point x="183" y="731" type="curve" smooth="yes"/>
      <point x="207" y="731"/>
      <point x="223" y="727"/>
      <point x="242" y="716" type="curve"/>
      <point x="250" y="731" type="line"/>
      <point x="234" y="744"/>
      <point x="211" y="750"/>
      <point x="183" y="750" type="curve" smooth="yes"/>
      <point x="109" y="750"/>
      <point x="71" y="678"/>
      <point x="71" y="532" type="curve" smooth="yes"/>
      <point x="71" y="530" type="line"/>
      <point x="11" y="524" type="line"/>
      <point x="11" y="511" type="line"/>
      <point x="71" y="511" type="line"/>
      <point x="71" y="0" type="line"/>
      <point x="91" y="0" type="line"/>
      <point x="91" y="511" type="line"/>
      <point x="226" y="511" type="line"/>
      <point x="226" y="14" type="line" smooth="yes"/>
      <point x="226" y="-84"/>
      <point x="207" y="-148"/>
      <point x="173" y="-180" type="curve" smooth="yes"/>
      <point x="168" y="-185"/>
      <point x="163" y="-189"/>
      <point x="157" y="-192" type="curve"/>
      <point x="166" y="-209" type="line"/>
      <point x="174" y="-204"/>
      <point x="181" y="-198"/>
    </contour>
  </outline>
</glyph>
<glyph name="g.sc" format="2">
  <advance width="253"/>
  <anchor x="146" y="600" name="top"/>
  <anchor x="149" y="0" name="bottom"/>
  <outline>
    <contour>
      <point x="28" y="295" type="curve" smooth="yes"/>
      <point x="28" y="85"/>
      <point x="63" y="-9"/>
      <point x="155" y="-9" type="curve" smooth="yes"/>
      <point x="182" y="-9"/>
      <point x="209" y="-6"/>
      <point x="220" y="-1" type="curve"/>
      <point x="220" y="299" type="line"/>
      <point x="127" y="299" type="line"/>
      <point x="127" y="281" type="line"/>
      <point x="199" y="281" type="line"/>
      <point x="199" y="12" type="line"/>
      <point x="188" y="9"/>
      <point x="174" y="8"/>
      <point x="156" y="8" type="curve" smooth="yes"/>
      <point x="80" y="8"/>
      <point x="48" y="97"/>
      <point x="48" y="295" type="curve" smooth="yes"/>
      <point x="48" y="519"/>
      <point x="81" y="606"/>
      <point x="160" y="606" type="curve" smooth="yes"/>
      <point x="176" y="606"/>
      <point x="191" y="604"/>
      <point x="209" y="599" type="curve"/>
      <point x="213" y="616" type="line"/>
      <point x="196" y="621"/>
      <point x="179" y="624"/>
      <point x="159" y="624" type="curve" smooth="yes"/>
      <point x="65" y="624"/>
      <point x="28" y="529"/>
    </contour>
  </outline>
</glyph>
<glyph name="g.superior" format="2">
	<advance width="148"/>
	<outline>
		<contour>
			<point x="81" y="238" type="curve" smooth="yes"/>
			<point x="124" y="238"/>
			<point x="150" y="270"/>
			<point x="150" y="325" type="curve" smooth="yes"/>
			<point x="150" y="368"/>
			<point x="129" y="396"/>
			<point x="89" y="396" type="curve" smooth="yes"/>
			<point x="68" y="396" type="line" smooth="yes"/>
			<point x="46" y="396"/>
			<point x="36" y="407"/>
			<point x="36" y="430" type="curve" smooth="yes"/>
			<point x="36" y="456"/>
			<point x="50" y="476"/>
			<point x="61" y="486" type="curve"/>
			<point x="48" y="494" type="line"/>
			<point x="29" y="474"/>
			<point x="20" y="452"/>
			<point x="20" y="429" type="curve" smooth="yes"/>
			<point x="20" y="401"/>
			<point x="31" y="378"/>
			<point x="59" y="378" type="curve" smooth="yes"/>
			<point x="85" y="378" type="line" smooth="yes"/>
			<point x="114" y="378"/>
			<point x="131" y="359"/>
			<point x="131" y="326" type="curve" smooth="yes"/>
			<point x="131" y="275"/>
			<point x="115" y="254"/>
			<point x="81" y="254" type="curve" smooth="yes"/>
			<point x="49" y="254"/>
			<point x="32" y="279"/>
			<point x="32" y="321" type="curve" smooth="yes"/>
			<point x="32" y="343"/>
			<point x="38" y="367"/>
			<point x="49" y="382" type="curve"/>
			<point x="36" y="389" type="line"/>
			<point x="19" y="369"/>
			<point x="14" y="344"/>
			<point x="14" y="320" type="curve" smooth="yes"/>
			<point x="14" y="270"/>
			<point x="39" y="238"/>
		</contour>
		<contour>
			<point x="77" y="479" type="curve" smooth="yes"/>
			<point x="113" y="479"/>
			<point x="131" y="510"/>
			<point x="131" y="577" type="curve" smooth="yes"/>
			<point x="131" y="644"/>
			<point x="113" y="675"/>
			<point x="77" y="675" type="curve" smooth="yes"/>
			<point x="41" y="675"/>
			<point x="23" y="644"/>
			<point x="23" y="577" type="curve" smooth="yes"/>
			<point x="23" y="510"/>
			<point x="41" y="479"/>
		</contour>
		<contour>
			<point x="77" y="495" type="curve" smooth="yes"/>
			<point x="53" y="495"/>
			<point x="41" y="518"/>
			<point x="41" y="577" type="curve" smooth="yes"/>
			<point x="41" y="636"/>
			<point x="53" y="659"/>
			<point x="77" y="659" type="curve" smooth="yes"/>
			<point x="101" y="659"/>
			<point x="113" y="636"/>
			<point x="113" y="577" type="curve" smooth="yes"/>
			<point x="113" y="518"/>
			<point x="101" y="495"/>
		</contour>
		<contour>
			<point x="120" y="637" type="line"/>
			<point x="126" y="652"/>
			<point x="135" y="661"/>
			<point x="144" y="661" type="curve" smooth="yes"/>
			<point x="146" y="661"/>
			<point x="148" y="661"/>
			<point x="150" y="661" type="curve"/>
			<point x="150" y="677" type="line"/>
			<point x="148" y="677"/>
			<point x="146" y="677"/>
			<point x="144" y="677" type="curve" smooth="yes"/>
			<point x="132" y="677"/>
			<point x="117" y="670"/>
			<point x="110" y="650" type="curve"/>
		</contour>
	</outline>
</glyph>
<glyph name="gravecomb.case" format="2">
	<advance width="0"/>
	<anchor x="-179" y="855" name="top"/>
	<anchor x="-150" y="700" name="_top"/>
	<outline>
		<contour>
			<point x="-156" y="736" type="line"/>
			<point x="-138" y="736" type="line"/>
			<point x="-200" y="885" type="line"/>
			<point x="-221" y="885" type="line"/>
		</contour>
	</outline>
</glyph>
<glyph name="h.sc" format="2">
  <advance width="298"/>
  <anchor x="149" y="275" name="center"/>
  <anchor x="149" y="600" name="top"/>
  <anchor x="20" y="600" name="topleft"/>
  <anchor x="149" y="0" name="bottom"/>
  <outline>
    <contour>
      <point x="43" y="0" type="line"/>
      <point x="63" y="0" type="line"/>
      <point x="63" y="255" type="line"/>
      <point x="235" y="255" type="line"/>
      <point x="235" y="0" type="line"/>
      <point x="255" y="0" type="line"/>
      <point x="255" y="615" type="line"/>
      <point x="235" y="615" type="line"/>
      <point x="235" y="273" type="line"/>
      <point x="63" y="273" type="line"/>
      <point x="63" y="615" type="line"/>
      <point x="43" y="615" type="line"/>
    </contour>
  </outline>
</glyph>
<glyph name="h.superior" format="2">
  <advance width="188"/>
  <outline>
    <contour>
      <point x="40" y="370" type="line"/>
      <point x="59" y="370" type="line"/>
      <point x="59" y="644" type="line"/>
      <point x="68" y="652"/>
      <point x="86" y="659"/>
      <point x="97" y="659" type="curve" smooth="yes"/>
      <point x="123" y="659"/>
      <point x="131" y="648"/>
      <point x="131" y="617" type="curve" smooth="yes"/>
      <point x="131" y="370" type="line"/>
      <point x="150" y="370" type="line"/>
      <point x="150" y="617" type="line" smooth="yes"/>
      <point x="150" y="660"/>
      <point x="138" y="675"/>
      <point x="103" y="675" type="curve" smooth="yes"/>
      <point x="86" y="675"/>
      <point x="70" y="669"/>
      <point x="59" y="661" type="curve"/>
      <point x="59" y="788" type="line"/>
      <point x="40" y="788" type="line"/>
    </contour>
  </outline>
</glyph>
<glyph name="hbar.sc" format="2">
	<advance width="298"/>
	<outline>
		<contour>
			<point x="43" y="0" type="line"/>
			<point x="63" y="0" type="line"/>
			<point x="63" y="254" type="line"/>
			<point x="235" y="254" type="line"/>
			<point x="235" y="0" type="line"/>
			<point x="255" y="0" type="line"/>
			<point x="255" y="439" type="line"/>
			<point x="297" y="439" type="line"/>
			<point x="297" y="458" type="line"/>
			<point x="255" y="458" type="line"/>
			<point x="255" y="615" type="line"/>
			<point x="235" y="615" type="line"/>
			<point x="235" y="458" type="line"/>
			<point x="63" y="458" type="line"/>
			<point x="63" y="615" type="line"/>
			<point x="43" y="615" type="line"/>
			<point x="43" y="458" type="line"/>
			<point x="0" y="458" type="line"/>
			<point x="0" y="439" type="line"/>
			<point x="43" y="439" type="line"/>
		</contour>
		<contour>
			<point x="63" y="273" type="line"/>
			<point x="63" y="439" type="line"/>
			<point x="235" y="439" type="line"/>
			<point x="235" y="273" type="line"/>
		</contour>
	</outline>
</glyph>
<glyph name="i.sc.loclTRK" format="2">
  <advance width="106"/>
  <outline>
    <contour>
      <point x="53" y="747" type="curve" smooth="yes"/>
      <point x="67" y="747"/>
      <point x="67" y="748"/>
      <point x="67" y="764" type="curve" smooth="yes"/>
      <point x="67" y="780"/>
      <point x="67" y="781"/>
      <point x="53" y="781" type="curve" smooth="yes"/>
      <point x="39" y="781"/>
      <point x="39" y="780"/>
      <point x="39" y="764" type="curve" smooth="yes"/>
      <point x="39" y="748"/>
      <point x="40" y="747"/>
    </contour>
    <contour>
      <point x="43" y="0" type="line"/>
      <point x="63" y="0" type="line"/>
      <point x="63" y="615" type="line"/>
      <point x="43" y="615" type="line"/>
    </contour>
  </outline>
</glyph>
<glyph name="i.superior" format="2">
	<advance width="106"/>
	<outline>
		<contour>
			<point x="53" y="747" type="curve" smooth="yes"/>
			<point x="65" y="747"/>
			<point x="66" y="748"/>
			<point x="66" y="762" type="curve" smooth="yes"/>
			<point x="66" y="776"/>
			<point x="65" y="777"/>
			<point x="53" y="777" type="curve" smooth="yes"/>
			<point x="40" y="777"/>
			<point x="40" y="776"/>
			<point x="40" y="762" type="curve" smooth="yes"/>
			<point x="40" y="748"/>
			<point x="41" y="747"/>
		</contour>
		<contour>
			<point x="43" y="370" type="line"/>
			<point x="62" y="370" type="line"/>
			<point x="62" y="670" type="line"/>
			<point x="43" y="670" type="line"/>
		</contour>
	</outline>
</glyph>
<glyph name="j.sc" format="2">
  <advance width="197"/>
  <anchor x="92" y="600" name="top"/>
  <anchor x="92" y="0" name="bottom"/>
  <outline>
    <contour>
      <point x="7" y="-2" type="line"/>
      <point x="25" y="-7"/>
      <point x="46" y="-9"/>
      <point x="59" y="-9" type="curve" smooth="yes"/>
      <point x="155" y="-9"/>
      <point x="159" y="54"/>
      <point x="159" y="96" type="curve" smooth="yes"/>
      <point x="159" y="615" type="line"/>
      <point x="17" y="615" type="line"/>
      <point x="17" y="597" type="line"/>
      <point x="139" y="597" type="line"/>
      <point x="139" y="94" type="line" smooth="yes"/>
      <point x="139" y="40"/>
      <point x="120" y="10"/>
      <point x="58" y="10" type="curve" smooth="yes"/>
      <point x="44" y="10"/>
      <point x="28" y="10"/>
      <point x="12" y="15" type="curve"/>
    </contour>
  </outline>
</glyph>
<glyph name="j.short" format="2">
	<advance width="107"/>
	<outline>
		<contour>
			<point x="63" y="530" type="line"/>
			<point x="43" y="530" type="line"/>
			<point x="43" y="-90" type="line" smooth="yes"/>
			<point x="43" y="-131"/>
			<point x="35" y="-154"/>
			<point x="12" y="-177" type="curve" smooth="yes"/>
			<point x="6" y="-183"/>
			<point x="-1" y="-188"/>
			<point x="-7" y="-192" type="curve"/>
			<point x="3" y="-209" type="line"/>
			<point x="11" y="-204"/>
			<point x="18" y="-199"/>
			<point x="26" y="-191" type="curve" smooth="yes"/>
			<point x="45" y="-173"/>
			<point x="63" y="-147"/>
			<point x="63" y="-86" type="curve" smooth="yes"/>
		</contour>
		<contour>
			<point x="53" y="677" type="curve" smooth="yes"/>
			<point x="66" y="677"/>
			<point x="67" y="678"/>
			<point x="67" y="694" type="curve" smooth="yes"/>
			<point x="67" y="710"/>
			<point x="66" y="711"/>
			<point x="53" y="711" type="curve" smooth="yes"/>
			<point x="39" y="711"/>
			<point x="39" y="710"/>
			<point x="39" y="694" type="curve" smooth="yes"/>
			<point x="39" y="678"/>
			<point x="40" y="677"/>
		</contour>
	</outline>
</glyph>
<glyph name="k.superior" format="2">
  <advance width="190"/>
  <outline>
    <contour>
      <point x="59" y="788" type="line"/>
      <point x="40" y="788" type="line"/>
      <point x="40" y="370" type="line"/>
      <point x="59" y="370" type="line"/>
      <point x="59" y="529" type="line"/>
      <point x="140" y="375"/>
      <point x="143" y="364"/>
      <point x="161" y="364" type="curve" smooth="yes"/>
      <point x="165" y="364"/>
      <point x="169" y="366"/>
      <point x="172" y="366" type="curve"/>
      <point x="170" y="383" type="line"/>
      <point x="169" y="382"/>
      <point x="165" y="382"/>
      <point x="163" y="382" type="curve" smooth="yes"/>
      <point x="151" y="382"/>
      <point x="151" y="387"/>
      <point x="87" y="511" type="curve"/>
      <point x="113" y="552"/>
      <point x="143" y="602"/>
      <point x="155" y="672" type="curve"/>
      <point x="138" y="676" type="line"/>
      <point x="126" y="605"/>
      <point x="99" y="562"/>
      <point x="77" y="526" type="curve"/>
      <point x="59" y="557" type="line"/>
    </contour>
  </outline>
</glyph>
<glyph name="ldot.sc" format="2">
  <advance width="203"/>
  <outline>
    <contour>
      <point x="154" y="300" type="curve" smooth="yes"/>
      <point x="168" y="300"/>
      <point x="168" y="301"/>
      <point x="168" y="317" type="curve" smooth="yes"/>
      <point x="168" y="333"/>
      <point x="168" y="334"/>
      <point x="154" y="334" type="curve" smooth="yes"/>
      <point x="140" y="334"/>
      <point x="140" y="333"/>
      <point x="140" y="317" type="curve" smooth="yes"/>
      <point x="140" y="301"/>
      <point x="141" y="300"/>
    </contour>
    <contour>
      <point x="43" y="0" type="line"/>
      <point x="197" y="0" type="line"/>
      <point x="197" y="18" type="line"/>
      <point x="63" y="18" type="line"/>
      <point x="63" y="615" type="line"/>
      <point x="43" y="615" type="line"/>
    </contour>
  </outline>
</glyph>
<glyph name="lslash.sc" format="2">
	<advance width="200"/>
	<outline>
		<contour>
			<point x="0" y="169" type="line"/>
			<point x="43" y="224" type="line"/>
			<point x="43" y="0" type="line"/>
			<point x="196" y="0" type="line"/>
			<point x="196" y="19" type="line"/>
			<point x="63" y="19" type="line"/>
			<point x="63" y="250" type="line"/>
			<point x="181" y="403" type="line"/>
			<point x="181" y="432" type="line"/>
			<point x="63" y="280" type="line"/>
			<point x="63" y="615" type="line"/>
			<point x="43" y="615" type="line"/>
			<point x="43" y="254" type="line"/>
			<point x="0" y="199" type="line"/>
		</contour>
	</outline>
</glyph>
<glyph name="m.sc" format="2">
  <advance width="313"/>
  <outline>
    <contour>
      <point x="43" y="0" type="line"/>
      <point x="63" y="0" type="line"/>
      <point x="63" y="568" type="line"/>
      <point x="149" y="242" type="line"/>
      <point x="163" y="242" type="line"/>
      <point x="250" y="567" type="line"/>
      <point x="250" y="0" type="line"/>
      <point x="270" y="0" type="line"/>
      <point x="270" y="615" type="line"/>
      <point x="246" y="615" type="line"/>
      <point x="157" y="282" type="line"/>
      <point x="69" y="615" type="line"/>
      <point x="43" y="615" type="line"/>
    </contour>
  </outline>
</glyph>
<glyph name="multiplysuperior" format="2">
	<advance width="178"/>
	<outline>
		<contour>
			<point x="29" y="404" type="line"/>
			<point x="88" y="514" type="line"/>
			<point x="147" y="404" type="line"/>
			<point x="164" y="411" type="line"/>
			<point x="97" y="532" type="line"/>
			<point x="163" y="654" type="line"/>
			<point x="147" y="662" type="line"/>
			<point x="88" y="552" type="line"/>
			<point x="29" y="662" type="line"/>
			<point x="14" y="654" type="line"/>
			<point x="78" y="532" type="line"/>
			<point x="13" y="411" type="line"/>
		</contour>
	</outline>
</glyph>
<glyph name="n.sc" format="2">
  <advance width="294"/>
  <anchor x="147" y="600" name="top"/>
  <anchor x="147" y="0" name="bottom"/>
  <outline>
    <contour>
      <point x="43" y="0" type="line"/>
      <point x="63" y="0" type="line"/>
      <point x="63" y="550" type="line"/>
      <point x="232" y="0" type="line"/>
      <point x="251" y="0" type="line"/>
      <point x="251" y="615" type="line"/>
      <point x="230" y="615" type="line"/>
      <point x="230" y="69" type="line"/>
      <point x="63" y="615" type="line"/>
      <point x="43" y="615" type="line"/>
    </contour>
  </outline>
</glyph>
<glyph name="oe.sc" format="2">
  <advance width="404"/>
  <outline>
    <contour>
      <point x="391" y="0" type="line"/>
      <point x="391" y="19" type="line"/>
      <point x="235" y="19" type="line"/>
      <point x="235" y="309" type="line"/>
      <point x="367" y="309" type="line"/>
      <point x="367" y="328" type="line"/>
      <point x="235" y="328" type="line"/>
      <point x="235" y="596" type="line"/>
      <point x="382" y="596" type="line"/>
      <point x="382" y="615" type="line"/>
      <point x="234" y="615" type="line"/>
      <point x="216" y="618"/>
      <point x="191" y="619"/>
      <point x="166" y="619" type="curve" smooth="yes"/>
      <point x="83" y="619"/>
      <point x="28" y="580"/>
      <point x="28" y="308" type="curve" smooth="yes"/>
      <point x="28" y="58"/>
      <point x="74" y="-5"/>
      <point x="163" y="-5" type="curve" smooth="yes"/>
      <point x="180" y="-5"/>
      <point x="204" y="-4"/>
      <point x="235" y="0" type="curve"/>
    </contour>
    <contour>
      <point x="214" y="15" type="line"/>
      <point x="201" y="14"/>
      <point x="185" y="13"/>
      <point x="172" y="13" type="curve" smooth="yes"/>
      <point x="90" y="13"/>
      <point x="49" y="57"/>
      <point x="49" y="308" type="curve" smooth="yes"/>
      <point x="49" y="563"/>
      <point x="92" y="602"/>
      <point x="177" y="602" type="curve" smooth="yes"/>
      <point x="188" y="602"/>
      <point x="198" y="601"/>
      <point x="214" y="599" type="curve"/>
    </contour>
  </outline>
</glyph>
<glyph name="one.lf" format="2">
	<advance width="188"/>
	<outline>
		<contour>
			<point x="138" y="0" type="line"/>
			<point x="138" y="700" type="line"/>
			<point x="126" y="700" type="line"/>
			<point x="-4" y="580" type="line"/>
			<point x="8" y="566" type="line"/>
			<point x="118" y="665" type="line"/>
			<point x="118" y="0" type="line"/>
		</contour>
	</outline>
</glyph>
<glyph name="one.osf" format="2">
	<advance width="176"/>
	<outline>
		<contour>
			<point x="132" y="0" type="line"/>
			<point x="132" y="530" type="line"/>
			<point x="120" y="530" type="line"/>
			<point x="-10" y="410" type="line"/>
			<point x="2" y="395" type="line"/>
			<point x="112" y="495" type="line"/>
			<point x="112" y="0" type="line"/>
		</contour>
	</outline>
</glyph>
<glyph name="p.sc" format="2">
  <advance width="241"/>
  <outline>
    <contour>
      <point x="43" y="0" type="line"/>
      <point x="63" y="0" type="line"/>
      <point x="63" y="258" type="line"/>
      <point x="73" y="257"/>
      <point x="87" y="257"/>
      <point x="102" y="257" type="curve" smooth="yes"/>
      <point x="182" y="257"/>
      <point x="224" y="312"/>
      <point x="224" y="449" type="curve" smooth="yes"/>
      <point x="224" y="581"/>
      <point x="196" y="624"/>
      <point x="105" y="624" type="curve" smooth="yes"/>
      <point x="86" y="624"/>
      <point x="64" y="622"/>
      <point x="43" y="619" type="curve"/>
    </contour>
    <contour>
      <point x="63" y="603" type="line"/>
      <point x="78" y="606"/>
      <point x="93" y="607"/>
      <point x="106" y="607" type="curve" smooth="yes"/>
      <point x="186" y="607"/>
      <point x="204" y="562"/>
      <point x="204" y="447" type="curve" smooth="yes"/>
      <point x="204" y="324"/>
      <point x="170" y="276"/>
      <point x="103" y="276" type="curve" smooth="yes"/>
      <point x="88" y="276"/>
      <point x="76" y="276"/>
      <point x="63" y="277" type="curve"/>
    </contour>
  </outline>
</glyph>
<glyph name="periodsuperior" format="2">
  <advance width="50"/>
  <outline>
    <contour>
      <point x="14" y="379" type="curve" smooth="yes"/>
      <point x="14" y="367"/>
      <point x="14" y="366"/>
      <point x="25" y="366" type="curve" smooth="yes"/>
      <point x="36" y="366"/>
      <point x="36" y="367"/>
      <point x="36" y="379" type="curve" smooth="yes"/>
      <point x="36" y="390"/>
      <point x="36" y="391"/>
      <point x="25" y="391" type="curve" smooth="yes"/>
      <point x="14" y="391"/>
      <point x="14" y="390"/>
    </contour>
  </outline>
</glyph>
<glyph name="q.superior" format="2">
  <advance width="181"/>
  <outline>
    <contour>
      <point x="141" y="667" type="line"/>
      <point x="130" y="671"/>
      <point x="119" y="675"/>
      <point x="98" y="675" type="curve" smooth="yes"/>
      <point x="44" y="675"/>
      <point x="25" y="633"/>
      <point x="25" y="514" type="curve" smooth="yes"/>
      <point x="25" y="414"/>
      <point x="44" y="364"/>
      <point x="83" y="364" type="curve" smooth="yes"/>
      <point x="97" y="364"/>
      <point x="109" y="367"/>
      <point x="122" y="375" type="curve"/>
      <point x="122" y="253" type="line"/>
      <point x="141" y="253" type="line"/>
    </contour>
    <contour>
      <point x="122" y="655" type="curve"/>
      <point x="122" y="391" type="line"/>
      <point x="108" y="382"/>
      <point x="100" y="380"/>
      <point x="87" y="380" type="curve" smooth="yes"/>
      <point x="60" y="380"/>
      <point x="44" y="417"/>
      <point x="44" y="512" type="curve" smooth="yes"/>
      <point x="44" y="623"/>
      <point x="57" y="659"/>
      <point x="98" y="659" type="curve" smooth="yes"/>
      <point x="108" y="659"/>
      <point x="115" y="659"/>
    </contour>
  </outline>
</glyph>
